<?xml version="1.0" encoding="UTF-8" standalone="no"?>
<svg width="44px" height="43px" viewBox="0 0 44 43" version="1.1" xmlns="http://www.w3.org/2000/svg" xmlns:xlink="http://www.w3.org/1999/xlink" xmlns:sketch="http://www.bohemiancoding.com/sketch/ns">
    <!-- Generator: Sketch 3.3.3 (12081) - http://www.bohemiancoding.com/sketch -->
    <title>email_F</title>
    <desc>Created with Sketch.</desc>
    <defs></defs>
    <g id="Page-1" stroke="none" stroke-width="1" fill="none" fill-rule="evenodd" sketch:type="MSPage">
        <g id="row-4-full-icons" sketch:type="MSLayerGroup" transform="translate(-171.000000, 0.000000)" fill="#D0011B">
            <path d="M192.857143,42.8571429 C204.691817,42.8571429 214.285714,33.2632452 214.285714,21.4285714 C214.285714,9.59389763 204.691817,0 192.857143,0 C181.022469,0 171.428571,9.59389763 171.428571,21.4285714 C171.428571,33.2632452 181.022469,42.8571429 192.857143,42.8571429 Z M180.816964,13.6995944 L192.894311,24.9459797 L204.857143,13.6995944 L180.816964,13.6995944 Z M180,15.3363871 L186.684042,21.4717024 L180,27.4908929 L180,15.3363871 Z M205.714286,15.2463738 L205.714286,27.4908925 L198.847298,21.4548624 L205.714286,15.2463738 Z M197.710075,22.4756991 L192.866587,26.9889199 L187.949776,22.4756991 L180.841144,29.1428571 L204.892031,29.1428571 L197.710075,22.4756991 Z" id="email_F" sketch:type="MSShapeGroup"></path>
        </g>
    </g>
</svg>