<?xml version="1.0" encoding="UTF-8" standalone="no"?>
<svg width="43px" height="43px" viewBox="0 0 43 43" version="1.1" xmlns="http://www.w3.org/2000/svg" xmlns:xlink="http://www.w3.org/1999/xlink" xmlns:sketch="http://www.bohemiancoding.com/sketch/ns">
    <!-- Generator: Sketch 3.3.3 (12081) - http://www.bohemiancoding.com/sketch -->
    <title>facebook_F</title>
    <desc>Created with Sketch.</desc>
    <defs></defs>
    <g id="Page-1" stroke="none" stroke-width="1" fill="none" fill-rule="evenodd" sketch:type="MSPage">
        <g id="row-4-full-icons" sketch:type="MSLayerGroup" fill="#084791">
            <path d="M21.4285714,42.8571429 C33.2632452,42.8571429 42.8571429,33.2632452 42.8571429,21.4285714 C42.8571429,9.59389763 33.2632452,0 21.4285714,0 C9.59389763,0 0,9.59389763 0,21.4285714 C0,33.2632452 9.59389763,42.8571429 21.4285714,42.8571429 Z M24.0068571,7.596 C23.1068571,7.596 22.2428571,7.704 21.2348571,8.1 C19.1828571,8.928 18.1388571,10.872 18.1388571,13.896 L18.1388571,16.848 L15.2588571,16.848 L15.2588571,21.78 L18.1388571,21.78 L18.1388571,36 L24.0068571,36 L24.0068571,21.78 L28.0028571,21.78 L28.5428571,16.848 L24.0068571,16.848 L24.0068571,14.616 C24.0068571,13.932 24.0788571,13.428 24.2588571,13.14 C24.5108571,12.708 25.0148571,12.492 25.8068571,12.492 L28.4708571,12.492 L28.4708571,7.596 L24.0068571,7.596 Z" id="facebook_F" sketch:type="MSShapeGroup"></path>
        </g>
    </g>
</svg>