<?xml version="1.0" encoding="UTF-8" standalone="no"?>
<svg width="43px" height="43px" viewBox="0 0 43 43" version="1.1" xmlns="http://www.w3.org/2000/svg" xmlns:xlink="http://www.w3.org/1999/xlink" xmlns:sketch="http://www.bohemiancoding.com/sketch/ns">
    <!-- Generator: Sketch 3.3.3 (12081) - http://www.bohemiancoding.com/sketch -->
    <title>googleplus_F</title>
    <desc>Created with Sketch.</desc>
    <defs></defs>
    <g id="Page-1" stroke="none" stroke-width="1" fill="none" fill-rule="evenodd" sketch:type="MSPage">
        <g id="row-4-full-icons" sketch:type="MSLayerGroup" transform="translate(-257.000000, 0.000000)" fill="#D0011B">
            <path d="M278.571429,42.8571429 C290.406102,42.8571429 300,33.2632452 300,21.4285714 C300,9.59389763 290.406102,0 278.571429,0 C266.736755,0 257.142857,9.59389763 257.142857,21.4285714 C257.142857,33.2632452 266.736755,42.8571429 278.571429,42.8571429 Z M275.965714,10.56 C276.17143,10.7200008 276.411427,10.9314273 276.685714,11.1942857 C276.960001,11.4571442 277.222856,11.777141 277.474286,12.1542857 C277.725716,12.5314305 277.942856,12.9714261 278.125714,13.4742857 C278.308572,13.9771454 278.4,14.5485682 278.4,15.1885714 C278.4,15.8285746 278.320001,16.388569 278.16,16.8685714 C277.999999,17.3485738 277.782859,17.777141 277.508571,18.1542857 C277.234284,18.5314305 276.925716,18.8742842 276.582857,19.1828571 C276.239998,19.4914301 275.885716,19.7828558 275.52,20.0571429 C275.291427,20.2857154 275.074287,20.525713 274.868571,20.7771429 C274.662856,21.0285727 274.56,21.3485695 274.56,21.7371429 C274.56,22.1257162 274.662856,22.4285703 274.868571,22.6457143 C275.074287,22.8628582 275.268571,23.0514278 275.451429,23.2114286 L276.685714,24.1714286 C277.05143,24.4914302 277.411427,24.811427 277.765714,25.1314286 C278.120002,25.4514302 278.42857,25.7942839 278.691429,26.16 C278.954287,26.5257161 279.165713,26.9371406 279.325714,27.3942857 C279.485715,27.8514309 279.565714,28.3771399 279.565714,28.9714286 C279.565714,29.7714326 279.371431,30.5599961 278.982857,31.3371429 C278.594284,32.1142896 278.022861,32.8057113 277.268571,33.4114286 C276.514282,34.0171459 275.571434,34.5085695 274.44,34.8857143 C273.308566,35.262859 272.011436,35.4514286 270.548571,35.4514286 C269.31428,35.4514286 268.23429,35.3142871 267.308571,35.04 C266.382853,34.7657129 265.611432,34.4000023 264.994286,33.9428571 C264.37714,33.485712 263.920001,32.9657172 263.622857,32.3828571 C263.325713,31.7999971 263.177143,31.1885746 263.177143,30.5485714 C263.177143,29.9314255 263.365712,29.2285754 263.742857,28.44 C264.120002,27.6514246 264.811424,26.960003 265.817143,26.3657143 C266.34286,26.0457127 266.908568,25.7885724 267.514286,25.5942857 C268.120003,25.399999 268.719997,25.2457149 269.314286,25.1314286 C269.908574,25.0171423 270.468569,24.9371431 270.994286,24.8914286 C271.520003,24.8457141 271.977141,24.8114287 272.365714,24.7885714 C272.114284,24.4685698 271.880001,24.1314303 271.662857,23.7771429 C271.445713,23.4228554 271.337143,22.9828598 271.337143,22.4571429 C271.337143,22.1599985 271.371428,21.9142867 271.44,21.72 C271.508572,21.5257133 271.588571,21.3257153 271.68,21.12 C271.497142,21.1428573 271.314287,21.1599999 271.131429,21.1714286 C270.948571,21.1828572 270.765715,21.1885714 270.582857,21.1885714 C269.668567,21.1885714 268.857146,21.0342873 268.148571,20.7257143 C267.439996,20.4171413 266.845717,20.0114311 266.365714,19.5085714 C265.885712,19.0057118 265.520001,18.4285747 265.268571,17.7771429 C265.017142,17.125711 264.891429,16.4685747 264.891429,15.8057143 C264.891429,15.0057103 265.074284,14.2000041 265.44,13.3885714 C265.805716,12.5771388 266.354282,11.8514318 267.085714,11.2114286 C268.068576,10.4114246 269.102852,9.897144 270.188571,9.66857143 C271.274291,9.43999886 272.28571,9.32571429 273.222857,9.32571429 L280.285714,9.32571429 L278.091429,10.56 L275.965714,10.56 Z M272.194286,20.2285714 C272.628574,20.2285714 273.057141,20.1371438 273.48,19.9542857 C273.902859,19.7714277 274.251427,19.5428585 274.525714,19.2685714 C274.914288,18.8799981 275.154285,18.4457167 275.245714,17.9657143 C275.337143,17.4857119 275.382857,17.0857159 275.382857,16.7657143 C275.382857,16.1485683 275.291429,15.4742894 275.108571,14.7428571 C274.925713,14.0114249 274.65143,13.3257175 274.285714,12.6857143 C273.919998,12.0457111 273.468574,11.5142878 272.931429,11.0914286 C272.394283,10.6685693 271.771432,10.4571429 271.062857,10.4571429 C270.605712,10.4571429 270.160002,10.559999 269.725714,10.7657143 C269.291426,10.9714296 268.937144,11.2457126 268.662857,11.5885714 C268.365713,11.9542875 268.165715,12.3542835 268.062857,12.7885714 C267.959999,13.2228593 267.908571,13.6685691 267.908571,14.1257143 C267.908571,14.6971457 267.994285,15.3371393 268.165714,16.0457143 C268.337144,16.7542893 268.599998,17.4171398 268.954286,18.0342857 C269.308573,18.6514317 269.754283,19.1714265 270.291429,19.5942857 C270.828574,20.017145 271.462853,20.2285714 272.194286,20.2285714 Z M277.268571,30.3085714 C277.268571,29.8742835 277.194286,29.4800018 277.045714,29.1257143 C276.897142,28.7714268 276.674287,28.4228589 276.377143,28.08 C276.079999,27.7371411 275.691431,27.382859 275.211429,27.0171429 C274.731426,26.6514267 274.171432,26.2400023 273.531429,25.7828571 C273.394285,25.7599999 273.274286,25.7485714 273.171429,25.7485714 L272.742857,25.7485714 C272.674285,25.7485714 272.514287,25.7542857 272.262857,25.7657143 C272.011427,25.7771429 271.714287,25.7999998 271.371429,25.8342857 C271.02857,25.8685716 270.662859,25.9257139 270.274286,26.0057143 C269.885712,26.0857147 269.508573,26.1828566 269.142857,26.2971429 C268.959999,26.3657146 268.702859,26.474285 268.371429,26.6228571 C268.039998,26.7714293 267.714287,26.9828558 267.394286,27.2571429 C267.074284,27.5314299 266.794287,27.8742837 266.554286,28.2857143 C266.314285,28.6971449 266.194286,29.2114255 266.194286,29.8285714 C266.194286,31.0628633 266.737137,32.0685675 267.822857,32.8457143 C268.908577,33.622861 270.377134,34.0114286 272.228571,34.0114286 C273.874294,34.0114286 275.12571,33.6628606 275.982857,32.9657143 C276.840004,32.2685679 277.268571,31.3828625 277.268571,30.3085714 Z M296.502857,15.8742857 L290.022857,15.8742857 L290.022857,22.3885714 L287.965714,22.3885714 L287.965714,15.8742857 L281.451429,15.8742857 L281.451429,13.8171429 L287.965714,13.8171429 L287.965714,7.40571429 L290.022857,7.40571429 L290.022857,13.8171429 L296.502857,13.8171429 L296.502857,15.8742857 Z" id="googleplus_F" sketch:type="MSShapeGroup"></path>
        </g>
    </g>
</svg>