<?xml version="1.0" encoding="UTF-8" standalone="no"?>
<svg width="44px" height="43px" viewBox="0 0 44 43" version="1.1" xmlns="http://www.w3.org/2000/svg" xmlns:xlink="http://www.w3.org/1999/xlink" xmlns:sketch="http://www.bohemiancoding.com/sketch/ns">
    <!-- Generator: Sketch 3.3.3 (12081) - http://www.bohemiancoding.com/sketch -->
    <title>twitter_F</title>
    <desc>Created with Sketch.</desc>
    <defs></defs>
    <g id="Page-1" stroke="none" stroke-width="1" fill="none" fill-rule="evenodd" sketch:type="MSPage">
        <g id="row-4-full-icons" sketch:type="MSLayerGroup" transform="translate(-85.000000, 0.000000)" fill="#50A0FC">
            <path d="M107.142857,42.8571429 C118.977531,42.8571429 128.571429,33.2632452 128.571429,21.4285714 C128.571429,9.59389763 118.977531,0 107.142857,0 C95.3081833,0 85.7142857,9.59389763 85.7142857,21.4285714 C85.7142857,33.2632452 95.3081833,42.8571429 107.142857,42.8571429 Z M100.843819,15.9402056 C104.963818,18.0202052 108.445693,17.9002052 108.445693,17.9002052 C108.445693,17.9002052 107.125693,13.3002057 111.205692,11.2602065 C115.285692,9.22020683 118.093317,12.6595802 118.093317,12.6595802 C118.093317,12.6595802 118.804887,12.4642474 119.335076,12.2689146 C119.865265,12.0735818 120.632643,11.7247733 120.632643,11.7247733 L119.375408,13.9688665 L121.31136,13.7636553 C121.31136,13.7636553 121.072748,14.1125333 120.297949,14.8231304 C119.523149,15.5337275 119.203816,15.9008306 119.203816,15.9008306 C119.203816,15.9008306 119.480595,21.4378445 116.563816,25.7008288 C113.647037,29.9638129 109.878388,32.5223452 104.403819,33.0608274 C98.9292492,33.5993097 95.3638202,31.3808277 95.3638202,31.3808277 C95.3638202,31.3808277 97.7581199,31.2441838 99.2838195,30.6608279 C100.809519,30.0774721 103.003819,28.5408283 103.003819,28.5408283 C103.003819,28.5408283 99.8838193,27.5808285 98.7638196,26.5008286 C97.6438198,25.4208288 97.3638198,24.7808289 97.3638198,24.7808289 L100.443819,24.740829 C100.443819,24.740829 97.2038199,23.0208293 96.28382,21.6608295 C95.3638201,20.3008298 95.2438202,18.98083 95.2438202,18.98083 L97.6117517,19.9370445 C97.6117517,19.9370445 95.6438203,17.2608303 95.3638202,15.1808307 C95.0838202,13.1008311 95.7238201,11.9808313 95.7238201,11.9808313 C95.7238201,11.9808313 96.72382,13.860206 100.843819,15.9402056 Z" id="twitter_F" sketch:type="MSShapeGroup"></path>
        </g>
    </g>
</svg>