<?xml version="1.0" encoding="utf-8"?>
<!-- Generator: Adobe Illustrator 16.0.0, SVG Export Plug-In . SVG Version: 6.00 Build 0)  -->
<!DOCTYPE svg PUBLIC "-//W3C//DTD SVG 1.1//EN" "http://www.w3.org/Graphics/SVG/1.1/DTD/svg11.dtd">
<svg version="1.1" id="Capa_1" xmlns="http://www.w3.org/2000/svg" xmlns:xlink="http://www.w3.org/1999/xlink" x="0px" y="0px"
	 width="1284px" height="741px" viewBox="0 0 1284 741" enable-background="new 0 0 1284 741" xml:space="preserve">
<g>
	<defs>
		<rect id="SVGID_1_" x="0" width="1284" height="741"/>
	</defs>
	<clipPath id="SVGID_2_">
		<use xlink:href="#SVGID_1_"  overflow="visible"/>
	</clipPath>
	<g clip-path="url(#SVGID_2_)">
		<rect x="0" fill-rule="evenodd" clip-rule="evenodd" fill="#3E88EE" width="1284" height="741"/>
		<g>
			<path fill-rule="evenodd" clip-rule="evenodd" fill="#3E88EE" d="M967.389,507.195c0,77.333,0,154.667,0,232
				c-1.988,0.129-3.977,0.371-5.963,0.371c-317.959,0.018-635.917,0.016-953.874,0.014c-7.531,0-7.548-0.02-7.549-7.766
				C0,659.658-0.006,587.501,0.013,515.344c0.002-8.331,0.098-16.663,0.271-24.991c0.043-2.031-0.552-4.775,2.395-5.333
				c3.186-0.603,3.295-2.711,3.355-5.175c0.064-2.659,0.248-5.32,0.513-7.968c0.265-2.65,1.542-3.947,4.507-4.147
				c5.479-0.371,10.939-1.106,16.441-0.892c3.826,0.149,5.313-1.619,5.531-5.346c0.799-13.604,0.869-13.563,14.424-13.654
				c2.926-0.02,6.596,1.112,8.498-1.638c4.421-6.39,10.344-5.251,16.533-4.418c2.86,0.385,4.226,1.495,4.2,4.381
				c-0.028,3.332,0.032,6.665,0.071,9.997c0.025,2.08,0.789,3.551,3.117,3.74c2.215,0.178,4.033-0.388,4.712-2.727
				c0.556-1.912,1.007-3.867,1.344-5.83c0.362-2.111,1.44-3.479,3.615-3.343c4.043,0.253,8.314-1.438,12.056,1.21
				c0.445,0.316,0.334,1.551,0.32,2.357c-0.104,6.664-0.313,13.326-0.346,19.988c-0.014,2.674-1.984,7.018,2.9,6.813
				c4.234-0.177,2.527-4.474,2.43-6.884c-0.893-21.808-0.84-43.623-0.954-65.439c-0.02-3.795,1.074-5.621,5.093-6.367
				c18.315-3.401,36.527-7.374,54.863-10.657c12.861-2.304,25.938-0.749,38.914-0.886c4.832-0.052,6.368-1.691,6.282-6.453
				c-0.247-13.66,0.124-27.333-0.188-40.99c-0.118-5.174,2.15-6.389,6.704-6.895c16.755-1.863,33.538-1.801,50.3-0.811
				c9.648,0.57,19.295,0.729,28.943,1.072c3.838,0.137,6.079,1.339,5.977,5.912c-0.363,16.148,0.234,32.294,0.668,48.441
				c0.348,12.989,0.271,25.993,0.219,38.99c-0.015,3.773,1.311,5.615,5.24,5.436c2.49-0.113,4.994,0.109,7.492,0.169
				c4.227,0.102,6.409,1.928,6.139,6.485c-0.246,4.15-0.047,8.328-0.013,12.494c0.013,1.495-0.039,3.045,1.327,4.111
				c3.052,2.382,12.32,0.388,14.082-3.169c2.955-5.97,5.846-11.976,8.569-18.053c1.354-3.021,3.367-4.337,6.642-3.939
				c6.787,0.823,13.619,1.2,20.438,0.861c4.859-0.241,7.918,1.468,9.387,6.21c2.796,9.029,7.926,15.953,17.453,18.822
				c2.674,0.806,3.904,2.89,4.232,5.623c0.258,2.145,0.76,4.26,1.027,6.404c0.277,2.218,1.099,3.754,3.592,4.039
				c2.795,0.32,2.619-1.691,3.131-3.453c1.268-4.367,5.191-6.147,8.857-7.304c2.854-0.9,5.218,2.323,5.961,4.427
				c2.523,7.137,9.031,6.41,14.301,8.111c2.035,0.658,3.615,0.065,3.541-2.621c-0.211-7.654-0.28-15.314-0.531-22.967
				c-0.448-13.64-1.004-27.275-1.475-40.914c-0.074-2.148,0.398-4.233,3.118-4.168c4.59,0.109,5.095-2.65,4.826-6.23
				c-0.161-2.157,0.286-4.432-0.237-6.475c-1.131-4.416,1.291-5.63,4.828-6.198c11-1.769,21.937-3.841,33.201-3.311
				c8.227,0.387,8.38,0.099,8.654,8.399c0.51,15.476,0.772,30.959,1.307,46.434c0.541,15.632,1.279,31.257,1.959,46.884
				c0.039,0.901-0.173,2.129,2.24,2.108c0-5.887-0.013-11.79,0.008-17.693c0.008-2.315-0.23-4.666,1.266-6.738
				c3.314-4.59,6.572-9.219,9.856-13.831c1.116-1.567,2.492-2.81,4.558-2.499c4.58,0.686,6.752-1.727,7.862-5.758
				c0.352-1.276,0.92-2.504,1.487-3.706c0.619-1.312,0.766-3.313,2.432-3.489c1.844-0.194,2.058,1.891,2.646,3.133
				c2.281,4.805,4.392,9.641,5.273,14.996c1.331,8.078,2.021,8.25,10.241,8.849c4.654,0.339,7.094-1.429,7.194-5.883
				c0.126-5.577,2.812-8.077,8.242-8.31c5.043-0.216,7.504-2.822,7.024-8.089c-0.177-1.937-0.17-4.783,2.034-5.155
				c4.876-0.824,9.807-1.931,14.827-1.33c1.587,0.189,2.005,1.672,2.421,2.898c0.641,1.887,1.122,3.833,1.594,5.773
				c0.67,2.76,2.129,4.223,5.213,4.273c7.65,0.129,15.297,0.516,22.944,0.809c2.663,0.102,5.329,0.176,7.985,0.373
				c3.06,0.229,4.769,1.543,4.704,5.035c-0.069,3.809,0.578,7.625,0.708,11.445c0.783,23.125,1.5,46.252,2.264,69.378
				c0.055,1.658,0.318,3.309,0.426,4.966c0.225,3.45,1.91,4.828,5.48,4.871c8.318,0.101,16.627,0.7,24.945,0.872
				c3.443,0.071,4.996,1.14,5.303,4.863c0.354,4.313,0.826,8.613,0.814,12.946c-0.008,2.652,0.762,3.822,3.861,3.552
				c9.859-0.855,9.871-0.713,11.492-10.524c0.883-5.349,2.244-6.061,9.621-6.787c4.674-0.461,5.061,2.671,5.844,5.734
				c2.385,9.325,2.375,9.327,12.084,10.26c0.498,0.047,0.998,0.07,1.494,0.139c11.746,1.588,11.752,1.59,12.936-10.366
				c0.223-2.246,0.498-4.414,3.391-4.711c3.475-0.355,6.963-0.604,10.422-1.074c3.648-0.496,5.121,1.367,5.676,4.628
				c0.613,3.605,1.469,7.173,2.033,10.785c0.412,2.646,1.9,3.549,4.414,3.764c7.1,0.602,8.088-0.256,7.969-7.507
				c-0.021-1.331,0.066-2.706-0.234-3.981c-0.885-3.747,0.104-5.897,4.332-5.674c2.648,0.141,3.691-1.358,4.461-3.74
				c0.834-2.579-0.912-6.371,2.346-7.623c2.506-0.963,5.568-0.494,8.385-0.618c1.33-0.06,2.674-0.117,3.998-0.002
				c3.525,0.306,5.236-1.424,5.729-4.766c0.291-1.969,0.365-4.731,2.119-5.365c5.252-1.898,3.998-5.968,3.65-9.573
				c-1.24-12.806-0.541-25.636-0.768-38.452c-0.049-2.707,1.055-4.14,3.828-3.873c3.107,0.298,4.893-1.416,6.496-3.755
				c4.145-6.045,8.484-11.958,12.563-18.046c2.229-3.326,3.971-3.426,6.234-0.053c3.992,5.945,8.199,11.746,12.273,17.637
				c1.41,2.036,2.881,3.421,5.742,2.922c7.326-1.278,7.502-1.195,8.654,6.383c0.682,4.483,2.793,6.557,7.404,7.028
				c5.941,0.607,11.803,1.991,17.713,2.943c3.045,0.489,4.742,1.88,4.869,5.202c0.129,3.313,0.58,6.629,1.111,9.907
				c0.396,2.437,0.734,5.21,3.949,5.646c5.928,0.806,11.873,1.478,17.816,2.176c2.578,0.304,4.773-0.354,5.453-3.151
				c1.324-5.431,4.572-6.627,9.686-5.171c3.809,1.086,5.934-0.556,6.215-4.777c0.543-8.132,0.662-7.95,8.797-7.986
				c3.742-0.016,5.621,1.307,5.893,5.02c0.096,1.32,0.588,2.622,0.607,3.937c0.064,4.574,2.217,5.945,6.816,6.394
				C955.877,505.66,961.852,504.891,967.389,507.195z"/>
		</g>
		<g opacity="0.1">
			<path fill-rule="evenodd" clip-rule="evenodd" d="M967.389,507.195c0,77.333,0,154.667,0,232
				c-1.988,0.129-3.977,0.371-5.963,0.371c-317.959,0.018-635.917,0.016-953.874,0.014c-7.531,0-7.548-0.02-7.549-7.766
				C0,659.658-0.006,587.501,0.013,515.344c0.002-8.331,0.098-16.663,0.271-24.991c0.043-2.031-0.552-4.775,2.395-5.333
				c3.186-0.603,3.295-2.711,3.355-5.175c0.064-2.659,0.248-5.32,0.513-7.968c0.265-2.65,1.542-3.947,4.507-4.147
				c5.479-0.371,10.939-1.106,16.441-0.892c3.826,0.149,5.313-1.619,5.531-5.346c0.799-13.604,0.869-13.563,14.424-13.654
				c2.926-0.02,6.596,1.112,8.498-1.638c4.421-6.39,10.344-5.251,16.533-4.418c2.86,0.385,4.226,1.495,4.2,4.381
				c-0.028,3.332,0.032,6.665,0.071,9.997c0.025,2.08,0.789,3.551,3.117,3.74c2.215,0.178,4.033-0.388,4.712-2.727
				c0.556-1.912,1.007-3.867,1.344-5.83c0.362-2.111,1.44-3.479,3.615-3.343c4.043,0.253,8.314-1.438,12.056,1.21
				c0.445,0.316,0.334,1.551,0.32,2.357c-0.104,6.664-0.313,13.326-0.346,19.988c-0.014,2.674-1.984,7.018,2.9,6.813
				c4.234-0.177,2.527-4.474,2.43-6.884c-0.893-21.808-0.84-43.623-0.954-65.439c-0.02-3.795,1.074-5.621,5.093-6.367
				c18.315-3.401,36.527-7.374,54.863-10.657c12.861-2.304,25.938-0.749,38.914-0.886c4.832-0.052,6.368-1.691,6.282-6.453
				c-0.247-13.66,0.124-27.333-0.188-40.99c-0.118-5.174,2.15-6.389,6.704-6.895c16.755-1.863,33.538-1.801,50.3-0.811
				c9.648,0.57,19.295,0.729,28.943,1.072c3.838,0.137,6.079,1.339,5.977,5.912c-0.363,16.148,0.234,32.294,0.668,48.441
				c0.348,12.989,0.271,25.993,0.219,38.99c-0.015,3.773,1.311,5.615,5.24,5.436c2.49-0.113,4.994,0.109,7.492,0.169
				c4.227,0.102,6.409,1.928,6.139,6.485c-0.246,4.15-0.047,8.328-0.013,12.494c0.013,1.495-0.039,3.045,1.327,4.111
				c3.052,2.382,12.32,0.388,14.082-3.169c2.955-5.97,5.846-11.976,8.569-18.053c1.354-3.021,3.367-4.337,6.642-3.939
				c6.787,0.823,13.619,1.2,20.438,0.861c4.859-0.241,7.918,1.468,9.387,6.21c2.796,9.029,7.926,15.953,17.453,18.822
				c2.674,0.806,3.904,2.89,4.232,5.623c0.258,2.145,0.76,4.26,1.027,6.404c0.277,2.218,1.099,3.754,3.592,4.039
				c2.795,0.32,2.619-1.691,3.131-3.453c1.268-4.367,5.191-6.147,8.857-7.304c2.854-0.9,5.218,2.323,5.961,4.427
				c2.523,7.137,9.031,6.41,14.301,8.111c2.035,0.658,3.615,0.065,3.541-2.621c-0.211-7.654-0.28-15.314-0.531-22.967
				c-0.448-13.64-1.004-27.275-1.475-40.914c-0.074-2.148,0.398-4.233,3.118-4.168c4.59,0.109,5.095-2.65,4.826-6.23
				c-0.161-2.157,0.286-4.432-0.237-6.475c-1.131-4.416,1.291-5.63,4.828-6.198c11-1.769,21.937-3.841,33.201-3.311
				c8.227,0.387,8.38,0.099,8.654,8.399c0.51,15.476,0.772,30.959,1.307,46.434c0.541,15.632,1.279,31.257,1.959,46.884
				c0.039,0.901-0.173,2.129,2.24,2.108c0-5.887-0.013-11.79,0.008-17.693c0.008-2.315-0.23-4.666,1.266-6.738
				c3.314-4.59,6.572-9.219,9.856-13.831c1.116-1.567,2.492-2.81,4.558-2.499c4.58,0.686,6.752-1.727,7.862-5.758
				c0.352-1.276,0.92-2.504,1.487-3.706c0.619-1.312,0.766-3.313,2.432-3.489c1.844-0.194,2.058,1.891,2.646,3.133
				c2.281,4.805,4.392,9.641,5.273,14.996c1.331,8.078,2.021,8.25,10.241,8.849c4.654,0.339,7.094-1.429,7.194-5.883
				c0.126-5.577,2.812-8.077,8.242-8.31c5.043-0.216,7.504-2.822,7.024-8.089c-0.177-1.937-0.17-4.783,2.034-5.155
				c4.876-0.824,9.807-1.931,14.827-1.33c1.587,0.189,2.005,1.672,2.421,2.898c0.641,1.887,1.122,3.833,1.594,5.773
				c0.67,2.76,2.129,4.223,5.213,4.273c7.65,0.129,15.297,0.516,22.944,0.809c2.663,0.102,5.329,0.176,7.985,0.373
				c3.06,0.229,4.769,1.543,4.704,5.035c-0.069,3.809,0.578,7.625,0.708,11.445c0.783,23.125,1.5,46.252,2.264,69.378
				c0.055,1.658,0.318,3.309,0.426,4.966c0.225,3.45,1.91,4.828,5.48,4.871c8.318,0.101,16.627,0.7,24.945,0.872
				c3.443,0.071,4.996,1.14,5.303,4.863c0.354,4.313,0.826,8.613,0.814,12.946c-0.008,2.652,0.762,3.822,3.861,3.552
				c9.859-0.855,9.871-0.713,11.492-10.524c0.883-5.349,2.244-6.061,9.621-6.787c4.674-0.461,5.061,2.671,5.844,5.734
				c2.385,9.325,2.375,9.327,12.084,10.26c0.498,0.047,0.998,0.07,1.494,0.139c11.746,1.588,11.752,1.59,12.936-10.366
				c0.223-2.246,0.498-4.414,3.391-4.711c3.475-0.355,6.963-0.604,10.422-1.074c3.648-0.496,5.121,1.367,5.676,4.628
				c0.613,3.605,1.469,7.173,2.033,10.785c0.412,2.646,1.9,3.549,4.414,3.764c7.1,0.602,8.088-0.256,7.969-7.507
				c-0.021-1.331,0.066-2.706-0.234-3.981c-0.885-3.747,0.104-5.897,4.332-5.674c2.648,0.141,3.691-1.358,4.461-3.74
				c0.834-2.579-0.912-6.371,2.346-7.623c2.506-0.963,5.568-0.494,8.385-0.618c1.33-0.06,2.674-0.117,3.998-0.002
				c3.525,0.306,5.236-1.424,5.729-4.766c0.291-1.969,0.365-4.731,2.119-5.365c5.252-1.898,3.998-5.968,3.65-9.573
				c-1.24-12.806-0.541-25.636-0.768-38.452c-0.049-2.707,1.055-4.14,3.828-3.873c3.107,0.298,4.893-1.416,6.496-3.755
				c4.145-6.045,8.484-11.958,12.563-18.046c2.229-3.326,3.971-3.426,6.234-0.053c3.992,5.945,8.199,11.746,12.273,17.637
				c1.41,2.036,2.881,3.421,5.742,2.922c7.326-1.278,7.502-1.195,8.654,6.383c0.682,4.483,2.793,6.557,7.404,7.028
				c5.941,0.607,11.803,1.991,17.713,2.943c3.045,0.489,4.742,1.88,4.869,5.202c0.129,3.313,0.58,6.629,1.111,9.907
				c0.396,2.437,0.734,5.21,3.949,5.646c5.928,0.806,11.873,1.478,17.816,2.176c2.578,0.304,4.773-0.354,5.453-3.151
				c1.324-5.431,4.572-6.627,9.686-5.171c3.809,1.086,5.934-0.556,6.215-4.777c0.543-8.132,0.662-7.95,8.797-7.986
				c3.742-0.016,5.621,1.307,5.893,5.02c0.096,1.32,0.588,2.622,0.607,3.937c0.064,4.574,2.217,5.945,6.816,6.394
				C955.877,505.66,961.852,504.891,967.389,507.195z"/>
		</g>
		<g>
			<path fill-rule="evenodd" clip-rule="evenodd" fill="#3E88EE" d="M536.478,547.337c1.696-0.057,2.945-0.197,2.705-2.367
				c-0.16-1.442,1.02-1.51,2.011-1.713c1.171-0.24,2.789,0.351,3.021-1.67c0.02-0.16,0.68-0.388,1.015-0.349
				c2.394,0.282,2.345-1.234,2.343-2.926c-0.025-22.656-0.029-45.312,0.014-67.967c0.002-1.437-0.704-3.167,1.073-4.227
				c0.138-0.082,0.163-0.636,0.034-0.839c-2.618-4.104-1.091-8.695-1.521-13.05c-0.14-1.413,1.197-1.364,2.15-1.606
				c8.84-2.251,17.68-1.633,26.6-0.352c10.93,1.568,21.91,2.792,32.884,4.032c2.288,0.259,3.333,0.955,3.128,3.433
				c-0.217,2.629-0.028,5.29-0.061,7.937c-0.011,0.966,0.241,2.006-0.92,2.671c-0.606,0.348-0.674,1.339-0.041,1.556
				c1.924,0.657,1.424,2.18,1.426,3.478c0.021,18.763,0.027,37.525-0.005,56.289c-0.003,1.695,0.13,3.024,2.335,2.61
				c0.287-0.054,0.757-0.193,0.796-0.37c0.635-2.893,3.034-1.987,4.853-2.261c0.841-0.127,1.713-0.02,2.565-0.092
				c1.632-0.14,2.764,0.172,2.581,2.21c-0.135,1.504,0.998,1.487,2.058,1.49c4.827,0.014,9.656-0.024,14.48,0.079
				c3.988,0.085,3.986,0.161,3.988,4.103c0.002,3.97,0.059,7.941-0.025,11.91c-0.033,1.643,0.584,2.15,2.186,2.168
				c1.936,0.02,4.018-0.689,5.607,1.57c0.4,0.57,2.969,1.557,4.355-0.621c0.734-1.152,2.475-0.504,3.746-0.484
				c1.537,0.023,3.58-0.814,4.018,1.835c0.07,0.428,5.033,0.96,5.385,0.625c0.146-0.14,0.277-0.423,0.242-0.606
				c-0.539-2.762,1.406-2.348,3.002-2.355c2.023-0.012,4.049,0.024,6.072-0.003c1.221-0.017,1.783,0.378,1.287,1.668
				c-0.217,0.565-0.584,1.288,0.361,1.501c0.723,0.163,1.564,0.346,2.076-0.535c0.381-0.652-0.26-2.035,1.09-1.937
				c1.295,0.096,0.35,1.686,1.287,2.363c0.674-0.655,0.992-1.788,2.242-1.83c0.607-0.021,0.633-0.789,0.641-1.343
				c0.012-0.7,0.014-1.401,0.014-2.102c0-25.926,0.029-51.852-0.051-77.776c-0.006-2.372,0.559-3.514,3.064-3.833
				c3.229-0.413,6.375-1.441,9.691-1.213c1.023,0.07,1.961-0.041,1.625-1.497c-0.033-0.142-0.018-0.414,0.047-0.438
				c2.707-1.016,1.822-3.383,2.004-5.334c0.066-0.723,0.424-1.19,1.088-1.34c2.332-0.524,4.584-1.435,7.092-0.956
				c3.436,0.656,6.898,1.193,10.367,1.656c1.715,0.229,2.373,0.951,2.344,2.725c-0.057,3.317,0.039,3.313,3.256,3.326
				c6.318,0.025,12.541,1.199,18.828,1.563c2.078,0.121,2.195,1.391,2.191,3.033c-0.031,20.165-0.02,40.329-0.02,60.492
				c0,0.701,0.025,1.402,0.01,2.103c-0.025,1.118,0.574,1.475,1.611,1.486c1.1,0.013,1.939-0.275,1.76-1.542
				c-0.361-2.583,1.201-2.998,3.201-3.01c0.389-0.002,0.777-0.032,1.166-0.053c3.445-0.177,6.871,0.14,10.326-0.885
				c2.336-0.693,4.16,1.117,5.121,3.305c0.369,0.838,0.764,1.242,1.658,1.31c2.326,0.174,4.654,0.362,6.971,0.631
				c1.203,0.141,1.543-0.397,1.49-1.451c-0.018-0.311,0-0.623,0.004-0.935c0.211-20.938,0.412-41.877,0.641-62.815
				c0.035-3.268,0.189-6.533,0.283-9.799c0.025-0.868-0.018-1.768,1.115-2.02c1.15-0.256,1.176,0.716,1.506,1.37
				c0.609,1.207,1.271,1.03,1.805-0.024c0.916-1.813,1.588-2.481,3.844-1.05c1.801,1.143,4.549,0.471,6.859,0.186
				c0.879-0.108,0.738-1.068,0.746-1.751c0.02-1.79,0.072-3.584-0.006-5.371c-0.061-1.451,0.498-2.175,1.969-2.232
				c1.398-0.055,2.799-0.13,4.189-0.286c1.621-0.182,1.947-1.046,0.99-2.363c-0.609-0.835-2.139-1.391-1.574-2.6
				c0.781-1.668,1.908-3.209,3.084-4.643c0.539-0.658,1.201,0.122,1.434,0.64c1.473,3.303,4.363,3.685,7.486,3.989
				c4.641,0.452,9.262,1.143,13.875,1.833c1.344,0.201,2.252-0.095,2.91-1.281c0.951-1.712,1.908-1.418,2.961-0.03
				c1.129,1.489,3.1,2.721,0.914,4.869c-0.545,0.535-0.074,0.973,0.609,1.062c1.156,0.15,2.309,0.39,3.471,0.437
				c2.061,0.081,2.961,0.847,2.912,3.128c-0.238,11.439,0.053,22.887-0.502,34.321c-0.082,1.715-0.166,3.282,2.203,3.51
				c1.145,0.109,1.055,1.189,1.031,2.039c-0.1,3.656-0.227,7.311-0.344,10.966c-0.029,0.911-0.34,2.12,1.074,2.106
				c1.408-0.015,0.785-1.29,0.811-2c0.084-2.488,0.027-4.981,0.049-7.472c0.008-0.776-0.018-1.763,1.119-1.632
				c1.963,0.227,1.664-1.074,1.664-2.221c0.002-11.523-0.002-23.045,0.004-34.567c0.002-3.074,0.014-3.075,3.1-3.09
				c1.09-0.005,2.182,0.009,3.27-0.011c1.662-0.029,1.891-0.762,1.012-2.065c-0.625-0.926-2.283-1.476-1.793-2.746
				c0.512-1.324,1.672-2.402,2.57-3.571c0.531-0.691,1.295-0.847,1.732-0.078c1.85,3.249,5.063,3.163,8.135,3.509
				c3.709,0.418,7.418,0.839,11.111,1.37c1.314,0.189,2.271-0.066,3.004-1.183c0.906-1.378,1.689-0.937,2.492,0.161
				c1.117,1.527,2.861,2.888,0.818,4.964c-0.51,0.519-0.248,0.995,0.502,1.117c0.691,0.112,1.377,0.272,2.07,0.362
				c3.879,0.505,3.881,0.5,3.881,4.5c0,9.81,0.037,19.619-0.035,29.429c-0.012,1.726,0.381,2.856,2.191,3.213
				c0.371,0.073,0.783,0.233,1.051,0.487c2.07,1.955,4.033,2.704,6.141-0.038c0.689-0.898,1.566-0.101,2.238,0.415
				c1.609,1.238,2.119,0.637,2.154-1.16c0.041-2.176,0.26-4.348,0.326-6.524c0.039-1.294,0.588-2.065,1.879-2.227
				c1.732-0.216,1.979-1.323,1.969-2.831c-0.051-7.239-0.014-14.48-0.029-21.721c-0.004-1.405-0.045-2.721,1.973-2.599
				c1.018,0.062,1.305-0.646,1.297-1.541c-0.01-0.856,0.197-1.768-0.027-2.56c-0.92-3.24,1.717-5.327,2.504-8.005
				c0.232-0.786,1.293-0.709,2.039-0.893c4.969-1.229,9.701,0.7,14.549,1.089c0.695,0.056,1.404,0.137,2.07,0.334
				c3.313,0.979,6.021,0.829,7.297-3.134c0.521-1.622,2.285-1.377,3.637-1.527c4.328-0.481,8.656-0.991,12.998-1.32
				c1.766-0.134,2.156-0.902,2.176-2.509c0.066-5.913,0.252-11.825,0.41-17.738c0.025-0.973-0.188-2.028,1.18-2.46
				c0.934-0.295,0.707-1.281,0.766-2.027c0.346-4.498,0.73-8.995,0.984-13.499c0.121-2.149,0.793-3.397,3.205-3.642
				c2.854-0.289,5.666-0.989,8.492-1.529c0.855-0.163,1.689-0.188,2.541,0.033c4.518,1.177,9.031,2.373,13.564,3.483
				c1.395,0.341,1.871,1.083,1.854,2.473c-0.057,4.203-0.004,8.408-0.025,12.612c-0.008,1.159,0.027,2.179,1.5,2.443
				c1.514,0.272,1.299,1.518,1.309,2.589c0.127,12.842,0.275,25.685,0.359,38.527c0.072,11.133,0.07,22.266,0.107,33.398
				c0.004,1.287-0.303,2.657,1.658,3.01c0.943,0.17,0.654,1.3,0.639,2.027c-0.084,3.578-0.23,7.154-0.342,10.731
				c-0.035,1.12-0.365,2.433,1.631,1.321c1.357-0.755,3.023-0.654,4.576-0.674c1.27-0.015,1.891-0.537,1.797-1.833
				c-0.021-0.31,0.004-0.623,0.008-0.934c0.209-17.357,0.41-34.715,0.635-52.072c0.035-2.722,0.195-5.442,0.268-8.164
				c0.02-0.695-0.004-1.408-0.139-2.089c-0.537-2.755,0.078-3.799,3.023-3.883c2.445-0.069,3.625-0.794,3.236-3.371
				c-0.139-0.925,0.486-1.605,1.045-2.262c3.791-4.44,7.605-8.86,11.357-13.333c0.939-1.12,1.611-1.168,2.582-0.042
				c3.762,4.362,7.566,8.688,11.395,12.991c0.789,0.888,1.162,1.857,1,2.984c-0.33,2.283,0.686,3.102,2.875,2.93
				c0.758-0.06,1.539,0.201,2.313,0.257c1.041,0.074,1.479,0.686,1.656,1.632c0.168,0.894-0.066,1.554-0.979,1.825
				c-1.186,0.354-1.223,1.275-1.156,2.243c0.441,6.451,0.35,12.914,0.441,19.373c0.01,0.707-0.006,1.416,0.877,1.703
				c0.824,0.268,1.238-0.182,1.771-0.723c1.021-1.038,2.369-1.327,3.035,0.181c0.648,1.462,1.764,1.614,2.967,1.809
				c3.303,0.534,6.602,1.097,9.922,1.488c1.814,0.214,2.502,0.943,2.488,2.825c-0.074,10.276,0.016,20.554-0.076,30.829
				c-0.018,2.092,0.506,3.086,2.73,2.787c0.918-0.123,1.867,0.017,2.799-0.027c1.674-0.078,3.07-0.053,3.018,2.322
				c-0.029,1.312,1.563,1.809,2.41,2.555c0.672,0.59,0.879-0.688,0.906-1.341c0.137-3.42,0.014-6.848,0.402-10.263
				c0.131-1.151,0.127-2.138,1.713-2.188c1.408-0.045,0.871-1.193,0.828-1.964c-0.199-3.602-0.211-3.619,3.352-3.871
				c1.396-0.099,2.801-0.128,4.201-0.132c1.582-0.005,3.195,0.155,3.482-2.071c0.08-0.627,0.717-0.721,1.275-0.813
				c2.316-0.379,4.65-0.402,6.988-0.389c0.455,0.003,0.967,0.012,1.221,0.498c0.336,0.645,0.174,1.669,1.246,1.742
				c2.094,0.143,4.201,0.404,6.285,0.286c1.158-0.065,0.746-1.366,0.752-2.146c0.031-6.462,0.014-12.924,0.021-19.386
				c0.002-1.37,0.115-2.47,1.301-3.692c1.275-1.318,0.635-3.677,0.984-5.562c0.223-1.204,0.021-2.484,0.051-3.729
				c0.098-4.108,0.939-8.022,3.078-11.592c2.682-4.472,4.498-9.469,6.158-14.244c1.469-4.223,3.648-7.756,5.82-11.433
				c1.184-2.002,1.043-4.198,1.291-6.325c0.908-7.788,1.705-15.591,2.566-23.604c0.992,0.58,0.865,1.392,0.91,2.082
				c0.5,7.841,1.004,15.682,1.445,23.525c0.072,1.304,0.268,2.446,1.326,3.328c0.994,0.828,1.438,2.004,1.887,3.175
				c3.701,9.662,6.896,19.522,11.291,28.913c0.627,1.339,0.512,2.732,0.52,4.125c0.012,2.569-0.004,5.139,0.006,7.708
				c0.006,1.516-0.359,3.13,1.459,4.062c0.58,0.297,0.395,1.136,0.381,1.742c-0.098,4.746,0.154,9.507-0.381,14.232
				c-0.227,2.014,0.463,2.681,2.422,2.479c5.275-0.543,10.576-0.317,15.867-0.421c1.195-0.023,2.271-0.224,2.869,1.528
				c0.51,1.499,2.861,1.435,3.65,0.839c2.248-1.696,4.699-1.208,7.084-1.364c3.207-0.21,3.184-0.116,3.258-3.239
				c0.113-4.823,0.357-9.646,0.371-14.468c0.006-1.856,0.609-2.847,2.469-2.788c1.893,0.06,2.32-0.876,2.324-2.595
				c0.012-3.967-0.166-7.951,0.367-11.896c0.828-6.104,2.4-11.989,5.799-17.223c1.33-2.05,3.373-3.465,5.268-4.914
				c2.428-1.854,3.541-4.255,3.906-7.13c0.117-0.927,0.209-1.701,1.426-1.66c1.092,0.036,1.219,0.748,1.252,1.584
				c0.123,3.028,1.344,5.323,4.195,6.696c3.205,1.543,5.014,4.134,5.84,7.643c0.814,3.464,1.637,7.029,2.801,10.294
				c1.914,5.372,0.771,10.564,0.771,15.827c0,1.646,0.342,2.552,1.99,2.715c1.801,0.18,2.213,1.234,2.186,2.887
				c-0.078,4.669,0.029,9.343-0.055,14.012c-0.031,1.698,0.49,2.455,2.26,2.315c0.998-0.079,2.023,0.037,3.021,0.181
				c0.508,0.073,1.408,0.411,1.402,0.609c-0.086,3.083,4.027,4.733,2.73,8.252c-0.436,1.185,0.254,2.158,1.369,2.907
				c1.434,0.963,1.979,0.592,1.986-0.999c0.018-3.192,0.082-6.387-0.018-9.575c-0.053-1.689,0.502-2.531,2.219-2.896
				c3.727-0.792,7.41-1.795,11.123-2.657c1.244-0.289,2.215-0.667,2.15-2.22c-0.047-1.108,0.885-1.313,1.703-1.603
				c5.117-1.807,10.35-2.75,15.803-2.322c1.141,0.09,2.135,0.291,2.102,1.583c-0.07,2.643,1.709,2.923,3.646,3.099
				c0.695,0.063,1.393,0.116,2.09,0.174c0,48.119,0,216.237,0,264.356c-1.084,0.055-2.17,0.156-3.256,0.156
				c-262.246,0.008-481.813,0.008-744.058,0c-1.086,0-2.17-0.102-3.256-0.156"/>
			<path fill-rule="evenodd" clip-rule="evenodd" fill="#8FC428" d="M533.407,740.312c1.086,0.055,7.017,0.156,8.103,0.156
				c262.247,0.008,476.965,0.008,739.211,0c1.086,0,2.172-0.102,3.256-0.156c-0.102,0.143,0.236,0.486-0.234,0.473
				c-0.621-0.021-1.244-0.006-1.867-0.006c-263.016,0-483.35,0-746.366-0.029C534.826,740.75,533.925,741.289,533.407,740.312z"/>
		</g>
		<g opacity="0.2">
			<path fill-rule="evenodd" clip-rule="evenodd" d="M536.478,547.337c1.696-0.057,2.945-0.197,2.705-2.367
				c-0.16-1.442,1.02-1.51,2.011-1.713c1.171-0.24,2.789,0.351,3.021-1.67c0.02-0.16,0.68-0.388,1.015-0.349
				c2.394,0.282,2.345-1.234,2.343-2.926c-0.025-22.656-0.029-45.312,0.014-67.967c0.002-1.437-0.704-3.167,1.073-4.227
				c0.138-0.082,0.163-0.636,0.034-0.839c-2.618-4.104-1.091-8.695-1.521-13.05c-0.14-1.413,1.197-1.364,2.15-1.606
				c8.84-2.251,17.68-1.633,26.6-0.352c10.93,1.568,21.91,2.792,32.884,4.032c2.288,0.259,3.333,0.955,3.128,3.433
				c-0.217,2.629-0.028,5.29-0.061,7.937c-0.011,0.966,0.241,2.006-0.92,2.671c-0.606,0.348-0.674,1.339-0.041,1.556
				c1.924,0.657,1.424,2.18,1.426,3.478c0.021,18.763,0.027,37.525-0.005,56.289c-0.003,1.695,0.13,3.024,2.335,2.61
				c0.287-0.054,0.757-0.193,0.796-0.37c0.635-2.893,3.034-1.987,4.853-2.261c0.841-0.127,1.713-0.02,2.565-0.092
				c1.632-0.14,2.764,0.172,2.581,2.21c-0.135,1.504,0.998,1.487,2.058,1.49c4.827,0.014,9.656-0.024,14.48,0.079
				c3.988,0.085,3.986,0.161,3.988,4.103c0.002,3.97,0.059,7.941-0.025,11.91c-0.033,1.643,0.584,2.15,2.186,2.168
				c1.936,0.02,4.018-0.689,5.607,1.57c0.4,0.57,2.969,1.557,4.355-0.621c0.734-1.152,2.475-0.504,3.746-0.484
				c1.537,0.023,3.58-0.814,4.018,1.835c0.07,0.428,5.033,0.96,5.385,0.625c0.146-0.14,0.277-0.423,0.242-0.606
				c-0.539-2.762,1.406-2.348,3.002-2.355c2.023-0.012,4.049,0.024,6.072-0.003c1.221-0.017,1.783,0.378,1.287,1.668
				c-0.217,0.565-0.584,1.288,0.361,1.501c0.723,0.163,1.564,0.346,2.076-0.535c0.381-0.652-0.26-2.035,1.09-1.937
				c1.295,0.096,0.35,1.686,1.287,2.363c0.674-0.655,0.992-1.788,2.242-1.83c0.607-0.021,0.633-0.789,0.641-1.343
				c0.012-0.7,0.014-1.401,0.014-2.102c0-25.926,0.029-51.852-0.051-77.776c-0.006-2.372,0.559-3.514,3.064-3.833
				c3.229-0.413,6.375-1.441,9.691-1.213c1.023,0.07,1.961-0.041,1.625-1.497c-0.033-0.142-0.018-0.414,0.047-0.438
				c2.707-1.016,1.822-3.383,2.004-5.334c0.066-0.723,0.424-1.19,1.088-1.34c2.332-0.524,4.584-1.435,7.092-0.956
				c3.436,0.656,6.898,1.193,10.367,1.656c1.715,0.229,2.373,0.951,2.344,2.725c-0.057,3.317,0.039,3.313,3.256,3.326
				c6.318,0.025,12.541,1.199,18.828,1.563c2.078,0.121,2.195,1.391,2.191,3.033c-0.031,20.165-0.02,40.329-0.02,60.492
				c0,0.701,0.025,1.402,0.01,2.103c-0.025,1.118,0.574,1.475,1.611,1.486c1.1,0.013,1.939-0.275,1.76-1.542
				c-0.361-2.583,1.201-2.998,3.201-3.01c0.389-0.002,0.777-0.032,1.166-0.053c3.445-0.177,6.871,0.14,10.326-0.885
				c2.336-0.693,4.16,1.117,5.121,3.305c0.369,0.838,0.764,1.242,1.658,1.31c2.326,0.174,4.654,0.362,6.971,0.631
				c1.203,0.141,1.543-0.397,1.49-1.451c-0.018-0.311,0-0.623,0.004-0.935c0.211-20.938,0.412-41.877,0.641-62.815
				c0.035-3.268,0.189-6.533,0.283-9.799c0.025-0.868-0.018-1.768,1.115-2.02c1.15-0.256,1.176,0.716,1.506,1.37
				c0.609,1.207,1.271,1.03,1.805-0.024c0.916-1.813,1.588-2.481,3.844-1.05c1.801,1.143,4.549,0.471,6.859,0.186
				c0.879-0.108,0.738-1.068,0.746-1.751c0.02-1.79,0.072-3.584-0.006-5.371c-0.061-1.451,0.498-2.175,1.969-2.232
				c1.398-0.055,2.799-0.13,4.189-0.286c1.621-0.182,1.947-1.046,0.99-2.363c-0.609-0.835-2.139-1.391-1.574-2.6
				c0.781-1.668,1.908-3.209,3.084-4.643c0.539-0.658,1.201,0.122,1.434,0.64c1.473,3.303,4.363,3.685,7.486,3.989
				c4.641,0.452,9.262,1.143,13.875,1.833c1.344,0.201,2.252-0.095,2.91-1.281c0.951-1.712,1.908-1.418,2.961-0.03
				c1.129,1.489,3.1,2.721,0.914,4.869c-0.545,0.535-0.074,0.973,0.609,1.062c1.156,0.15,2.309,0.39,3.471,0.437
				c2.061,0.081,2.961,0.847,2.912,3.128c-0.238,11.439,0.053,22.887-0.502,34.321c-0.082,1.715-0.166,3.282,2.203,3.51
				c1.145,0.109,1.055,1.189,1.031,2.039c-0.1,3.656-0.227,7.311-0.344,10.966c-0.029,0.911-0.34,2.12,1.074,2.106
				c1.408-0.015,0.785-1.29,0.811-2c0.084-2.488,0.027-4.981,0.049-7.472c0.008-0.776-0.018-1.763,1.119-1.632
				c1.963,0.227,1.664-1.074,1.664-2.221c0.002-11.523-0.002-23.045,0.004-34.567c0.002-3.074,0.014-3.075,3.1-3.09
				c1.09-0.005,2.182,0.009,3.27-0.011c1.662-0.029,1.891-0.762,1.012-2.065c-0.625-0.926-2.283-1.476-1.793-2.746
				c0.512-1.324,1.672-2.402,2.57-3.571c0.531-0.691,1.295-0.847,1.732-0.078c1.85,3.249,5.063,3.163,8.135,3.509
				c3.709,0.418,7.418,0.839,11.111,1.37c1.314,0.189,2.271-0.066,3.004-1.183c0.906-1.378,1.689-0.937,2.492,0.161
				c1.117,1.527,2.861,2.888,0.818,4.964c-0.51,0.519-0.248,0.995,0.502,1.117c0.691,0.112,1.377,0.272,2.07,0.362
				c3.879,0.505,3.881,0.5,3.881,4.5c0,9.81,0.037,19.619-0.035,29.429c-0.012,1.726,0.381,2.856,2.191,3.213
				c0.371,0.073,0.783,0.233,1.051,0.487c2.07,1.955,4.033,2.704,6.141-0.038c0.689-0.898,1.566-0.101,2.238,0.415
				c1.609,1.238,2.119,0.637,2.154-1.16c0.041-2.176,0.26-4.348,0.326-6.524c0.039-1.294,0.588-2.065,1.879-2.227
				c1.732-0.216,1.979-1.323,1.969-2.831c-0.051-7.239-0.014-14.48-0.029-21.721c-0.004-1.405-0.045-2.721,1.973-2.599
				c1.018,0.062,1.305-0.646,1.297-1.541c-0.01-0.856,0.197-1.768-0.027-2.56c-0.92-3.24,1.717-5.327,2.504-8.005
				c0.232-0.786,1.293-0.709,2.039-0.893c4.969-1.229,9.701,0.7,14.549,1.089c0.695,0.056,1.404,0.137,2.07,0.334
				c3.313,0.979,6.021,0.829,7.297-3.134c0.521-1.622,2.285-1.377,3.637-1.527c4.328-0.481,8.656-0.991,12.998-1.32
				c1.766-0.134,2.156-0.902,2.176-2.509c0.066-5.913,0.252-11.825,0.41-17.738c0.025-0.973-0.188-2.028,1.18-2.46
				c0.934-0.295,0.707-1.281,0.766-2.027c0.346-4.498,0.73-8.995,0.984-13.499c0.121-2.149,0.793-3.397,3.205-3.642
				c2.854-0.289,5.666-0.989,8.492-1.529c0.855-0.163,1.689-0.188,2.541,0.033c4.518,1.177,9.031,2.373,13.564,3.483
				c1.395,0.341,1.871,1.083,1.854,2.473c-0.057,4.203-0.004,8.408-0.025,12.612c-0.008,1.159,0.027,2.179,1.5,2.443
				c1.514,0.272,1.299,1.518,1.309,2.589c0.127,12.842,0.275,25.685,0.359,38.527c0.072,11.133,0.07,22.266,0.107,33.398
				c0.004,1.287-0.303,2.657,1.658,3.01c0.943,0.17,0.654,1.3,0.639,2.027c-0.084,3.578-0.23,7.154-0.342,10.731
				c-0.035,1.12-0.365,2.433,1.631,1.321c1.357-0.755,3.023-0.654,4.576-0.674c1.27-0.015,1.891-0.537,1.797-1.833
				c-0.021-0.31,0.004-0.623,0.008-0.934c0.209-17.357,0.41-34.715,0.635-52.072c0.035-2.722,0.195-5.442,0.268-8.164
				c0.02-0.695-0.004-1.408-0.139-2.089c-0.537-2.755,0.078-3.799,3.023-3.883c2.445-0.069,3.625-0.794,3.236-3.371
				c-0.139-0.925,0.486-1.605,1.045-2.262c3.791-4.44,7.605-8.86,11.357-13.333c0.939-1.12,1.611-1.168,2.582-0.042
				c3.762,4.362,7.566,8.688,11.395,12.991c0.789,0.888,1.162,1.857,1,2.984c-0.33,2.283,0.686,3.102,2.875,2.93
				c0.758-0.06,1.539,0.201,2.313,0.257c1.041,0.074,1.479,0.686,1.656,1.632c0.168,0.894-0.066,1.554-0.979,1.825
				c-1.186,0.354-1.223,1.275-1.156,2.243c0.441,6.451,0.35,12.914,0.441,19.373c0.01,0.707-0.006,1.416,0.877,1.703
				c0.824,0.268,1.238-0.182,1.771-0.723c1.021-1.038,2.369-1.327,3.035,0.181c0.648,1.462,1.764,1.614,2.967,1.809
				c3.303,0.534,6.602,1.097,9.922,1.488c1.814,0.214,2.502,0.943,2.488,2.825c-0.074,10.276,0.016,20.554-0.076,30.829
				c-0.018,2.092,0.506,3.086,2.73,2.787c0.918-0.123,1.867,0.017,2.799-0.027c1.674-0.078,3.07-0.053,3.018,2.322
				c-0.029,1.312,1.563,1.809,2.41,2.555c0.672,0.59,0.879-0.688,0.906-1.341c0.137-3.42,0.014-6.848,0.402-10.263
				c0.131-1.151,0.127-2.138,1.713-2.188c1.408-0.045,0.871-1.193,0.828-1.964c-0.199-3.602-0.211-3.619,3.352-3.871
				c1.396-0.099,2.801-0.128,4.201-0.132c1.582-0.005,3.195,0.155,3.482-2.071c0.08-0.627,0.717-0.721,1.275-0.813
				c2.316-0.379,4.65-0.402,6.988-0.389c0.455,0.003,0.967,0.012,1.221,0.498c0.336,0.645,0.174,1.669,1.246,1.742
				c2.094,0.143,4.201,0.404,6.285,0.286c1.158-0.065,0.746-1.366,0.752-2.146c0.031-6.462,0.014-12.924,0.021-19.386
				c0.002-1.37,0.115-2.47,1.301-3.692c1.275-1.318,0.635-3.677,0.984-5.562c0.223-1.204,0.021-2.484,0.051-3.729
				c0.098-4.108,0.939-8.022,3.078-11.592c2.682-4.472,4.498-9.469,6.158-14.244c1.469-4.223,3.648-7.756,5.82-11.433
				c1.184-2.002,1.043-4.198,1.291-6.325c0.908-7.788,1.705-15.591,2.566-23.604c0.992,0.58,0.865,1.392,0.91,2.082
				c0.5,7.841,1.004,15.682,1.445,23.525c0.072,1.304,0.268,2.446,1.326,3.328c0.994,0.828,1.438,2.004,1.887,3.175
				c3.701,9.662,6.896,19.522,11.291,28.913c0.627,1.339,0.512,2.732,0.52,4.125c0.012,2.569-0.004,5.139,0.006,7.708
				c0.006,1.516-0.359,3.13,1.459,4.062c0.58,0.297,0.395,1.136,0.381,1.742c-0.098,4.746,0.154,9.507-0.381,14.232
				c-0.227,2.014,0.463,2.681,2.422,2.479c5.275-0.543,10.576-0.317,15.867-0.421c1.195-0.023,2.271-0.224,2.869,1.528
				c0.51,1.499,2.861,1.435,3.65,0.839c2.248-1.696,4.699-1.208,7.084-1.364c3.207-0.21,3.184-0.116,3.258-3.239
				c0.113-4.823,0.357-9.646,0.371-14.468c0.006-1.856,0.609-2.847,2.469-2.788c1.893,0.06,2.32-0.876,2.324-2.595
				c0.012-3.967-0.166-7.951,0.367-11.896c0.828-6.104,2.4-11.989,5.799-17.223c1.33-2.05,3.373-3.465,5.268-4.914
				c2.428-1.854,3.541-4.255,3.906-7.13c0.117-0.927,0.209-1.701,1.426-1.66c1.092,0.036,1.219,0.748,1.252,1.584
				c0.123,3.028,1.344,5.323,4.195,6.696c3.205,1.543,5.014,4.134,5.84,7.643c0.814,3.464,1.637,7.029,2.801,10.294
				c1.914,5.372,0.771,10.564,0.771,15.827c0,1.646,0.342,2.552,1.99,2.715c1.801,0.18,2.213,1.234,2.186,2.887
				c-0.078,4.669,0.029,9.343-0.055,14.012c-0.031,1.698,0.49,2.455,2.26,2.315c0.998-0.079,2.023,0.037,3.021,0.181
				c0.508,0.073,1.408,0.411,1.402,0.609c-0.086,3.083,4.027,4.733,2.73,8.252c-0.436,1.185,0.254,2.158,1.369,2.907
				c1.434,0.963,1.979,0.592,1.986-0.999c0.018-3.192,0.082-6.387-0.018-9.575c-0.053-1.689,0.502-2.531,2.219-2.896
				c3.727-0.792,7.41-1.795,11.123-2.657c1.244-0.289,2.215-0.667,2.15-2.22c-0.047-1.108,0.885-1.313,1.703-1.603
				c5.117-1.807,10.35-2.75,15.803-2.322c1.141,0.09,2.135,0.291,2.102,1.583c-0.07,2.643,1.709,2.923,3.646,3.099
				c0.695,0.063,1.393,0.116,2.09,0.174c0,48.119,0,216.237,0,264.356c-1.084,0.055-2.17,0.156-3.256,0.156
				c-262.246,0.008-481.813,0.008-744.058,0c-1.086,0-2.17-0.102-3.256-0.156"/>
			<path fill-rule="evenodd" clip-rule="evenodd" d="M533.407,740.312c1.086,0.055,7.017,0.156,8.103,0.156
				c262.247,0.008,476.965,0.008,739.211,0c1.086,0,2.172-0.102,3.256-0.156c-0.102,0.143,0.236,0.486-0.234,0.473
				c-0.621-0.021-1.244-0.006-1.867-0.006c-263.016,0-483.35,0-746.366-0.029C534.826,740.75,533.925,741.289,533.407,740.312z"/>
		</g>
		<g>
			<path fill-rule="evenodd" clip-rule="evenodd" fill="#3E88EE" d="M0.036,574.117c1.072-0.549,2.234-0.406,3.369-0.408
				c12.004-0.008,24.009,0,36.014-0.006c2.929,0,2.933-0.012,2.934-3.006c0.002-6.574,0.066-13.15-0.037-19.721
				c-0.031-1.992,0.678-2.609,2.598-2.606c27.368,0.037,54.736,0.037,82.104-0.003c1.8-0.003,2.291,0.626,2.283,2.379
				c-0.06,12.717-0.007,25.438-0.045,38.155c-0.004,1.529,0.205,2.521,2.058,2.346c1.272-0.121,1.766,0.621,1.749,1.852
				c-0.03,2.215,0.063,4.432-0.021,6.643c-0.059,1.543,0.448,2.283,2.074,2.145c0.995-0.084,2-0.016,3.002-0.014
				c3.119,0.012,3.127,0.012,3.13,3.039c0.004,6.145,0.073,12.291-0.042,18.436c-0.037,1.979,0.567,2.807,2.547,2.518
				c0.35-0.049,0.719-0.049,1.07-0.002c1.912,0.258,2.689-0.43,2.591-2.479c-0.159-3.279,0.009-6.574-0.062-9.859
				c-0.032-1.469,0.533-2.084,1.983-2.08c7.073,0.02,14.149,0.02,21.223,0c1.433-0.004,2.046,0.574,2.007,2.061
				c-0.074,2.785,0.036,5.574-0.036,8.357c-0.038,1.498,0.57,2.037,2.024,2.016c7.684-0.113,6.165,0.953,6.287-5.873
				c0.083-4.645,0.013-9.289,0.018-13.934c0.003-2.861,0.009-2.861,2.834-3.25c0.272-0.48-0.117-0.805-0.304-1.158
				c-2.375-4.48-1.672-7.934,2.503-10.758c1.461-0.99,1.881-2.059,1.871-3.699c-0.04-5.967,0.005-5.986,6.012-5.961
				c5.686,0.023,5.2-0.639,5.166,5.156c-0.012,1.93,0.287,3.477,1.813,4.963c2.234,2.176,2.981,5.176,3.029,8.248
				c0.024,1.574,0.555,2.141,2.14,2.096c3.213-0.094,6.433-0.084,9.646-0.004c1.522,0.037,2.198-0.395,2.18-2.047
				c-0.02-1.832-0.771-4.037,0.401-5.414c1.173-1.379,3.386-0.457,5.138-0.559c1.289-0.074,1.777-0.609,1.741-1.854
				c-0.044-1.572,0.036-3.146-0.014-4.717c-0.054-1.686,0.086-3.188,1.465-4.482c1.231-1.152,0.687-2.863,0.619-4.307
				c-0.089-1.951,0.59-2.752,2.565-2.639c1.852,0.107,3.717-0.047,5.57,0.037c1.664,0.076,2.271-0.572,2.244-2.252
				c-0.075-5,0.016-10.004-0.049-15.005c-0.02-1.534,0.278-2.834,1.54-3.779c1.897-1.421,2.557-3.299,2.308-5.626
				c-0.137-1.271,0.01-2.572-0.051-3.856c-0.063-1.37,0.35-2.231,1.895-2.153c1.356,0.068,1.671-0.735,1.664-1.912
				c-0.026-3.572,0.065-7.147-0.033-10.717c-0.051-1.861,0.626-2.7,2.489-2.451c1.899,0.254,2.339-0.743,2.222-2.398
				c-0.119-1.684-0.255-3.402,2.363-3.232c1.195,0.077,1.255-1.03,1.176-1.883c-0.209-2.243,0.881-2.876,2.94-2.738
				c1.92,0.129,3.86,0.1,5.784,0.006c1.796-0.086,2.762,0.516,2.513,2.438c-0.271,2.114,0.196,3.496,2.78,3.192
				c1.125-0.131,1.447,0.774,1.411,1.715c-0.054,1.419,0.463,2.194,1.987,2.025c1.656-0.184,2.074,0.698,2.038,2.184
				c-0.067,2.714,0.024,5.431-0.031,8.146c-0.028,1.347,0.223,2.275,1.851,2.107c1.532-0.159,1.98,0.677,1.967,2.068
				c-0.037,3.502,0.016,7.004-0.018,10.504c-0.014,1.239,0.229,2.112,1.72,2.088c0.997-0.016,1.36,0.614,1.348,1.542
				c-0.009,0.714,0.018,1.427,0.018,2.142c0.001,17.149,0.026,34.299-0.033,51.448c-0.007,1.91,0.32,3.035,2.535,2.799
				c1.27-0.137,1.754,0.631,1.742,1.855c-0.025,2.93,0.072,5.861-0.024,8.789c-0.057,1.705,0.617,2.211,2.258,2.23
				c5.082,0.053,5.081,0.107,5.081,5.168c0,7.287,0.052,14.576-0.034,21.865c-0.022,1.838,0.481,2.541,2.408,2.486
				c4.213-0.123,8.434-0.121,12.646-0.002c1.945,0.053,2.419-0.721,2.409-2.525c-0.061-11.074-0.016-22.15-0.044-33.225
				c-0.005-1.895-0.142-3.633,2.664-3.416c1.386,0.107,1.14-1.234,1.104-2.1c-0.067-1.74,0.031-3.178,2.406-3.012
				c1.056,0.072,1.163-0.865,1.17-1.688c0.015-2.215-0.021-4.432,0.031-6.645c0.068-3.014,2.45-5.332,5.462-5.342
				c4.858-0.016,9.717-0.002,14.577-0.008c3.001-0.004,3.003-0.008,3.008-3.109c0.002-2.715-0.002-5.43,0-8.146
				c0.004-3.598,0.005-3.605,3.523-3.607c12.219-0.002,24.438,0.008,36.658-0.004c4.893-0.006,4.425,0.422,4.43-4.324
				c0.012-11.648-0.002-23.294,0.006-34.943c0.001-2.837,0.062-2.884,2.868-2.895c2-0.008,4.006-0.084,6.001,0.022
				c1.657,0.091,2.311-0.48,2.253-2.191c-0.104-2.998,0.089-6.008-0.067-9c-0.111-2.155,0.628-2.878,2.796-2.856
				c9.075,0.092,18.149,0.041,27.225,0.036c3.084-0.003,3.093-0.013,3.093-3.103c0.002-28.082,0-56.165,0.004-84.247
				c0-1.806-0.486-3.802,2.523-3.837c1.199-0.015,0.786-1.495,0.788-2.348c0.028-10.718,0.02-21.438,0.02-32.155
				c0-1.285,0.058-2.575-0.011-3.856c-0.08-1.466,0.553-2.006,1.998-2.087c4.893-0.273,4.89-0.313,4.891-5.343
				c0-4.645,0-9.289,0.005-13.935c0.001-1.01-0.069-2.023,1.305-2.322c1.036-0.226,0.897-1.166,0.905-1.931
				c0.022-2.5,0.046-5.002,0.005-7.502c-0.022-1.438,0.563-2.042,2.034-2.073c1.617-0.036,3.565,0.69,4.774-0.415
				c1.25-1.143,0.433-3.122,0.518-4.728c0.079-1.489,0.594-2.242,2.188-2.173c1.712,0.075,3.43,0,5.145,0.003
				c0.912,0.001,1.505-0.304,1.534-1.339c0.386-14.107,4.941-27.488,7.218-41.267c0.454-2.746,1.067-5.466,1.629-8.193
				c0.192-0.929,0.205-1.817-0.125-2.733c-1.245-3.443-0.625-6.637,1.54-9.502c0.958-1.27,1.309-2.577,1.366-4.148
				c0.554-15.27,1.159-30.539,1.783-45.806c0.367-8.988,0.795-17.974,1.201-26.961c0.028-0.613,0.115-1.225,0.465-1.836
				c0.175,1.61,0.439,3.219,0.508,4.833c0.495,11.628,0.918,23.259,1.425,34.887c0.518,11.839,1.107,23.676,1.657,35.513
				c0.034,0.733,0.17,1.395,0.643,1.994c1.808,2.29,2.461,4.941,1.525,7.665c-1.109,3.229-0.513,6.313,0.093,9.461
				c2.46,12.758,4.925,25.515,7.354,38.278c0.319,1.679,0.559,3.392,0.616,5.096c0.053,1.541,0.744,1.969,2.146,1.892
				c1.353-0.076,2.715,0.033,4.07-0.023c1.374-0.061,1.962,0.542,1.944,1.895c-0.026,1.999,0.051,4.002-0.013,6.001
				c-0.045,1.448,0.485,2.112,1.992,2.031c1.426-0.076,2.862,0.065,4.287-0.03c1.786-0.12,2.374,0.651,2.361,2.386
				c-0.055,7.646-0.025,15.292-0.019,22.938c0.003,4.277-0.281,3.763,3.809,3.8c4.435,0.041,3.967-0.405,3.974,4.079
				c0.018,11.718,0.035,23.438-0.024,35.156c-0.009,1.827,0.149,3.122,2.456,2.855c0.976-0.114,1.395,0.538,1.396,1.476
				c0.002,0.857,0.021,1.714,0.021,2.571c0.002,58.88,0.002,117.759,0.002,176.639c0,3.613,0,3.637,3.549,3.607
				c4.937-0.039,4.307,0.617,4.309-4.34c0.016-33.799,0.008-67.598,0.009-101.396c0-3.471,0.004-3.477,3.371-3.477
				c38.872-0.003,77.744-0.002,116.616-0.003c0.287,0,0.576-0.026,0.857,0.007c0.99,0.115,2.367-0.313,2.387,1.365
				c0.021,1.544-1.248,1.264-2.193,1.325c-0.838,0.055-1.59,0.138-1.676,1.215c-0.086,1.075,0.408,1.605,1.473,1.635
				c1.223,0.037,1.553,0.808,1.543,1.868c-0.008,0.716,0.01,1.43,0.01,2.144c0,25.082,0,50.163,0.002,75.243
				c0,2.986,0.006,2.99,2.918,2.994c2.572,0.004,5.146-0.053,7.717,0.016c1.48,0.039,2.061-0.545,2.012-2.02
				c-0.068-2.141,0.033-4.287-0.021-6.43c-0.035-1.387,0.563-1.979,1.916-1.869c0.07,0.006,0.143,0.002,0.215-0.002
				c4.141-0.146,4.191-0.145,4.326-4.318c0.049-1.465,0.6-2.061,2.047-2.041c3.287,0.041,6.574,0.004,9.859,0.027
				c0.49,0.002,1.16-0.021,1.438,0.266c1.861,1.914,4.215,1.414,6.453,1.422c6.074,0.025,12.148,0.064,18.221-0.021
				c1.967-0.029,2.779,0.676,2.559,2.625c-0.072,0.637-0.01,1.287-0.008,1.928c0.002,3.385-0.002,3.439,3.305,3.725
				c1.516,0.131,1.875,0.891,1.863,2.248c-0.041,5.145,0.107,10.293-0.066,15.432c-0.084,2.463,1.246,2.379,2.951,2.404
				c1.777,0.027,2.912-0.074,2.898-2.451c-0.096-16.576-0.053-33.156-0.047-49.734c0-3.237,0.008-3.245,3.115-3.246
				c23.652-0.002,47.303-0.002,70.957,0.001c2.941,0,2.941,0.012,2.955,2.96c0.021,4.827,0.021,4.827,4.926,4.827
				c3.5,0,7.01,0.136,10.5-0.05c2.322-0.124,3.123,0.826,3.365,2.984c0.521,4.631,1.492,9.168,3.746,13.324
				c0.637,1.174,1.232,2.396,2.453,3.162c0.746-0.713,0.441-1.549,0.443-2.283c0.029-8.002,0.018-16.006,0.025-24.008
				c0.002-1.274-0.219-2.566,1.768-2.766c1.248-0.124,0.875-1.463,0.879-2.325c0.029-7.359,0.016-14.72,0.02-22.08
				c0.002-1.268-0.199-2.541,1.547-3.078c0.885-0.272,0.779-1.468,0.834-2.288c0.947-13.953,4.809-27.083,11.098-39.534
				c0.361-0.715,0.514-1.462,0.553-2.265c0.592-12.335,1.193-24.673,1.814-37.006c0.162-3.19,0.398-6.375,0.604-9.595
				c0.951,0.113,0.719,0.749,0.738,1.154c0.484,9.554,0.938,19.109,1.412,28.665c0.277,5.562,0.594,11.119,0.857,16.681
				c0.049,1.054,0.518,1.917,0.957,2.81c5.961,12.116,9.646,24.86,10.652,38.355c0.09,1.241,0.055,2.519,1.709,3.086
				c1.027,0.351,0.691,1.612,0.695,2.506c0.02,7.288,0.012,14.577,0.01,21.867c0,1.359-0.207,2.683,1.842,2.947
				c1.186,0.152,0.811,1.511,0.814,2.378c0.027,7.859,0.01,15.72,0.025,23.58c0.002,1.445-0.303,2.902,1.182,4.064
				c0.754,0.588,0.387,1.898,0.387,2.887c0.008,20.508-0.002,41.018,0.031,61.523c0.002,1.152-0.613,2.74,0.65,3.357
				c1.465,0.719,3.234,0.396,4.85,0.15c0.916-0.143,0.783-1.074,0.787-1.771c0.012-3.432,0.008-6.861,0.008-10.289
				c0-15.508-0.002-31.014,0-46.52c0-2.898,0.059-2.965,3.025-2.967c23.938-0.004,47.877-0.002,71.814-0.004
				c1.525,0,2.697-0.078,3.24,2.088c0.418,1.672,2.625,0.625,4.025,0.723c1.09,0.074,1.107-0.9,1.113-1.705
				c0.012-2.072,0.055-4.146-0.002-6.217c-0.041-1.482,0.436-2.369,2.064-2.227c1.49,0.129,1.943-0.756,2.221-2.023
				c1.053-4.811,2.221-9.6,3.238-14.418c0.314-1.494,1.074-1.988,2.508-1.986c18.223,0.02,36.443,0.023,54.664-0.01
				c1.535-0.002,2.352,0.609,2.828,2.031c0.656,1.963,1.535,3.854,2.162,5.822c0.467,1.469,1.277,1.986,2.814,1.967
				c6.002-0.074,12.004,0.043,18.006-0.068c2.09-0.039,2.705,0.715,2.695,2.729c-0.064,12.576-0.035,25.152-0.031,37.729
				c0,2.865,0.01,2.871,2.822,2.873c5.43,0.004,10.861,0.066,16.291-0.031c1.91-0.037,2.553,0.666,2.432,2.504
				c-0.115,1.707,0.064,3.434-0.045,5.141c-0.111,1.74,0.486,2.504,2.303,2.389c1.779-0.109,3.572,0.031,5.357-0.031
				c1.574-0.055,2.172,0.637,2.139,2.178c-0.059,2.715,0.041,5.434-0.029,8.146c-0.041,1.584,0.602,2.193,2.158,2.121
				c1.568-0.076,3.141,0.002,4.713-0.02c2.82-0.041,4.521-1.715,4.547-4.492c0.021-2.5,0.055-5.002-0.01-7.502
				c-0.039-1.502,0.447-2.236,2.07-2.223c5.717,0.051,11.434,0.041,17.15,0.004c1.471-0.008,2.07,0.607,2.029,2.055
				c-0.049,1.713,0.039,3.43-0.012,5.143c-0.041,1.357,0.516,1.951,1.889,1.943c5.789-0.025,11.576-0.043,17.363,0.012
				c1.727,0.016,1.959-0.895,1.953-2.307c-0.033-8.361-0.02-16.721-0.012-25.082c0.004-2.799,0.016-2.809,2.889-2.813
				c4.217-0.008,8.434-0.064,12.646,0.025c1.701,0.037,2.248-0.6,2.234-2.25c-0.057-7.002-0.025-14.004-0.02-21.008
				c0.006-3.066,0.111-3.172,3.084-3.18c4.51-0.012,4.27,0.246,3.973-4.059c-0.871-12.607,2.338-24.665,4.59-36.858
				c1.127-6.106,2.367-12.194,3.473-18.306c0.238-1.32,0.109-2.704,0.186-4.058c0.078-1.4-0.533-3.12,1.684-3.556
				c0.439-0.086,0.484-0.67,0.494-1.102c0.096-4.195,0.701-8.353,0.184-12.594c-0.531-4.339,0.355-8.403,4.123-11.326
				c1.014-0.785,1.443-1.818-0.229-2.335c-1.016-0.314-1.125-0.952-1.127-1.772c-0.01-1.857,0.033-3.718-0.021-5.572
				c-0.047-1.479,0.012-2.739,2-2.766c0.928-0.012,1.07-0.797,1.076-1.561c0.012-1.43-0.008-2.859,0.031-4.287
				c0.014-0.533-0.158-1.344,0.602-1.396c0.756-0.055,1.063,0.692,1.104,1.348c0.088,1.354,0.098,2.712,0.092,4.068
				c-0.008,1.078,0.289,1.831,1.547,1.801c1.242-0.03,1.564,0.721,1.555,1.803c-0.02,2.215-0.006,4.429-0.01,6.645
				c0,0.214,0.057,0.522-0.057,0.628c-2.479,2.276-0.135,3.577,0.947,5.243c1.523,2.343,1.867,5.07,1.982,7.8
				c0.082,1.854,0.225,3.743-0.023,5.566c-0.391,2.864,1.32,5.37,1.117,8.183c-0.068,0.972,0.869,0.969,1.59,0.979
				c0.939,0.012,1.783,0.169,1.729,1.366c-0.279,6.079,2.193,11.604,3.584,17.331c2.037,8.396,4.381,16.716,6.639,25.058
				c0.84,3.104,0.395,6.253,0.48,9.383c0.074,2.711,0.078,5.432-0.008,8.145c-0.053,1.596,0.404,2.502,2.152,2.293
				c2.143-0.256,2.623,0.822,2.615,2.779c-0.059,16.148-0.041,32.297-0.01,48.447c0.002,1.006-0.559,2.408,0.605,2.938
				c1.357,0.619,2.988,0.502,4.41,0.066c1.145-0.35,0.689-1.596,0.691-2.457c0.025-13.863,0.018-27.727,0.02-41.588
				c0-1.215,0.059-2.434-0.01-3.645c-0.082-1.504,0.609-1.996,2.047-1.984c5.357,0.041,10.719,0.051,16.076-0.025
				c1.551-0.021,1.971,0.611,1.941,2.037c-0.066,2.928,0.059,5.861-0.049,8.787c-0.064,1.725,0.619,2.215,2.26,2.197
				c6.498-0.064,13.002,0.031,19.504-0.057c1.951-0.027,2.717,0.619,2.619,2.592c-0.121,2.352-0.035,4.715-0.027,7.072
				c0.01,2.787,0.018,2.795,2.918,2.797c10.363,0.004,20.725,0,31.086,0.002c3.275,0.002,3.275,0.008,3.281,3.369
				c0.002,0.715,0.025,1.432-0.002,2.145c-0.08,1.916-0.32,3.826,2.67,3.58c1.133-0.094,1.125,1.104,1.131,1.955
				c0.025,3.213,0.055,6.43,0.008,9.645c-0.02,1.428,0.492,2.213,1.99,2.047c2.127-0.234,2.449,0.936,2.445,2.73
				c-0.041,17.148-0.023,34.299-0.021,51.447c0,3.211,0.002,3.215,3.105,3.215c26.867,0,53.736,0,80.604,0
				c3.191,0,3.154-0.02,3.518-3.125c0.59-5.031,1.189-10.064,1.922-15.078c0.242-1.674,0.447-3.125-1.463-3.77
				c0.119-0.75,0.602-0.705,1.012-0.738c3.346-0.275,4.322-1.225,4.6-4.506c0.074-0.893,0.525-1.635,0.971-2.355
				c1.691-2.725,2.844-5.74,4.826-8.328c1.174-1.537,1.887-3.332,1.795-5.555c-0.072-1.748,1.109-3.441,1.076-5.453
				c-0.023-1.531,1.201-3.07-0.641-4.348c-0.313-0.215-0.152-0.662,0.006-0.994c1.391-2.9,0.693-5.9,0.713-8.922
				c0.014-2.336-0.516-5.457,2.568-6.914c0.295-0.141,0.643-0.475,0.699-0.77c0.74-3.912,2.955-7.572,2.801-11.516
				c-0.07-1.85-0.227-3.492,0.494-5.191c0.17-0.402-0.098-1.25,0.684-1.006c0.811,0.254,1.873-0.932,2.43,0.438
				c0.559,1.373,1.137,2.738,1.621,4.137c0.125,0.359,0.09,1.01-0.145,1.219c-1.756,1.551-1.348,3.885-2.154,5.77
				c-0.248,0.584-0.414,1.137-0.85,1.664c-0.865,1.041-0.242,4.156,0.885,4.707c1.053,0.514,1.387-1.135,2.396-0.924
				c-0.479,1.988-0.479,1.988,2.039,2.023c0.092,0.83-1.004,0.734-1.104,1.443c0.301,0.684,1.273,0.145,1.666,1.004
				c-0.891,0.58-3.418,0.775-0.324,2.889c-2.498-0.539-3.088,0.939-3.682,2.117c-0.551,1.1,0.283,2.072,1.033,2.838
				c1.078,1.102,1.947,2.273,2.145,3.852c0.195,1.561,1.617,1.66,2.67,2.137c3.326,1.512,3.494,3.803,0.654,6.203
				c-1.469,1.244-2.738,2.766-2.521,5.072c0.189,2.045,0.32,4.143-0.334,6.168c-0.133,0.404-0.107,0.969-0.381,1.199
				c-2.656,2.262-1.721,5.557-2.461,8.361c-0.107,0.412-0.072,1.127,0.301,1.146c2.295,0.119,3.336,3.316,6.043,2.4
				c0.488-0.164,1.127-0.088,1.83,0.484c-2.137,0.941-1.557,2.693-1.404,4.283c0.568,5.896,1.086,11.801,1.84,17.674
				c0.209,1.629,0.529,3.486,2.525,4.314c0.938,0.391,0.668,1.5,0.66,2.324c-0.014,1.199,0.391,1.922,1.695,1.896
				c0,17.578,0,35.158,0,52.734c-1.145,0.029-2.287,0.086-3.428,0.086c-469.693,0.002-939.384,0.002-1409.078,0
				c-1.071,0-2.142-0.057-3.213-0.086C0.036,685.304,0.036,629.71,0.036,574.117z"/>
			<path fill-rule="evenodd" clip-rule="evenodd" fill="#8FC428" d="M0.036,740.898c1.071,0.029,2.142,0.086,3.213,0.086
				c469.693,0.002,939.384,0.002,1409.078,0c1.141,0,2.283-0.057,3.428-0.086c-0.094,0.133,0.215,0.447-0.217,0.434
				c-0.57-0.018-1.143-0.004-1.713-0.004c-470.621,0-941.24,0-1411.86-0.027C1.337,741.3,0.511,741.796,0.036,740.898z"/>
		</g>
		<g opacity="0.3">
			<path fill-rule="evenodd" clip-rule="evenodd" fill="none" d="M0.036,574.117c0-121.251,0.003-242.503-0.036-363.755
				c0-1.543,0.244-2.009,1.931-2.009c470.647,0.045,941.292,0.046,1411.939-0.001c1.709,0,1.918,0.498,1.918,2.021
				c-0.037,159.265-0.033,318.526-0.033,477.792c-1.305,0.025-1.709-0.697-1.695-1.896c0.008-0.824,0.277-1.934-0.66-2.324
				c-1.996-0.828-2.316-2.686-2.525-4.314c-0.754-5.873-1.271-11.777-1.84-17.674c-0.152-1.59-0.732-3.342,1.404-4.283
				c-0.703-0.572-1.342-0.648-1.83-0.484c-2.707,0.916-3.748-2.281-6.043-2.4c-0.373-0.02-0.408-0.734-0.301-1.146
				c0.74-2.805-0.195-6.1,2.461-8.361c0.273-0.23,0.248-0.795,0.381-1.199c0.654-2.025,0.523-4.123,0.334-6.168
				c-0.217-2.307,1.053-3.828,2.521-5.072c2.84-2.4,2.672-4.691-0.654-6.203c-1.053-0.477-2.475-0.576-2.67-2.137
				c-0.197-1.578-1.066-2.75-2.145-3.852c-0.75-0.766-1.584-1.738-1.033-2.838c0.594-1.178,1.184-2.656,3.682-2.117
				c-3.094-2.113-0.566-2.309,0.324-2.889c-0.393-0.859-1.365-0.32-1.666-1.004c0.1-0.709,1.195-0.613,1.104-1.443
				c-2.518-0.035-2.518-0.035-2.039-2.023c-1.01-0.211-1.344,1.438-2.396,0.924c-1.127-0.551-1.75-3.666-0.885-4.707
				c0.436-0.527,0.602-1.08,0.85-1.664c0.807-1.885,0.398-4.219,2.154-5.77c0.234-0.209,0.27-0.859,0.145-1.219
				c-0.484-1.398-1.063-2.764-1.621-4.137c-0.557-1.369-1.619-0.184-2.43-0.438c-0.781-0.244-0.514,0.604-0.684,1.006
				c-0.721,1.699-0.564,3.342-0.494,5.191c0.154,3.943-2.061,7.604-2.801,11.516c-0.057,0.295-0.404,0.629-0.699,0.77
				c-3.084,1.457-2.555,4.578-2.568,6.914c-0.02,3.021,0.678,6.021-0.713,8.922c-0.158,0.332-0.318,0.779-0.006,0.994
				c1.842,1.277,0.617,2.816,0.641,4.348c0.033,2.012-1.148,3.705-1.076,5.453c0.092,2.223-0.621,4.018-1.795,5.555
				c-1.982,2.588-3.135,5.604-4.826,8.328c-0.445,0.721-0.896,1.463-0.971,2.355c-0.277,3.281-1.254,4.23-4.6,4.506
				c-0.41,0.033-0.893-0.012-1.012,0.738c1.91,0.645,1.705,2.096,1.463,3.77c-0.732,5.014-1.332,10.047-1.922,15.078
				c-0.363,3.105-0.326,3.125-3.518,3.125c-26.867,0-53.736,0-80.604,0c-3.104,0-3.105-0.004-3.105-3.215
				c-0.002-17.148-0.02-34.299,0.021-51.447c0.004-1.795-0.318-2.965-2.445-2.73c-1.498,0.166-2.01-0.619-1.99-2.047
				c0.047-3.215,0.018-6.432-0.008-9.645c-0.006-0.852,0.002-2.049-1.131-1.955c-2.99,0.246-2.75-1.664-2.67-3.58
				c0.027-0.713,0.004-1.43,0.002-2.145c-0.006-3.361-0.006-3.367-3.281-3.369c-10.361-0.002-20.723,0.002-31.086-0.002
				c-2.9-0.002-2.908-0.01-2.918-2.797c-0.008-2.357-0.094-4.721,0.027-7.072c0.098-1.973-0.668-2.619-2.619-2.592
				c-6.502,0.088-13.006-0.008-19.504,0.057c-1.641,0.018-2.324-0.473-2.26-2.197c0.107-2.926-0.018-5.859,0.049-8.787
				c0.029-1.426-0.391-2.059-1.941-2.037c-5.357,0.076-10.719,0.066-16.076,0.025c-1.438-0.012-2.129,0.48-2.047,1.984
				c0.068,1.211,0.01,2.43,0.01,3.645c-0.002,13.861,0.006,27.725-0.02,41.588c-0.002,0.861,0.453,2.107-0.691,2.457
				c-1.422,0.436-3.053,0.553-4.41-0.066c-1.164-0.529-0.604-1.932-0.605-2.938c-0.031-16.15-0.049-32.299,0.01-48.447
				c0.008-1.957-0.473-3.035-2.615-2.779c-1.748,0.209-2.205-0.697-2.152-2.293c0.086-2.713,0.082-5.434,0.008-8.145
				c-0.086-3.13,0.359-6.278-0.48-9.383c-2.258-8.342-4.602-16.662-6.639-25.058c-1.391-5.728-3.863-11.252-3.584-17.331
				c0.055-1.197-0.789-1.354-1.729-1.366c-0.721-0.01-1.658-0.007-1.59-0.979c0.203-2.813-1.508-5.318-1.117-8.183
				c0.248-1.823,0.105-3.712,0.023-5.566c-0.115-2.729-0.459-5.457-1.982-7.8c-1.082-1.666-3.426-2.967-0.947-5.243
				c0.113-0.105,0.057-0.414,0.057-0.628c0.004-2.216-0.01-4.43,0.01-6.645c0.01-1.082-0.313-1.833-1.555-1.803
				c-1.258,0.03-1.555-0.723-1.547-1.801c0.006-1.356-0.004-2.715-0.092-4.068c-0.041-0.655-0.348-1.402-1.104-1.348
				c-0.76,0.053-0.588,0.863-0.602,1.396c-0.039,1.428-0.02,2.857-0.031,4.287c-0.006,0.764-0.148,1.549-1.076,1.561
				c-1.988,0.026-2.047,1.287-2,2.766c0.055,1.854,0.012,3.715,0.021,5.572c0.002,0.82,0.111,1.458,1.127,1.772
				c1.672,0.517,1.242,1.55,0.229,2.335c-3.768,2.923-4.654,6.987-4.123,11.326c0.518,4.241-0.088,8.398-0.184,12.594
				c-0.01,0.432-0.055,1.016-0.494,1.102c-2.217,0.436-1.605,2.155-1.684,3.556c-0.076,1.354,0.053,2.737-0.186,4.058
				c-1.105,6.111-2.346,12.199-3.473,18.306c-2.252,12.193-5.461,24.251-4.59,36.858c0.297,4.305,0.537,4.047-3.973,4.059
				c-2.973,0.008-3.078,0.113-3.084,3.18c-0.006,7.004-0.037,14.006,0.02,21.008c0.014,1.65-0.533,2.287-2.234,2.25
				c-4.213-0.09-8.43-0.033-12.646-0.025c-2.873,0.004-2.885,0.014-2.889,2.813c-0.008,8.361-0.021,16.721,0.012,25.082
				c0.006,1.412-0.227,2.322-1.953,2.307c-5.787-0.055-11.574-0.037-17.363-0.012c-1.373,0.008-1.93-0.586-1.889-1.943
				c0.051-1.713-0.037-3.43,0.012-5.143c0.041-1.447-0.559-2.063-2.029-2.055c-5.717,0.037-11.434,0.047-17.15-0.004
				c-1.623-0.014-2.109,0.721-2.07,2.223c0.064,2.5,0.031,5.002,0.01,7.502c-0.025,2.777-1.727,4.451-4.547,4.492
				c-1.572,0.021-3.145-0.057-4.713,0.02c-1.557,0.072-2.199-0.537-2.158-2.121c0.07-2.713-0.029-5.432,0.029-8.146
				c0.033-1.541-0.564-2.232-2.139-2.178c-1.785,0.063-3.578-0.078-5.357,0.031c-1.816,0.115-2.414-0.648-2.303-2.389
				c0.109-1.707-0.07-3.434,0.045-5.141c0.121-1.838-0.521-2.541-2.432-2.504c-5.43,0.098-10.861,0.035-16.291,0.031
				c-2.813-0.002-2.822-0.008-2.822-2.873c-0.004-12.576-0.033-25.152,0.031-37.729c0.01-2.014-0.605-2.768-2.695-2.729
				c-6.002,0.111-12.004-0.006-18.006,0.068c-1.537,0.02-2.348-0.498-2.814-1.967c-0.627-1.969-1.506-3.859-2.162-5.822
				c-0.477-1.422-1.293-2.033-2.828-2.031c-18.221,0.033-36.441,0.029-54.664,0.01c-1.434-0.002-2.193,0.492-2.508,1.986
				c-1.018,4.818-2.186,9.607-3.238,14.418c-0.277,1.268-0.73,2.152-2.221,2.023c-1.629-0.143-2.105,0.744-2.064,2.227
				c0.057,2.07,0.014,4.145,0.002,6.217c-0.006,0.805-0.023,1.779-1.113,1.705c-1.4-0.098-3.607,0.949-4.025-0.723
				c-0.543-2.166-1.715-2.088-3.24-2.088c-23.938,0.002-47.877,0-71.814,0.004c-2.967,0.002-3.025,0.068-3.025,2.967
				c-0.002,15.506,0,31.012,0,46.52c0,3.428,0.004,6.857-0.008,10.289c-0.004,0.697,0.129,1.629-0.787,1.771
				c-1.615,0.246-3.385,0.568-4.85-0.15c-1.264-0.617-0.648-2.205-0.65-3.357c-0.033-20.506-0.023-41.016-0.031-61.523
				c0-0.988,0.367-2.299-0.387-2.887c-1.484-1.162-1.18-2.619-1.182-4.064c-0.016-7.859,0.002-15.72-0.025-23.58
				c-0.004-0.867,0.371-2.226-0.814-2.378c-2.049-0.265-1.842-1.588-1.842-2.947c0.002-7.29,0.01-14.579-0.01-21.867
				c-0.004-0.894,0.332-2.155-0.695-2.506c-1.654-0.567-1.619-1.845-1.709-3.086c-1.006-13.495-4.691-26.239-10.652-38.355
				c-0.439-0.893-0.908-1.756-0.957-2.81c-0.264-5.562-0.58-11.119-0.857-16.681c-0.475-9.556-0.928-19.111-1.412-28.665
				c-0.02-0.405,0.213-1.041-0.738-1.154c-0.205,3.22-0.441,6.404-0.604,9.595c-0.621,12.333-1.223,24.671-1.814,37.006
				c-0.039,0.803-0.191,1.55-0.553,2.265c-6.289,12.451-10.15,25.581-11.098,39.534c-0.055,0.82,0.051,2.016-0.834,2.288
				c-1.746,0.537-1.545,1.811-1.547,3.078c-0.004,7.36,0.01,14.721-0.02,22.08c-0.004,0.862,0.369,2.201-0.879,2.325
				c-1.986,0.199-1.766,1.491-1.768,2.766c-0.008,8.002,0.004,16.006-0.025,24.008c-0.002,0.734,0.303,1.57-0.443,2.283
				c-1.221-0.766-1.816-1.988-2.453-3.162c-2.254-4.156-3.225-8.693-3.746-13.324c-0.242-2.158-1.043-3.108-3.365-2.984
				c-3.49,0.186-7,0.05-10.5,0.05c-4.904,0-4.904,0-4.926-4.827c-0.014-2.948-0.014-2.96-2.955-2.96
				c-23.654-0.003-47.305-0.003-70.957-0.001c-3.107,0.001-3.115,0.009-3.115,3.246c-0.006,16.578-0.049,33.158,0.047,49.734
				c0.014,2.377-1.121,2.479-2.898,2.451c-1.705-0.025-3.035,0.059-2.951-2.404c0.174-5.139,0.025-10.287,0.066-15.432
				c0.012-1.357-0.348-2.117-1.863-2.248c-3.307-0.285-3.303-0.34-3.305-3.725c-0.002-0.641-0.064-1.291,0.008-1.928
				c0.221-1.949-0.592-2.654-2.559-2.625c-6.072,0.086-12.146,0.047-18.221,0.021c-2.238-0.008-4.592,0.492-6.453-1.422
				c-0.277-0.287-0.947-0.264-1.438-0.266c-3.285-0.023-6.572,0.014-9.859-0.027c-1.447-0.02-1.998,0.576-2.047,2.041
				c-0.135,4.174-0.186,4.172-4.326,4.318c-0.072,0.004-0.145,0.008-0.215,0.002c-1.354-0.109-1.951,0.482-1.916,1.869
				c0.055,2.143-0.047,4.289,0.021,6.43c0.049,1.475-0.531,2.059-2.012,2.02c-2.57-0.068-5.145-0.012-7.717-0.016
				c-2.912-0.004-2.918-0.008-2.918-2.994c-0.002-25.08-0.002-50.161-0.002-75.243c0-0.714-0.018-1.428-0.01-2.144
				c0.01-1.061-0.32-1.831-1.543-1.868c-1.064-0.029-1.559-0.56-1.473-1.635c0.086-1.077,0.838-1.16,1.676-1.215
				c0.945-0.062,2.215,0.219,2.193-1.325c-0.02-1.679-1.396-1.25-2.387-1.365c-0.281-0.033-0.57-0.007-0.857-0.007
				c-38.872,0.001-77.744,0-116.616,0.003c-3.367,0-3.371,0.006-3.371,3.477c-0.001,33.798,0.007,67.597-0.009,101.396
				c-0.002,4.957,0.628,4.301-4.309,4.34c-3.549,0.029-3.549,0.006-3.549-3.607c0-58.88,0-117.759-0.002-176.639
				c0-0.857-0.02-1.714-0.021-2.571c-0.002-0.938-0.421-1.59-1.396-1.476c-2.307,0.267-2.465-1.028-2.456-2.855
				c0.06-11.719,0.042-23.438,0.024-35.156c-0.007-4.484,0.461-4.038-3.974-4.079c-4.09-0.037-3.806,0.478-3.809-3.8
				c-0.007-7.646-0.036-15.292,0.019-22.938c0.013-1.734-0.575-2.506-2.361-2.386c-1.425,0.096-2.861-0.046-4.287,0.03
				c-1.507,0.081-2.037-0.583-1.992-2.031c0.063-1.999-0.014-4.002,0.013-6.001c0.018-1.353-0.57-1.955-1.944-1.895
				c-1.355,0.057-2.718-0.053-4.07,0.023c-1.402,0.077-2.094-0.351-2.146-1.892c-0.058-1.704-0.297-3.417-0.616-5.096
				c-2.429-12.764-4.894-25.521-7.354-38.278c-0.605-3.147-1.202-6.231-0.093-9.461c0.936-2.724,0.282-5.375-1.525-7.665
				c-0.473-0.6-0.608-1.261-0.643-1.994c-0.55-11.837-1.14-23.674-1.657-35.513c-0.507-11.628-0.93-23.259-1.425-34.887
				c-0.068-1.614-0.333-3.223-0.508-4.833c-0.35,0.611-0.437,1.223-0.465,1.836c-0.406,8.987-0.834,17.973-1.201,26.961
				c-0.624,15.267-1.229,30.536-1.783,45.806c-0.058,1.571-0.408,2.879-1.366,4.148c-2.165,2.865-2.785,6.059-1.54,9.502
				c0.33,0.916,0.317,1.805,0.125,2.733c-0.562,2.728-1.175,5.447-1.629,8.193c-2.276,13.778-6.832,27.159-7.218,41.267
				c-0.029,1.035-0.622,1.34-1.534,1.339c-1.715-0.003-3.433,0.072-5.145-0.003c-1.595-0.069-2.109,0.684-2.188,2.173
				c-0.085,1.605,0.732,3.585-0.518,4.728c-1.209,1.105-3.157,0.379-4.774,0.415c-1.471,0.031-2.057,0.635-2.034,2.073
				c0.041,2.5,0.018,5.002-0.005,7.502c-0.008,0.765,0.131,1.705-0.905,1.931c-1.374,0.299-1.304,1.313-1.305,2.322
				c-0.005,4.646-0.005,9.29-0.005,13.935c-0.001,5.03,0.002,5.069-4.891,5.343c-1.445,0.081-2.078,0.621-1.998,2.087
				c0.068,1.281,0.011,2.571,0.011,3.856c0,10.718,0.009,21.438-0.02,32.155c-0.002,0.853,0.411,2.333-0.788,2.348
				c-3.01,0.035-2.523,2.031-2.523,3.837c-0.004,28.082-0.002,56.165-0.004,84.247c0,3.09-0.009,3.1-3.093,3.103
				c-9.075,0.005-18.149,0.056-27.225-0.036c-2.168-0.021-2.907,0.701-2.796,2.856c0.156,2.992-0.036,6.002,0.067,9
				c0.058,1.711-0.596,2.282-2.253,2.191c-1.995-0.106-4.001-0.03-6.001-0.022c-2.807,0.011-2.867,0.058-2.868,2.895
				c-0.008,11.648,0.006,23.294-0.006,34.943c-0.005,4.746,0.463,4.318-4.43,4.324c-12.221,0.012-24.439,0.002-36.658,0.004
				c-3.519,0.002-3.52,0.01-3.523,3.607c-0.002,2.717,0.002,5.432,0,8.146c-0.005,3.102-0.007,3.105-3.008,3.109
				c-4.86,0.006-9.719-0.008-14.577,0.008c-3.012,0.01-5.394,2.328-5.462,5.342c-0.052,2.213-0.017,4.43-0.031,6.645
				c-0.007,0.822-0.114,1.76-1.17,1.688c-2.375-0.166-2.474,1.271-2.406,3.012c0.035,0.865,0.281,2.207-1.104,2.1
				c-2.806-0.217-2.669,1.521-2.664,3.416c0.028,11.074-0.017,22.15,0.044,33.225c0.01,1.805-0.464,2.578-2.409,2.525
				c-4.212-0.119-8.433-0.121-12.646,0.002c-1.927,0.055-2.431-0.648-2.408-2.486c0.086-7.289,0.034-14.578,0.034-21.865
				c0-5.061,0.001-5.115-5.081-5.168c-1.641-0.02-2.314-0.525-2.258-2.23c0.097-2.928-0.001-5.859,0.024-8.789
				c0.012-1.225-0.473-1.992-1.742-1.855c-2.215,0.236-2.542-0.889-2.535-2.799c0.06-17.148,0.034-34.299,0.033-51.448
				c0-0.715-0.026-1.428-0.018-2.142c0.013-0.928-0.351-1.558-1.348-1.542c-1.491,0.024-1.733-0.849-1.72-2.088
				c0.033-3.5-0.02-7.002,0.018-10.504c0.014-1.392-0.435-2.228-1.967-2.068c-1.628,0.168-1.879-0.761-1.851-2.107
				c0.056-2.715-0.036-5.432,0.031-8.146c0.036-1.485-0.382-2.367-2.038-2.184c-1.524,0.169-2.041-0.606-1.987-2.025
				c0.036-0.94-0.286-1.846-1.411-1.715c-2.584,0.304-3.052-1.078-2.78-3.192c0.249-1.922-0.717-2.523-2.513-2.438
				c-1.924,0.094-3.864,0.123-5.784-0.006c-2.06-0.138-3.149,0.495-2.94,2.738c0.079,0.853,0.02,1.96-1.176,1.883
				c-2.618-0.17-2.482,1.549-2.363,3.232c0.117,1.655-0.322,2.652-2.222,2.398c-1.863-0.249-2.54,0.59-2.489,2.451
				c0.099,3.569,0.007,7.145,0.033,10.717c0.007,1.177-0.308,1.98-1.664,1.912c-1.545-0.078-1.957,0.783-1.895,2.153
				c0.061,1.284-0.086,2.585,0.051,3.856c0.249,2.327-0.41,4.205-2.308,5.626c-1.262,0.945-1.56,2.245-1.54,3.779
				c0.064,5.001-0.026,10.005,0.049,15.005c0.026,1.68-0.58,2.328-2.244,2.252c-1.854-0.084-3.719,0.07-5.57-0.037
				c-1.976-0.113-2.654,0.688-2.565,2.639c0.067,1.443,0.612,3.154-0.619,4.307c-1.379,1.295-1.519,2.797-1.465,4.482
				c0.05,1.57-0.03,3.145,0.014,4.717c0.036,1.244-0.452,1.779-1.741,1.854c-1.752,0.102-3.965-0.82-5.138,0.559
				c-1.173,1.377-0.421,3.582-0.401,5.414c0.019,1.652-0.657,2.084-2.18,2.047c-3.213-0.08-6.433-0.09-9.646,0.004
				c-1.585,0.045-2.115-0.521-2.14-2.096c-0.048-3.072-0.795-6.072-3.029-8.248c-1.525-1.486-1.824-3.033-1.813-4.963
				c0.034-5.795,0.52-5.133-5.166-5.156c-6.007-0.025-6.052-0.006-6.012,5.961c0.01,1.641-0.41,2.709-1.871,3.699
				c-4.175,2.824-4.878,6.277-2.503,10.758c0.187,0.354,0.576,0.678,0.304,1.158c-2.825,0.389-2.831,0.389-2.834,3.25
				c-0.005,4.645,0.065,9.289-0.018,13.934c-0.122,6.826,1.396,5.76-6.287,5.873c-1.454,0.021-2.063-0.518-2.024-2.016
				c0.072-2.783-0.038-5.572,0.036-8.357c0.039-1.486-0.574-2.064-2.007-2.061c-7.073,0.02-14.149,0.02-21.223,0
				c-1.45-0.004-2.016,0.611-1.983,2.08c0.07,3.285-0.098,6.58,0.062,9.859c0.099,2.049-0.679,2.736-2.591,2.479
				c-0.352-0.047-0.721-0.047-1.07,0.002c-1.979,0.289-2.584-0.539-2.547-2.518c0.115-6.145,0.046-12.291,0.042-18.436
				c-0.003-3.027-0.011-3.027-3.13-3.039c-1.002-0.002-2.007-0.07-3.002,0.014c-1.626,0.139-2.133-0.602-2.074-2.145
				c0.085-2.211-0.009-4.428,0.021-6.643c0.017-1.23-0.477-1.973-1.749-1.852c-1.853,0.176-2.062-0.816-2.058-2.346
				c0.038-12.717-0.015-25.438,0.045-38.155c0.008-1.753-0.483-2.382-2.283-2.379c-27.367,0.04-54.735,0.04-82.104,0.003
				c-1.92-0.003-2.629,0.614-2.598,2.606c0.104,6.571,0.039,13.147,0.037,19.721c-0.001,2.994-0.005,3.006-2.934,3.006
				c-12.005,0.006-24.01-0.002-36.014,0.006C2.27,573.71,1.108,573.568,0.036,574.117z"/>
			<path fill-rule="evenodd" clip-rule="evenodd" d="M0.036,574.117c1.072-0.549,2.234-0.406,3.369-0.408
				c12.004-0.008,24.009,0,36.014-0.006c2.929,0,2.933-0.012,2.934-3.006c0.002-6.574,0.066-13.15-0.037-19.721
				c-0.031-1.992,0.678-2.609,2.598-2.606c27.368,0.037,54.736,0.037,82.104-0.003c1.8-0.003,2.291,0.626,2.283,2.379
				c-0.06,12.717-0.007,25.438-0.045,38.155c-0.004,1.529,0.205,2.521,2.058,2.346c1.272-0.121,1.766,0.621,1.749,1.852
				c-0.03,2.215,0.063,4.432-0.021,6.643c-0.059,1.543,0.448,2.283,2.074,2.145c0.995-0.084,2-0.016,3.002-0.014
				c3.119,0.012,3.127,0.012,3.13,3.039c0.004,6.145,0.073,12.291-0.042,18.436c-0.037,1.979,0.567,2.807,2.547,2.518
				c0.35-0.049,0.719-0.049,1.07-0.002c1.912,0.258,2.689-0.43,2.591-2.479c-0.159-3.279,0.009-6.574-0.062-9.859
				c-0.032-1.469,0.533-2.084,1.983-2.08c7.073,0.02,14.149,0.02,21.223,0c1.433-0.004,2.046,0.574,2.007,2.061
				c-0.074,2.785,0.036,5.574-0.036,8.357c-0.038,1.498,0.57,2.037,2.024,2.016c7.684-0.113,6.165,0.953,6.287-5.873
				c0.083-4.645,0.013-9.289,0.018-13.934c0.003-2.861,0.009-2.861,2.834-3.25c0.272-0.48-0.117-0.805-0.304-1.158
				c-2.375-4.48-1.672-7.934,2.503-10.758c1.461-0.99,1.881-2.059,1.871-3.699c-0.04-5.967,0.005-5.986,6.012-5.961
				c5.686,0.023,5.2-0.639,5.166,5.156c-0.012,1.93,0.287,3.477,1.813,4.963c2.234,2.176,2.981,5.176,3.029,8.248
				c0.024,1.574,0.555,2.141,2.14,2.096c3.213-0.094,6.433-0.084,9.646-0.004c1.522,0.037,2.198-0.395,2.18-2.047
				c-0.02-1.832-0.771-4.037,0.401-5.414c1.173-1.379,3.386-0.457,5.138-0.559c1.289-0.074,1.777-0.609,1.741-1.854
				c-0.044-1.572,0.036-3.146-0.014-4.717c-0.054-1.686,0.086-3.188,1.465-4.482c1.231-1.152,0.687-2.863,0.619-4.307
				c-0.089-1.951,0.59-2.752,2.565-2.639c1.852,0.107,3.717-0.047,5.57,0.037c1.664,0.076,2.271-0.572,2.244-2.252
				c-0.075-5,0.016-10.004-0.049-15.005c-0.02-1.534,0.278-2.834,1.54-3.779c1.897-1.421,2.557-3.299,2.308-5.626
				c-0.137-1.271,0.01-2.572-0.051-3.856c-0.063-1.37,0.35-2.231,1.895-2.153c1.356,0.068,1.671-0.735,1.664-1.912
				c-0.026-3.572,0.065-7.147-0.033-10.717c-0.051-1.861,0.626-2.7,2.489-2.451c1.899,0.254,2.339-0.743,2.222-2.398
				c-0.119-1.684-0.255-3.402,2.363-3.232c1.195,0.077,1.255-1.03,1.176-1.883c-0.209-2.243,0.881-2.876,2.94-2.738
				c1.92,0.129,3.86,0.1,5.784,0.006c1.796-0.086,2.762,0.516,2.513,2.438c-0.271,2.114,0.196,3.496,2.78,3.192
				c1.125-0.131,1.447,0.774,1.411,1.715c-0.054,1.419,0.463,2.194,1.987,2.025c1.656-0.184,2.074,0.698,2.038,2.184
				c-0.067,2.714,0.024,5.431-0.031,8.146c-0.028,1.347,0.223,2.275,1.851,2.107c1.532-0.159,1.98,0.677,1.967,2.068
				c-0.037,3.502,0.016,7.004-0.018,10.504c-0.014,1.239,0.229,2.112,1.72,2.088c0.997-0.016,1.36,0.614,1.348,1.542
				c-0.009,0.714,0.018,1.427,0.018,2.142c0.001,17.149,0.026,34.299-0.033,51.448c-0.007,1.91,0.32,3.035,2.535,2.799
				c1.27-0.137,1.754,0.631,1.742,1.855c-0.025,2.93,0.072,5.861-0.024,8.789c-0.057,1.705,0.617,2.211,2.258,2.23
				c5.082,0.053,5.081,0.107,5.081,5.168c0,7.287,0.052,14.576-0.034,21.865c-0.022,1.838,0.481,2.541,2.408,2.486
				c4.213-0.123,8.434-0.121,12.646-0.002c1.945,0.053,2.419-0.721,2.409-2.525c-0.061-11.074-0.016-22.15-0.044-33.225
				c-0.005-1.895-0.142-3.633,2.664-3.416c1.386,0.107,1.14-1.234,1.104-2.1c-0.067-1.74,0.031-3.178,2.406-3.012
				c1.056,0.072,1.163-0.865,1.17-1.688c0.015-2.215-0.021-4.432,0.031-6.645c0.068-3.014,2.45-5.332,5.462-5.342
				c4.858-0.016,9.717-0.002,14.577-0.008c3.001-0.004,3.003-0.008,3.008-3.109c0.002-2.715-0.002-5.43,0-8.146
				c0.004-3.598,0.005-3.605,3.523-3.607c12.219-0.002,24.438,0.008,36.658-0.004c4.893-0.006,4.425,0.422,4.43-4.324
				c0.012-11.648-0.002-23.294,0.006-34.943c0.001-2.837,0.062-2.884,2.868-2.895c2-0.008,4.006-0.084,6.001,0.022
				c1.657,0.091,2.311-0.48,2.253-2.191c-0.104-2.998,0.089-6.008-0.067-9c-0.111-2.155,0.628-2.878,2.796-2.856
				c9.075,0.092,18.149,0.041,27.225,0.036c3.084-0.003,3.093-0.013,3.093-3.103c0.002-28.082,0-56.165,0.004-84.247
				c0-1.806-0.486-3.802,2.523-3.837c1.199-0.015,0.786-1.495,0.788-2.348c0.028-10.718,0.02-21.438,0.02-32.155
				c0-1.285,0.058-2.575-0.011-3.856c-0.08-1.466,0.553-2.006,1.998-2.087c4.893-0.273,4.89-0.313,4.891-5.343
				c0-4.645,0-9.289,0.005-13.935c0.001-1.01-0.069-2.023,1.305-2.322c1.036-0.226,0.897-1.166,0.905-1.931
				c0.022-2.5,0.046-5.002,0.005-7.502c-0.022-1.438,0.563-2.042,2.034-2.073c1.617-0.036,3.565,0.69,4.774-0.415
				c1.25-1.143,0.433-3.122,0.518-4.728c0.079-1.489,0.594-2.242,2.188-2.173c1.712,0.075,3.43,0,5.145,0.003
				c0.912,0.001,1.505-0.304,1.534-1.339c0.386-14.107,4.941-27.488,7.218-41.267c0.454-2.746,1.067-5.466,1.629-8.193
				c0.192-0.929,0.205-1.817-0.125-2.733c-1.245-3.443-0.625-6.637,1.54-9.502c0.958-1.27,1.309-2.577,1.366-4.148
				c0.554-15.27,1.159-30.539,1.783-45.806c0.367-8.988,0.795-17.974,1.201-26.961c0.028-0.613,0.115-1.225,0.465-1.836
				c0.175,1.61,0.439,3.219,0.508,4.833c0.495,11.628,0.918,23.259,1.425,34.887c0.518,11.839,1.107,23.676,1.657,35.513
				c0.034,0.733,0.17,1.395,0.643,1.994c1.808,2.29,2.461,4.941,1.525,7.665c-1.109,3.229-0.513,6.313,0.093,9.461
				c2.46,12.758,4.925,25.515,7.354,38.278c0.319,1.679,0.559,3.392,0.616,5.096c0.053,1.541,0.744,1.969,2.146,1.892
				c1.353-0.076,2.715,0.033,4.07-0.023c1.374-0.061,1.962,0.542,1.944,1.895c-0.026,1.999,0.051,4.002-0.013,6.001
				c-0.045,1.448,0.485,2.112,1.992,2.031c1.426-0.076,2.862,0.065,4.287-0.03c1.786-0.12,2.374,0.651,2.361,2.386
				c-0.055,7.646-0.025,15.292-0.019,22.938c0.003,4.277-0.281,3.763,3.809,3.8c4.435,0.041,3.967-0.405,3.974,4.079
				c0.018,11.718,0.035,23.438-0.024,35.156c-0.009,1.827,0.149,3.122,2.456,2.855c0.976-0.114,1.395,0.538,1.396,1.476
				c0.002,0.857,0.021,1.714,0.021,2.571c0.002,58.88,0.002,117.759,0.002,176.639c0,3.613,0,3.637,3.549,3.607
				c4.937-0.039,4.307,0.617,4.309-4.34c0.016-33.799,0.008-67.598,0.009-101.396c0-3.471,0.004-3.477,3.371-3.477
				c38.872-0.003,77.744-0.002,116.616-0.003c0.287,0,0.576-0.026,0.857,0.007c0.99,0.115,2.367-0.313,2.387,1.365
				c0.021,1.544-1.248,1.264-2.193,1.325c-0.838,0.055-1.59,0.138-1.676,1.215c-0.086,1.075,0.408,1.605,1.473,1.635
				c1.223,0.037,1.553,0.808,1.543,1.868c-0.008,0.716,0.01,1.43,0.01,2.144c0,25.082,0,50.163,0.002,75.243
				c0,2.986,0.006,2.99,2.918,2.994c2.572,0.004,5.146-0.053,7.717,0.016c1.48,0.039,2.061-0.545,2.012-2.02
				c-0.068-2.141,0.033-4.287-0.021-6.43c-0.035-1.387,0.563-1.979,1.916-1.869c0.07,0.006,0.143,0.002,0.215-0.002
				c4.141-0.146,4.191-0.145,4.326-4.318c0.049-1.465,0.6-2.061,2.047-2.041c3.287,0.041,6.574,0.004,9.859,0.027
				c0.49,0.002,1.16-0.021,1.438,0.266c1.861,1.914,4.215,1.414,6.453,1.422c6.074,0.025,12.148,0.064,18.221-0.021
				c1.967-0.029,2.779,0.676,2.559,2.625c-0.072,0.637-0.01,1.287-0.008,1.928c0.002,3.385-0.002,3.439,3.305,3.725
				c1.516,0.131,1.875,0.891,1.863,2.248c-0.041,5.145,0.107,10.293-0.066,15.432c-0.084,2.463,1.246,2.379,2.951,2.404
				c1.777,0.027,2.912-0.074,2.898-2.451c-0.096-16.576-0.053-33.156-0.047-49.734c0-3.237,0.008-3.245,3.115-3.246
				c23.652-0.002,47.303-0.002,70.957,0.001c2.941,0,2.941,0.012,2.955,2.96c0.021,4.827,0.021,4.827,4.926,4.827
				c3.5,0,7.01,0.136,10.5-0.05c2.322-0.124,3.123,0.826,3.365,2.984c0.521,4.631,1.492,9.168,3.746,13.324
				c0.637,1.174,1.232,2.396,2.453,3.162c0.746-0.713,0.441-1.549,0.443-2.283c0.029-8.002,0.018-16.006,0.025-24.008
				c0.002-1.274-0.219-2.566,1.768-2.766c1.248-0.124,0.875-1.463,0.879-2.325c0.029-7.359,0.016-14.72,0.02-22.08
				c0.002-1.268-0.199-2.541,1.547-3.078c0.885-0.272,0.779-1.468,0.834-2.288c0.947-13.953,4.809-27.083,11.098-39.534
				c0.361-0.715,0.514-1.462,0.553-2.265c0.592-12.335,1.193-24.673,1.814-37.006c0.162-3.19,0.398-6.375,0.604-9.595
				c0.951,0.113,0.719,0.749,0.738,1.154c0.484,9.554,0.938,19.109,1.412,28.665c0.277,5.562,0.594,11.119,0.857,16.681
				c0.049,1.054,0.518,1.917,0.957,2.81c5.961,12.116,9.646,24.86,10.652,38.355c0.09,1.241,0.055,2.519,1.709,3.086
				c1.027,0.351,0.691,1.612,0.695,2.506c0.02,7.288,0.012,14.577,0.01,21.867c0,1.359-0.207,2.683,1.842,2.947
				c1.186,0.152,0.811,1.511,0.814,2.378c0.027,7.859,0.01,15.72,0.025,23.58c0.002,1.445-0.303,2.902,1.182,4.064
				c0.754,0.588,0.387,1.898,0.387,2.887c0.008,20.508-0.002,41.018,0.031,61.523c0.002,1.152-0.613,2.74,0.65,3.357
				c1.465,0.719,3.234,0.396,4.85,0.15c0.916-0.143,0.783-1.074,0.787-1.771c0.012-3.432,0.008-6.861,0.008-10.289
				c0-15.508-0.002-31.014,0-46.52c0-2.898,0.059-2.965,3.025-2.967c23.938-0.004,47.877-0.002,71.814-0.004
				c1.525,0,2.697-0.078,3.24,2.088c0.418,1.672,2.625,0.625,4.025,0.723c1.09,0.074,1.107-0.9,1.113-1.705
				c0.012-2.072,0.055-4.146-0.002-6.217c-0.041-1.482,0.436-2.369,2.064-2.227c1.49,0.129,1.943-0.756,2.221-2.023
				c1.053-4.811,2.221-9.6,3.238-14.418c0.314-1.494,1.074-1.988,2.508-1.986c18.223,0.02,36.443,0.023,54.664-0.01
				c1.535-0.002,2.352,0.609,2.828,2.031c0.656,1.963,1.535,3.854,2.162,5.822c0.467,1.469,1.277,1.986,2.814,1.967
				c6.002-0.074,12.004,0.043,18.006-0.068c2.09-0.039,2.705,0.715,2.695,2.729c-0.064,12.576-0.035,25.152-0.031,37.729
				c0,2.865,0.01,2.871,2.822,2.873c5.43,0.004,10.861,0.066,16.291-0.031c1.91-0.037,2.553,0.666,2.432,2.504
				c-0.115,1.707,0.064,3.434-0.045,5.141c-0.111,1.74,0.486,2.504,2.303,2.389c1.779-0.109,3.572,0.031,5.357-0.031
				c1.574-0.055,2.172,0.637,2.139,2.178c-0.059,2.715,0.041,5.434-0.029,8.146c-0.041,1.584,0.602,2.193,2.158,2.121
				c1.568-0.076,3.141,0.002,4.713-0.02c2.82-0.041,4.521-1.715,4.547-4.492c0.021-2.5,0.055-5.002-0.01-7.502
				c-0.039-1.502,0.447-2.236,2.07-2.223c5.717,0.051,11.434,0.041,17.15,0.004c1.471-0.008,2.07,0.607,2.029,2.055
				c-0.049,1.713,0.039,3.43-0.012,5.143c-0.041,1.357,0.516,1.951,1.889,1.943c5.789-0.025,11.576-0.043,17.363,0.012
				c1.727,0.016,1.959-0.895,1.953-2.307c-0.033-8.361-0.02-16.721-0.012-25.082c0.004-2.799,0.016-2.809,2.889-2.813
				c4.217-0.008,8.434-0.064,12.646,0.025c1.701,0.037,2.248-0.6,2.234-2.25c-0.057-7.002-0.025-14.004-0.02-21.008
				c0.006-3.066,0.111-3.172,3.084-3.18c4.51-0.012,4.27,0.246,3.973-4.059c-0.871-12.607,2.338-24.665,4.59-36.858
				c1.127-6.106,2.367-12.194,3.473-18.306c0.238-1.32,0.109-2.704,0.186-4.058c0.078-1.4-0.533-3.12,1.684-3.556
				c0.439-0.086,0.484-0.67,0.494-1.102c0.096-4.195,0.701-8.353,0.184-12.594c-0.531-4.339,0.355-8.403,4.123-11.326
				c1.014-0.785,1.443-1.818-0.229-2.335c-1.016-0.314-1.125-0.952-1.127-1.772c-0.01-1.857,0.033-3.718-0.021-5.572
				c-0.047-1.479,0.012-2.739,2-2.766c0.928-0.012,1.07-0.797,1.076-1.561c0.012-1.43-0.008-2.859,0.031-4.287
				c0.014-0.533-0.158-1.344,0.602-1.396c0.756-0.055,1.063,0.692,1.104,1.348c0.088,1.354,0.098,2.712,0.092,4.068
				c-0.008,1.078,0.289,1.831,1.547,1.801c1.242-0.03,1.564,0.721,1.555,1.803c-0.02,2.215-0.006,4.429-0.01,6.645
				c0,0.214,0.057,0.522-0.057,0.628c-2.479,2.276-0.135,3.577,0.947,5.243c1.523,2.343,1.867,5.07,1.982,7.8
				c0.082,1.854,0.225,3.743-0.023,5.566c-0.391,2.864,1.32,5.37,1.117,8.183c-0.068,0.972,0.869,0.969,1.59,0.979
				c0.939,0.012,1.783,0.169,1.729,1.366c-0.279,6.079,2.193,11.604,3.584,17.331c2.037,8.396,4.381,16.716,6.639,25.058
				c0.84,3.104,0.395,6.253,0.48,9.383c0.074,2.711,0.078,5.432-0.008,8.145c-0.053,1.596,0.404,2.502,2.152,2.293
				c2.143-0.256,2.623,0.822,2.615,2.779c-0.059,16.148-0.041,32.297-0.01,48.447c0.002,1.006-0.559,2.408,0.605,2.938
				c1.357,0.619,2.988,0.502,4.41,0.066c1.145-0.35,0.689-1.596,0.691-2.457c0.025-13.863,0.018-27.727,0.02-41.588
				c0-1.215,0.059-2.434-0.01-3.645c-0.082-1.504,0.609-1.996,2.047-1.984c5.357,0.041,10.719,0.051,16.076-0.025
				c1.551-0.021,1.971,0.611,1.941,2.037c-0.066,2.928,0.059,5.861-0.049,8.787c-0.064,1.725,0.619,2.215,2.26,2.197
				c6.498-0.064,13.002,0.031,19.504-0.057c1.951-0.027,2.717,0.619,2.619,2.592c-0.121,2.352-0.035,4.715-0.027,7.072
				c0.01,2.787,0.018,2.795,2.918,2.797c10.363,0.004,20.725,0,31.086,0.002c3.275,0.002,3.275,0.008,3.281,3.369
				c0.002,0.715,0.025,1.432-0.002,2.145c-0.08,1.916-0.32,3.826,2.67,3.58c1.133-0.094,1.125,1.104,1.131,1.955
				c0.025,3.213,0.055,6.43,0.008,9.645c-0.02,1.428,0.492,2.213,1.99,2.047c2.127-0.234,2.449,0.936,2.445,2.73
				c-0.041,17.148-0.023,34.299-0.021,51.447c0,3.211,0.002,3.215,3.105,3.215c26.867,0,53.736,0,80.604,0
				c3.191,0,3.154-0.02,3.518-3.125c0.59-5.031,1.189-10.064,1.922-15.078c0.242-1.674,0.447-3.125-1.463-3.77
				c0.119-0.75,0.602-0.705,1.012-0.738c3.346-0.275,4.322-1.225,4.6-4.506c0.074-0.893,0.525-1.635,0.971-2.355
				c1.691-2.725,2.844-5.74,4.826-8.328c1.174-1.537,1.887-3.332,1.795-5.555c-0.072-1.748,1.109-3.441,1.076-5.453
				c-0.023-1.531,1.201-3.07-0.641-4.348c-0.313-0.215-0.152-0.662,0.006-0.994c1.391-2.9,0.693-5.9,0.713-8.922
				c0.014-2.336-0.516-5.457,2.568-6.914c0.295-0.141,0.643-0.475,0.699-0.77c0.74-3.912,2.955-7.572,2.801-11.516
				c-0.07-1.85-0.227-3.492,0.494-5.191c0.17-0.402-0.098-1.25,0.684-1.006c0.811,0.254,1.873-0.932,2.43,0.438
				c0.559,1.373,1.137,2.738,1.621,4.137c0.125,0.359,0.09,1.01-0.145,1.219c-1.756,1.551-1.348,3.885-2.154,5.77
				c-0.248,0.584-0.414,1.137-0.85,1.664c-0.865,1.041-0.242,4.156,0.885,4.707c1.053,0.514,1.387-1.135,2.396-0.924
				c-0.479,1.988-0.479,1.988,2.039,2.023c0.092,0.83-1.004,0.734-1.104,1.443c0.301,0.684,1.273,0.145,1.666,1.004
				c-0.891,0.58-3.418,0.775-0.324,2.889c-2.498-0.539-3.088,0.939-3.682,2.117c-0.551,1.1,0.283,2.072,1.033,2.838
				c1.078,1.102,1.947,2.273,2.145,3.852c0.195,1.561,1.617,1.66,2.67,2.137c3.326,1.512,3.494,3.803,0.654,6.203
				c-1.469,1.244-2.738,2.766-2.521,5.072c0.189,2.045,0.32,4.143-0.334,6.168c-0.133,0.404-0.107,0.969-0.381,1.199
				c-2.656,2.262-1.721,5.557-2.461,8.361c-0.107,0.412-0.072,1.127,0.301,1.146c2.295,0.119,3.336,3.316,6.043,2.4
				c0.488-0.164,1.127-0.088,1.83,0.484c-2.137,0.941-1.557,2.693-1.404,4.283c0.568,5.896,1.086,11.801,1.84,17.674
				c0.209,1.629,0.529,3.486,2.525,4.314c0.938,0.391,0.668,1.5,0.66,2.324c-0.014,1.199,0.391,1.922,1.695,1.896
				c0,17.578,0,35.158,0,52.734c-1.145,0.029-2.287,0.086-3.428,0.086c-469.693,0.002-939.384,0.002-1409.078,0
				c-1.071,0-2.142-0.057-3.213-0.086C0.036,685.304,0.036,629.71,0.036,574.117z"/>
			<path fill-rule="evenodd" clip-rule="evenodd" fill="none" d="M0.036,740.898c1.071,0.029,2.142,0.086,3.213,0.086
				c469.693,0.002,939.384,0.002,1409.078,0c1.141,0,2.283-0.057,3.428-0.086c-0.094,0.133,0.215,0.447-0.217,0.434
				c-0.57-0.018-1.143-0.004-1.713-0.004c-470.621,0-941.24,0-1411.86-0.027C1.337,741.3,0.511,741.796,0.036,740.898z"/>
		</g>
	</g>
</g>
</svg>
