<?xml version="1.0" encoding="UTF-8" standalone="no"?>
<svg width="111px" height="61px" viewBox="0 0 111 61" version="1.1" xmlns="http://www.w3.org/2000/svg" xmlns:xlink="http://www.w3.org/1999/xlink" xmlns:sketch="http://www.bohemiancoding.com/sketch/ns">
    <!-- Generator: Sketch 3.3.3 (12081) - http://www.bohemiancoding.com/sketch -->
    <title>laptop_1-01</title>
    <desc>Created with Sketch.</desc>
    <defs></defs>
    <g id="Page-1" stroke="none" stroke-width="1" fill="none" fill-rule="evenodd" sketch:type="MSPage">
        <g id="laptop_1-01" sketch:type="MSLayerGroup">
            <g id="Group" sketch:type="MSShapeGroup">
                <g>
                    <g>
                        <g transform="translate(14.000000, 1.000000)" id="Shape">
                            <path d="M79.677,50.133 C79.677,51.494 79.355,53.5 77.991,53.5 L3.423,53.5 C2.06,53.5 0.677,51.494 0.677,50.133 L0.677,3.568 C0.677,2.206 2.06,1.5 3.423,1.5 L77.991,1.5 C79.354,1.5 79.677,2.206 79.677,3.568 L79.677,50.133 L79.677,50.133 Z" fill="#B40404"></path>
                            <path d="M81.677,50.109 C81.677,51.982 80.157,53.5 78.284,53.5 L4.07,53.5 C2.196,53.5 0.677,51.982 0.677,50.109 L0.677,3.891 C0.677,2.018 2.196,0.5 4.07,0.5 L78.285,0.5 C80.158,0.5 81.678,2.018 81.678,3.891 L81.678,50.109 L81.677,50.109 Z M78.677,3.936 C78.677,3.036 77.902,2.5 77.005,2.5 L5.493,2.5 C4.596,2.5 3.678,3.035 3.678,3.936 L3.678,48.329 C3.678,49.227 4.596,50.501 5.493,50.501 L77.006,50.501 C77.902,50.501 78.678,49.228 78.678,48.329 L78.678,3.936 L78.677,3.936 Z" fill="#000000"></path>
                        </g>
                        <path d="M56.22,53.5 L0.677,53.5 L0.677,56.146 C0.677,58.308 3.589,60.5 6.101,60.5 L56.22,60.5 L106.339,60.5 C108.851,60.5 110.677,58.308 110.677,56.146 L110.677,53.5 L56.22,53.5 L56.22,53.5 Z" id="Shape" fill="#000000"></path>
                        <circle id="Oval" opacity="0.3" fill="#FFFFFF" cx="55.035" cy="1.71" r="0.852"></circle>
                        <path d="M55.22,53.5 L37.677,53.5 L37.677,53.709 C37.677,54.369 39.134,55.5 39.902,55.5 L55.22,55.5 L70.538,55.5 C71.306,55.5 70.677,54.369 70.677,53.709 L70.677,53.5 L55.22,53.5 L55.22,53.5 Z" id="Shape" opacity="0.3" fill="#FFFFFF"></path>
                    </g>
                </g>
            </g>
        </g>
    </g>
</svg>