<?xml version="1.0" encoding="utf-8"?>
<!-- Generator: Adobe Illustrator 16.0.0, SVG Export Plug-In . SVG Version: 6.00 Build 0)  -->
<!DOCTYPE svg PUBLIC "-//W3C//DTD SVG 1.1//EN" "http://www.w3.org/Graphics/SVG/1.1/DTD/svg11.dtd">
<svg version="1.1" id="Capa_1" xmlns="http://www.w3.org/2000/svg" xmlns:xlink="http://www.w3.org/1999/xlink" x="0px" y="0px"
	 width="996px" height="821.875px" viewBox="0 0 996 821.875" enable-background="new 0 0 996 821.875" xml:space="preserve">
<rect x="-962.865" y="48.854" fill="#0085AC" width="773.208" height="597.75"/>
<path fill="#D3D3D3" d="M495.069,816.875h149.309c1.945-7.448-30.314-11.387-34.289-18.928
	c-14.54-27.584-22.007-122.769-22.007-122.769h-93.013h0.001h-93.013c0,0-7.467,95.185-22.007,122.769
	c-3.975,7.541-36.234,11.479-34.289,18.928H495.069L495.069,816.875z"/>
<path opacity="0.3" fill="#1D1D1B" d="M349.67,810.745c-2.786,1.847-4.512,3.819-3.908,6.13H495.07h-0.001h149.309
	c0.678-2.597-1.586-4.767-4.991-6.812"/>
<path opacity="0.3" fill="#1D1D1B" d="M495.07,675.179"/>
<polygon opacity="0.3" fill="#1D1D1B" points="396.849,723.659 402.058,675.179 495.07,675.179 588.082,675.179 593.291,723.659 "/>
<g>
	<path fill="#1D1D1B" d="M957.686,634.394H32.451c-11.293,0-20.452-9.156-20.452-20.453V20.453C11.999,9.156,21.158,0,32.451,0
		h925.234c11.296,0,20.452,9.156,20.452,20.453V613.94C978.138,625.237,968.981,634.394,957.686,634.394z M43.887,561.209h902.367
		v-531H43.887V561.209z"/>
</g>
<g>
	<path fill="#FFFFFF" d="M978.138,601.769v82.175c0,11.297-9.156,20.453-20.452,20.453H32.451c-11.293,0-20.452-9.156-20.452-20.453
		v-82.175"/>
	<g>
		<path opacity="0.3" fill="#1D1D1B" d="M978.138,683.943c0,11.297-9.156,20.453-20.452,20.453H32.451
			c-11.293,0-20.452-9.156-20.452-20.453"/>
	</g>
</g>
<path fill="#1D1D1B" d="M512.005,643.13c2.872-9.351-2.394-19.26-11.691-22.112c-9.509-2.919-19.303,2.367-22.171,11.716
	c-1.436,4.675-0.871,9.479,1.252,13.482c1.777,3.345,4.608,6.125,8.221,7.783c-0.094,0.086-0.186,0.177-0.267,0.275
	c-0.415,0.49-0.726,1.068-0.931,1.729l-3.747,12.239c-0.443,1.569,0.492,3.104,2.007,3.569c1.513,0.466,3.066-0.306,3.574-1.857
	l3.779-12.229c0.202-0.662,0.258-1.317,0.189-1.954c-0.016-0.129-0.038-0.254-0.064-0.378c3.925,0.652,7.854-0.051,11.197-1.822
	C507.359,651.448,510.573,647.802,512.005,643.13z M508.806,637.871c0,7.793-6.175,14.111-13.792,14.111
	c-7.616,0-13.791-6.318-13.791-14.111c0-7.795,6.175-14.113,13.791-14.113C502.631,623.758,508.806,630.076,508.806,637.871z"/>
</svg>
