<?xml version="1.0" encoding="utf-8"?>
<!-- Generator: Adobe Illustrator 16.0.0, SVG Export Plug-In . SVG Version: 6.00 Build 0)  -->
<!DOCTYPE svg PUBLIC "-//W3C//DTD SVG 1.1//EN" "http://www.w3.org/Graphics/SVG/1.1/DTD/svg11.dtd">
<svg version="1.1" id="Capa_1" xmlns="http://www.w3.org/2000/svg" xmlns:xlink="http://www.w3.org/1999/xlink" x="0px" y="0px"
	 width="396px" height="220px" viewBox="0 0 396 220" enable-background="new 0 0 396 220" xml:space="preserve">
<rect x="0.009" fill="#78D8FA" width="396" height="220"/>
<circle fill="#FFFFFF" cx="164.859" cy="147.19" r="4.312"/>
<circle opacity="0.5" fill="#FFFFFF" cx="166.629" cy="160.362" r="2.825"/>
<circle opacity="0.2" fill="#FFFFFF" cx="167.51" cy="160.614" r="0.95"/>
<circle opacity="0.2" fill="#FFFFFF" cx="157.715" cy="157.661" r="1.576"/>
<circle opacity="0.2" fill="#FFFFFF" cx="139.104" cy="152.764" r="1.576"/>
<circle opacity="0.2" fill="#FFFFFF" cx="144.491" cy="145.417" r="1.576"/>
<circle fill="#FFFFFF" cx="273.015" cy="171.331" r="6.915"/>
<circle opacity="0.5" fill="#FFFFFF" cx="263.104" cy="182.832" r="4.531"/>
<circle opacity="0.2" fill="#FFFFFF" cx="251.339" cy="174.77" r="1.524"/>
<circle fill="#FFFFFF" cx="301.855" cy="28.686" r="6.915"/>
<circle opacity="0.5" fill="#FFFFFF" cx="308.813" cy="42.179" r="4.53"/>
<circle opacity="0.5" fill="#FFFFFF" cx="167.268" cy="34.343" r="4.53"/>
<circle opacity="0.2" fill="#FFFFFF" cx="296.935" cy="50.074" r="1.523"/>
<circle opacity="0.2" fill="#FFFFFF" cx="295.844" cy="42.265" r="2.138"/>
<circle opacity="0.2" fill="#FFFFFF" cx="171.932" cy="48.142" r="2.138"/>
<circle opacity="0.5" fill="#FFFFFF" cx="178.298" cy="38.347" r="2.138"/>
<circle opacity="0.2" fill="#FFFFFF" cx="162.135" cy="53.53" r="2.138"/>
<g>
	<path fill="#34495E" d="M332.254,87.5h-17.116c-0.059,0-0.108-0.513-0.108-0.572c0-1.905,0.603-3.948,1.74-5.467
		c1.1-1.471,2.665-2.688,4.405-3.216c0.029-0.009,0.062-0.064,0.087-0.047c0.695,0.425,1.514,0.612,2.434,0.612
		c0.892,0,1.733-0.242,2.434-0.67c0.026-0.016,0.058-0.027,0.088-0.018c1.738,0.528,3.305,1.627,4.404,3.104
		c1.139,1.522,1.739,3.798,1.739,5.705C332.36,86.989,332.313,87.5,332.254,87.5z"/>
	<circle fill="#34495E" cx="323.695" cy="74.087" r="4.269"/>
	<g>
		<polygon fill="#78D8FA" points="323.648,80.673 324.102,80.673 324.557,79.204 323.648,79.204 322.74,79.204 323.194,80.673 		"/>
		<polygon fill="#78D8FA" points="323.648,87.5 324.557,87.5 324.013,81.5 323.648,81.5 323.284,81.5 322.74,87.5 		"/>
	</g>
</g>
<g>
	<path fill="#34495E" d="M254.881,117.5h-60.002c-0.209,0-0.377-1.064-0.377-1.272c0-6.682,2.107-13.476,6.095-18.803
		c3.859-5.155,9.346-9.237,15.445-11.09c0.104-0.031,0.216-0.129,0.309-0.072c2.435,1.491,5.304,2.191,8.53,2.191
		c3.125,0,6.076-0.822,8.53-2.326c0.092-0.058,0.204-0.085,0.308-0.054c6.095,1.852,11.582,5.713,15.445,10.887
		c3.986,5.338,6.095,12.585,6.095,19.271C255.258,116.438,255.09,117.5,254.881,117.5z"/>
	<path opacity="0.1" d="M224.908,112.5c-21.574,0-29.888-2.646-29.888-2.646c-0.351,1.874-0.527,4.531-0.527,6.47
		c0,0.209,0.169,1.177,0.378,1.177h29.991h30.019c0.209,0,0.377-1.064,0.377-1.272c0-1.938-0.179-4.081-0.528-5.957
		c0,0-8.339,2.229-29.867,2.229H224.908z"/>
	<circle fill="#34495E" cx="224.879" cy="71.945" r="14.969"/>
</g>
<path fill="#FFFFFF" d="M176.488,128.226c4.235,5.519,9.445,10.384,15.552,14.291c-0.347,0.264-0.719,0.532-1.051,0.834
	c-1.667,1.489-3.026,3.91-4.039,6.104L172.12,188.5h22.411l10.974-30.395c1.021-2.185,1.537-4.712,1.606-6.948
	c0.01-0.449-0.012-1.047-0.037-1.482c13.243,4.143,27.158,3.539,39.571-0.976c14.861-5.407,27.713-16.493,34.921-31.958
	c14.427-30.923,1.003-67.725-29.745-82.059c-31.462-14.672-67.855-1.127-82.276,29.798c-1.611,3.458-2.875,6.983-3.814,10.545
	c-7.322-6.214-17.243-10.011-27.093-10.011c-20.218,0-36.663,16.445-36.663,36.662c0,20.22,16.445,36.667,36.663,36.667
	c13.6,0,25.288-7.786,32.169-18.993c1.461,2.776,3.129,5.448,5.006,7.987 M138.638,126.479c-13.677,0-24.807-11.127-24.807-24.806
	c0-13.676,11.13-24.802,24.807-24.802c13.677,0,24.809,11.126,24.809,24.802C163.446,115.353,152.315,126.479,138.638,126.479z
	 M180.649,102.518c-2.58-10.296-1.445-21.316,3.068-31.001c5.17-11.085,14.611-19.616,26.102-23.802
	c11.479-4.178,24.024-3.717,35.203,1.488c10.471,4.893,19.362,14.236,23.541,25.719c4.18,11.493,3.579,23.879-1.586,34.958
	c-5.165,11.089-14.741,20.269-26.226,24.448c-11.49,4.182-24.165,4.498-35.253-0.668l-0.052-0.026
	c-11.087-5.17-19.265-15.228-23.45-26.716c-0.357-0.979-0.664-1.969-0.949-2.965"/>
<g>
	<g>
		<path fill="#34495E" d="M151.303,112.5h-27.012c-3.197,0-6-3-6-5h2.92c0,1,1.468,2,3.08,2h27.012c1.579,0,2.197-1.986,2.197-3.566
			v-6.571c0-1.624-0.573-1.863-2.197-1.863H136.5v-2h14.803c3.224,0,4.197,0.64,4.197,3.863v6.571
			C155.5,108.984,154.731,112.5,151.303,112.5z"/>
	</g>
	<g>
		<g>
			<polygon fill="#34495E" points="138.5,103.757 123.622,95.167 138.5,86.575 			"/>
		</g>
	</g>
</g>
<circle fill="none" stroke="#FFFFFF" stroke-width="3.9182" stroke-miterlimit="10" cx="141.566" cy="42.284" r="14.449"/>
<path fill="#34495E" d="M136.949,50.029c-0.22,0-0.525-0.056-0.721-0.168c-0.395-0.227-0.728-0.648-0.728-1.104V35.677
	c0-0.456,0.333-0.877,0.728-1.104c0.396-0.227,0.925-0.225,1.319,0.004l11.215,6.542c0.392,0.228,0.641,0.646,0.641,1.098
	c0,0.453-0.235,0.87-0.625,1.098l-11.19,6.541C137.389,49.972,137.17,50.029,136.949,50.029z"/>
<circle fill="none" stroke="#FFFFFF" stroke-width="2.9386" stroke-miterlimit="10" cx="323.682" cy="79.448" r="14.448"/>
<path fill="none" stroke="#74BD28" stroke-width="0.5228" stroke-miterlimit="10" d="M151.313,90.344"/>
<g>
	<g>
		
			<path fill="none" stroke="#FFFFFF" stroke-width="3.9182" stroke-linecap="round" stroke-miterlimit="10" stroke-dasharray="8.8159,8.8159" d="
			M224.88,16.777c40.629,0,73.566,32.937,73.566,73.566c0,40.631-32.938,73.566-73.566,73.566"/>
		<g>
			<polygon fill="#FFFFFF" points="227.5,24.592 213.967,16.777 227.5,8.962 			"/>
		</g>
	</g>
</g>
<g>
	<path fill="#FFFFFF" d="M97.474,64.956c-0.001-0.311,0.142-0.523,0.385-0.682l7.005-4.497c0.123-0.081,0.26-0.103,0.399-0.104
		c0.137,0,0.373,0.047,0.495,0.123c0.249,0.155,0.502,0.454,0.503,0.767l0.018,4.204L97.474,64.956z"/>
	<path fill="#FFFFFF" d="M87.84,64.849c0,0,0.144-0.449,0.388-0.607l7.004-4.46c0.125-0.081,0.261-0.083,0.4-0.084
		c0.138,0,0.355,0.057,0.478,0.133c0.25,0.155,0.484,0.463,0.485,0.777l0.02,4.204L87.84,64.849z"/>
</g>
<g>
	<path fill="#FFFFFF" d="M188.572,20.877c-0.001-0.311,0.142-0.524,0.387-0.683l7.003-4.497c0.125-0.081,0.261-0.103,0.401-0.103
		c0.137-0.001,0.372,0.046,0.494,0.123c0.249,0.154,0.502,0.453,0.503,0.767l0.02,4.203L188.572,20.877z"/>
	<path fill="#FFFFFF" d="M178.938,20.77c0,0,0.144-0.449,0.388-0.608l7.004-4.459c0.125-0.082,0.262-0.084,0.401-0.084
		c0.137-0.001,0.353,0.056,0.478,0.132c0.247,0.155,0.483,0.463,0.485,0.777l0.018,4.203L178.938,20.77z"/>
</g>
<g>
	<path fill="#FFFFFF" d="M73.497,96.034c-0.002-0.5,0.227-0.842,0.621-1.098L85.386,87.7c0.199-0.131,0.419-0.165,0.644-0.166
		c0.22,0,0.598,0.075,0.795,0.198c0.401,0.249,0.807,0.729,0.81,1.233l0.03,6.764L73.497,96.034z"/>
	<path fill="#FFFFFF" d="M57.997,95.861c0,0,0.233-0.722,0.625-0.977l11.27-7.176c0.199-0.131,0.419-0.135,0.644-0.136
		c0.221-0.001,0.57,0.091,0.77,0.214c0.4,0.25,0.777,0.746,0.779,1.25l0.03,6.763L57.997,95.861z"/>
</g>
<g>
	<path fill="#FFFFFF" d="M85.63,123.253c-0.001-0.417,0.191-0.702,0.519-0.915l9.408-6.041c0.166-0.109,0.35-0.138,0.537-0.138
		c0.184,0,0.5,0.063,0.664,0.165c0.334,0.207,0.674,0.608,0.676,1.029l0.024,5.647L85.63,123.253z"/>
	<path fill="#FFFFFF" d="M72.692,123.109c0,0,0.193-0.604,0.521-0.816l9.408-5.99c0.167-0.108,0.35-0.112,0.538-0.112
		c0.184-0.002,0.476,0.076,0.642,0.179c0.334,0.208,0.648,0.621,0.651,1.044l0.025,5.645L72.692,123.109z"/>
</g>
</svg>
