<?xml version="1.0" encoding="utf-8"?>
<!-- Generator: Adobe Illustrator 16.0.0, SVG Export Plug-In . SVG Version: 6.00 Build 0)  -->
<!DOCTYPE svg PUBLIC "-//W3C//DTD SVG 1.1//EN" "http://www.w3.org/Graphics/SVG/1.1/DTD/svg11.dtd">
<svg version="1.1" id="Capa_1" xmlns="http://www.w3.org/2000/svg" xmlns:xlink="http://www.w3.org/1999/xlink" x="0px" y="0px"
	 width="396px" height="549px" viewBox="0 0 396 549" enable-background="new 0 0 396 549" xml:space="preserve">
<rect fill="#FF6860" width="396" height="549"/>
<circle fill="#FFFFFF" cx="298.658" cy="320.519" r="43.981"/>
<circle fill="#FFFFFF" cx="104.941" cy="321.46" r="58.324"/>
<g>
	<path fill="#BDC3C7" d="M325.814,342.16h-54.313c-0.188,0-0.343-0.258-0.343-0.449c0-6.048,1.908-11.844,5.518-16.668
		c3.493-4.667,8.46-8.185,13.98-9.861c0.095-0.031,0.194-0.028,0.278,0.022c2.206,1.351,4.803,2.027,7.724,2.027
		c2.828,0,5.5-0.722,7.722-2.084c0.085-0.05,0.184-0.064,0.276-0.036c5.521,1.674,10.484,5.178,13.983,9.861
		c3.608,4.83,5.517,10.69,5.517,16.738C326.156,341.902,326.003,342.16,325.814,342.16z"/>
	<circle fill="#BDC3C7" cx="298.658" cy="302.317" r="13.55"/>
</g>
<circle fill="#FFFFFF" cx="205.322" cy="160.214" r="86.605"/>
<g>
	<path fill="#7F8C8D" d="M142.092,353.661H67.788c-0.258,0-0.467,0.018-0.467-0.238c0-8.275,2.609-16.02,7.547-22.615
		c4.781-6.385,11.574-11.108,19.128-13.399c0.128-0.039,0.268,0.009,0.38,0.079c3.014,1.848,6.568,2.796,10.563,2.796
		c3.871,0,7.523-0.974,10.564-2.841c0.115-0.067,0.253-0.085,0.381-0.043c7.55,2.295,14.344,7.085,19.127,13.492
		c4.938,6.613,7.548,14.254,7.548,22.531C142.559,353.679,142.351,353.661,142.092,353.661z"/>
	<circle fill="#7F8C8D" cx="104.941" cy="299.902" r="18.537"/>
</g>
<polygon fill="#FFFFFF" stroke="#FFFFFF" stroke-width="1.291" stroke-miterlimit="10" points="299.279,363.211 328.328,387.741 
	315.827,352.884 "/>
<polygon fill="#FFFFFF" stroke="#FFFFFF" stroke-width="1.291" stroke-miterlimit="10" points="96.369,376.136 67.321,400.666 
	79.82,365.806 "/>
<line fill="none" stroke="#FFFFFF" stroke-width="5.1642" stroke-miterlimit="10" x1="157.261" y1="329.646" x2="193.256" y2="302.381"/>
<line fill="none" stroke="#FFFFFF" stroke-width="5.1642" stroke-miterlimit="10" x1="218.173" y1="302.381" x2="262.528" y2="336.28"/>
<line fill="none" stroke="#FFFFFF" stroke-width="5.7506" stroke-miterlimit="10" x1="205.149" y1="278.625" x2="205.149" y2="237.21"/>
<path fill="#FFFFFF" d="M225.815,295.094c0.211-11.477-8.94-20.947-20.35-21.154c-11.671-0.215-21.009,8.92-21.218,20.399
	c-0.103,5.732,2.091,10.97,5.784,14.8c3.085,3.195,7.177,5.416,11.792,6.109c-0.076,0.136-0.153,0.265-0.211,0.404
	c-0.309,0.683-0.474,1.439-0.49,2.249l-0.266,15.025c0.009,1.911,1.563,3.344,3.419,3.377c1.858,0.034,3.361-1.339,3.433-3.254
	l0.302-15.021c0.012-0.813-0.136-1.572-0.42-2.268c-0.059-0.141-0.125-0.271-0.194-0.407c4.639-0.529,8.842-2.597,12.041-5.678
	C223.266,305.982,225.711,300.83,225.815,295.094z M217.232,291.139c1.994,6.941-1.895,14.149-8.678,16.102
	c-6.788,1.945-13.908-2.105-15.902-9.046c-1.994-6.946,1.892-14.155,8.679-16.107C208.118,280.143,215.236,284.191,217.232,291.139z
	"/>
<g>
	<path fill="#34495E" d="M255.303,211.246H155.008c-0.348,0-0.631-0.87-0.631-1.216c0-11.173,3.52-41.393,10.188-50.298
		c6.452-8.618,15.621-15.213,25.817-18.31c0.172-0.054,0.361-0.102,0.515-0.006c4.067,2.491,8.866,3.722,14.259,3.722
		c5.225,0,10.155-1.347,14.257-3.861c0.155-0.094,0.344-0.127,0.513-0.075c10.19,3.094,19.362,9.555,25.818,18.206
		c6.665,8.923,10.187,39.449,10.187,50.624C255.934,210.376,255.649,211.246,255.303,211.246z"/>
	<path opacity="0.1" enable-background="new    " d="M205.201,203.799c-36.06,0-49.954-3.968-49.954-3.968
		c-0.586,3.129-0.884,6.889-0.884,10.127c0,0.35,0.282,1.287,0.633,1.287h50.134h50.175c0.348,0,0.63-0.87,0.63-1.216
		c0-3.242-0.295-6.827-0.881-9.958c0,0-13.938,3.728-49.922,3.728H205.201z"/>
	<circle fill="#34495E" cx="205.155" cy="115.668" r="25.022"/>
	<g>
		<polygon fill="#FFFFFF" points="204.877,154.144 207.538,154.144 210.201,146.696 204.877,146.696 199.559,146.696 
			202.219,154.144 		"/>
		<polygon fill="#FFFFFF" points="204.877,212.485 210.201,212.485 207.006,159.11 204.877,159.11 202.751,159.11 199.559,212.485 
					"/>
	</g>
	<circle fill="none" stroke="#FFFFFF" stroke-width="2.8984" stroke-miterlimit="10" cx="193.562" cy="115.668" r="8.001"/>
	<circle fill="none" stroke="#FFFFFF" stroke-width="2.8984" stroke-miterlimit="10" cx="216.749" cy="115.668" r="8.001"/>
	
		<line fill="none" stroke="#FFFFFF" stroke-width="2.8984" stroke-miterlimit="10" x1="201.564" y1="115.667" x2="208.747" y2="115.667"/>
	
		<line fill="none" stroke="#FFFFFF" stroke-width="2.8984" stroke-miterlimit="10" x1="185.56" y1="115.667" x2="180.134" y2="115.667"/>
	
		<line fill="none" stroke="#FFFFFF" stroke-width="2.8984" stroke-miterlimit="10" x1="225.959" y1="115.667" x2="230.18" y2="115.667"/>
</g>
</svg>
