<?xml version="1.0" encoding="utf-8"?>
<!-- Generator: Adobe Illustrator 16.0.0, SVG Export Plug-In . SVG Version: 6.00 Build 0)  -->
<!DOCTYPE svg PUBLIC "-//W3C//DTD SVG 1.1//EN" "http://www.w3.org/Graphics/SVG/1.1/DTD/svg11.dtd">
<svg version="1.1" id="Capa_1" xmlns="http://www.w3.org/2000/svg" xmlns:xlink="http://www.w3.org/1999/xlink" x="0px" y="0px"
	 width="396px" height="220px" viewBox="0 0 396 220" enable-background="new 0 0 396 220" xml:space="preserve">
<rect x="0.5" y="-0.5" fill="#FEFD6A" width="396" height="221"/>
<g>
	<g>
		
			<image overflow="visible" opacity="0.3" width="258" height="190" xlink:href="9A83B8D0.png"  transform="matrix(1 0 0 1 58.3726 6.3726)">
		</image>
		<g>
			<g>
				<path fill="#FFFFFF" d="M298.897,168.154c0,4.868-2.923,9.402-7.816,9.402H79.943c-4.891,0-9.443-4.537-9.443-9.402V25.383
					c0-4.87,4.553-7.94,9.443-7.94h211.138c4.892,0,7.816,3.07,7.816,7.94V168.154z"/>
			</g>
		</g>
	</g>
	<g>
		<path fill="#34495E" d="M70.5,32.748v-5.976c0-6.991,1.105-9.329,8.103-9.329h212.104c8.389,0,8.19,1.864,8.19,9.329v5.976"/>
	</g>
	<g>
		<circle fill="#FF6860" cx="92.735" cy="24.632" r="3.359"/>
	</g>
	<g>
		<circle fill="#74BD28" cx="83.203" cy="24.632" r="3.359"/>
	</g>
	<g>
		<circle fill="#74BD28" cx="129.571" cy="85.855" r="41.675"/>
	</g>
	<g>
		<path fill="#FFFFFF" d="M129.43,60.099c5.574,0,10.733,1.87,14.939,4.921l1.683-1.662c-4.646-3.472-10.398-5.653-16.622-5.653
			c-15.085,0-27.406,12.717-27.905,26.845h-3.687l4.85,8.399l4.851-8.399h-3.641C104.396,72.776,115.654,60.099,129.43,60.099z"/>
		<path fill="#FFFFFF" d="M102.688,93.538c-0.42,0-0.81-0.224-1.019-0.589l-4.852-8.399c-0.21-0.364-0.21-0.518,0-0.883
			c0.212-0.365,0.6-0.294,1.021-0.294h2.576c1.14-15.305,14.168-26.882,29.016-26.882c7.522,0,13.574,3.194,17.327,5.997
			c0.278,0.208,0.452,0.456,0.47,0.802c0.021,0.347-0.114,0.649-0.367,0.887l-1.683,1.57c-0.414,0.39-1.041,0.419-1.5,0.089
			c-4.367-3.168-9.293-4.554-14.248-4.554c-12.881,0-23.104,11.495-24.261,22.091h2.371c0.42,0,0.81-0.071,1.019,0.294
			c0.21,0.365,0.21,0.666,0,1.03l-4.849,8.328C103.497,93.388,103.109,93.538,102.688,93.538z M99.877,85.727l2.811,4.868
			l2.812-4.868h-1.601c-0.32,0-0.627-0.425-0.85-0.657c-0.222-0.231-0.34-0.691-0.326-1.011
			c0.504-11.935,12.033-25.357,26.708-25.357c2.771,0,5.529,0.436,8.198,1.354c-2.44-0.879-5.194-1.487-8.198-1.487
			c-14.001,0-26.241,11.94-26.729,25.736c-0.022,0.635-0.542,1.421-1.176,1.421h-1.649V85.727z"/>
	</g>
	<g>
		<g>
			<path fill="#FFFFFF" d="M129.572,89.688L129.572,89.688c-0.648,0-1.268-0.255-1.725-0.714l-7.727-7.727
				c-0.953-0.951-0.953-2.496,0-3.448c0.954-0.953,2.497-0.953,3.45,0l6.001,6.001l23.726-23.728c0.952-0.951,2.497-0.951,3.449,0
				c0.954,0.954,0.954,2.498,0,3.451l-25.449,25.451C130.839,89.432,130.218,89.688,129.572,89.688z"/>
		</g>
	</g>
	<g>
		<path fill="#FFFFFF" d="M151.406,72.806c2.267,3.813,3.577,8.261,3.577,13.01c0,14.09-11.462,25.555-25.553,25.555
			c-0.656,0-1.188,0.529-1.188,1.187c0,0.654,0.532,1.185,1.188,1.185c15.396,0,27.927-12.529,27.927-27.926
			c0-5.407-1.547-10.46-4.221-14.742L151.406,72.806z"/>
		<path fill="#FFFFFF" d="M129.43,114.921c-1.303,0-2.366-1.061-2.366-2.362c0-1.303,1.061-2.363,2.366-2.363
			c13.44,0,24.375-10.936,24.375-24.377c0-4.366-1.181-8.656-3.412-12.409c-0.275-0.463-0.202-1.054,0.179-1.435l1.73-1.731
			c0.255-0.253,0.61-0.38,0.966-0.338c0.357,0.042,0.674,0.243,0.865,0.546c2.877,4.612,4.398,9.925,4.398,15.365
			C158.533,101.865,145.478,114.921,129.43,114.921z M152.872,73.002c2.154,3.923,3.257,8.333,3.257,12.814
			c0,14.74-12.635,26.732-26.763,26.732v0.016c14.128,0,26.782-11.999,26.782-26.748c0-4.501-1.117-8.907-3.271-12.832
			L152.872,73.002z"/>
	</g>
	<g opacity="0.1">
		<path d="M142.904,163.429h-61.22c-0.975,0-1.766-0.791-1.766-1.766s0.791-1.766,1.766-1.766h61.22
			c0.975,0,1.766,0.791,1.766,1.766S143.879,163.429,142.904,163.429z"/>
	</g>
	<g opacity="0.1">
		<path d="M179.401,170.493h-62.397c-0.975,0-1.766-0.791-1.766-1.767c0-0.975,0.791-1.766,1.766-1.766h62.397
			c0.975,0,1.766,0.791,1.766,1.766C181.167,169.702,180.375,170.493,179.401,170.493z"/>
	</g>
	<g opacity="0.1">
		<path d="M142.904,149.302h-61.22c-0.975,0-1.766-0.791-1.766-1.767c0-0.975,0.791-1.766,1.766-1.766h61.22
			c0.975,0,1.766,0.791,1.766,1.766C144.67,148.511,143.879,149.302,142.904,149.302z"/>
	</g>
	<g opacity="0.1">
		
			<image overflow="visible" opacity="0.3" enable-background="new    " width="140" height="29" xlink:href="9A83B8D6.png"  transform="matrix(0.557 0 0 0.5456 111.2588 147.6025)">
		</image>
		<g>
			<g>
				<path d="M179.401,156.365h-62.397c-0.975,0-1.766-0.791-1.766-1.766c0-0.976,0.791-1.767,1.766-1.767h62.397
					c0.975,0,1.766,0.791,1.766,1.767C181.167,155.574,180.375,156.365,179.401,156.365z"/>
			</g>
		</g>
	</g>
	<g>
		<g>
			<rect x="208.056" y="55.241" fill="#FFFFFF" width="90.842" height="38.482"/>
		</g>
		<g>
			<rect x="208.056" y="55.241" fill="#FF6860" width="42.65" height="38.482"/>
		</g>
		<g>
			<g>
				<path fill="#FFFFFF" d="M243.302,91.613h-27.157c-0.096,0-0.172-0.399-0.172-0.494c0-3.022,0.955-11.288,2.759-13.701
					c1.746-2.333,4.23-4.159,6.991-4.997c0.045-0.016,0.096-0.049,0.139-0.023c1.103,0.674,2.398,0.998,3.86,0.998
					c1.414,0,2.751-0.371,3.86-1.052c0.039-0.026,0.092-0.036,0.138-0.022c2.76,0.839,5.243,2.585,6.991,4.928
					c1.805,2.417,2.76,10.845,2.76,13.871C243.472,91.217,243.396,91.613,243.302,91.613z"/>
			</g>
			<g>
				<circle fill="#FFFFFF" cx="229.723" cy="65.406" r="6.776"/>
			</g>
		</g>
	</g>
	<g>
		<g>
			<rect x="208.056" y="103.436" fill="#FFFFFF" width="90.842" height="38.482"/>
		</g>
		<g>
			<rect x="208.056" y="103.436" fill="#B58AF7" width="42.65" height="38.482"/>
		</g>
		<g>
			<g>
				<path fill="#FFFFFF" d="M243.302,139.883h-27.157c-0.096,0-0.172-1.025-0.172-1.12c0-3.023,0.955-11.014,2.759-13.424
					c1.746-2.332,4.23-4.021,6.991-4.86c0.045-0.016,0.096,0.021,0.139,0.046c1.103,0.674,2.398,1.032,3.86,1.032
					c1.414,0,2.751-0.354,3.86-1.035c0.039-0.023,0.092-0.026,0.138-0.014c2.76,0.84,5.243,2.591,6.991,4.933
					c1.805,2.417,2.76,10.294,2.76,13.32C243.472,138.857,243.396,139.883,243.302,139.883z"/>
			</g>
			<g>
				<circle fill="#FFFFFF" cx="229.723" cy="113.601" r="6.776"/>
			</g>
		</g>
	</g>
	<g>
		<rect x="208.056" y="32.16" fill="#8199F7" width="90.842" height="23.081"/>
	</g>
	<g>
		<g>
			
				<image overflow="visible" opacity="0.3" enable-background="new    " width="300" height="146" xlink:href="9A83B8D2.png"  transform="matrix(0.5595 0 0 0.5574 194.8237 62.2515)">
			</image>
			<g>
				<g>
					<rect x="201.181" y="69.668" fill="#FFFFFF" width="148.341" height="62.141"/>
				</g>
			</g>
		</g>
		<g>
			<rect x="201.181" y="69.668" fill="#74BD28" width="68.872" height="62.141"/>
		</g>
		<g>
			<g>
				<path fill="#FFFFFF" d="M258.096,128.11h-43.852c-0.154,0-0.276-0.497-0.276-0.651c0-4.882,1.54-18.157,4.452-22.05
					c2.822-3.768,6.831-6.681,11.29-8.036c0.076-0.023,0.157-0.061,0.226-0.018c1.779,1.089,3.875,1.62,6.235,1.62
					c2.282,0,4.439-0.593,6.234-1.693c0.066-0.042,0.146-0.058,0.223-0.034c4.456,1.353,8.467,4.177,11.289,7.958
					c2.914,3.903,4.455,17.368,4.455,22.253C258.372,127.614,258.25,128.11,258.096,128.11z"/>
			</g>
			<g>
				<circle fill="#FFFFFF" cx="236.169" cy="86.083" r="10.941"/>
			</g>
		</g>
		<g opacity="0.1">
			<path d="M315.968,89.259h-34.142c-0.975,0-1.766-0.79-1.766-1.766c0-0.977,0.791-1.766,1.766-1.766h34.142
				c0.976,0,1.767,0.79,1.767,1.766C317.734,88.469,316.943,89.259,315.968,89.259z"/>
		</g>
		<g opacity="0.1">
			<path d="M315.968,111.628h-34.142c-0.975,0-1.766-0.79-1.766-1.766s0.791-1.766,1.766-1.766h34.142
				c0.976,0,1.767,0.79,1.767,1.766S316.943,111.628,315.968,111.628z"/>
		</g>
		<g opacity="0.1">
			<path d="M345.4,79.84h-10.596c-0.975,0-1.766-0.79-1.766-1.766s0.791-1.766,1.766-1.766H345.4c0.976,0,1.767,0.79,1.767,1.766
				S346.376,79.84,345.4,79.84z"/>
		</g>
		<g opacity="0.3">
			<path d="M334.805,99.854h-52.979c-0.975,0-1.766-0.79-1.766-1.766c0-0.977,0.791-1.766,1.766-1.766h52.979
				c0.976,0,1.767,0.79,1.767,1.766C336.571,99.065,335.78,99.854,334.805,99.854z"/>
		</g>
	</g>
	<g>
		<g>
			<g>
				<rect x="208.056" y="138.487" fill="#78D8FA" width="42.65" height="38.48"/>
			</g>
			<g>
				<g>
					<path fill="#FFFFFF" d="M243.302,175.202h-27.157c-0.096,0-0.172-0.57-0.172-0.664c0-3.024,0.955-11.376,2.759-13.788
						c1.746-2.332,4.23-4.201,6.991-5.04c0.045-0.014,0.096-0.071,0.139-0.046c1.103,0.676,2.398,0.99,3.86,0.99
						c1.414,0,2.751-0.378,3.86-1.057c0.039-0.025,0.092-0.039,0.138-0.025c2.76,0.839,5.243,2.584,6.991,4.928
						c1.805,2.416,2.76,11.015,2.76,14.042C243.472,174.634,243.396,175.202,243.302,175.202z"/>
				</g>
				<g>
					<circle fill="#FFFFFF" cx="229.723" cy="148.65" r="6.776"/>
				</g>
			</g>
		</g>
		<g opacity="0.1">
			<path d="M294.776,146.947h-10.596c-0.65,0-1.177-0.527-1.177-1.178s0.526-1.178,1.177-1.178h10.596
				c0.651,0,1.178,0.527,1.178,1.178S295.428,146.947,294.776,146.947z"/>
		</g>
		<g opacity="0.1">
			<path d="M280.648,151.656h-23.546c-0.65,0-1.177-0.526-1.177-1.178c0-0.65,0.526-1.177,1.177-1.177h23.546
				c0.651,0,1.178,0.526,1.178,1.177C281.826,151.13,281.3,151.656,280.648,151.656z"/>
		</g>
		<g opacity="0.1">
			<path d="M280.648,166.961h-23.546c-0.65,0-1.177-0.526-1.177-1.177c0-0.651,0.526-1.178,1.177-1.178h23.546
				c0.651,0,1.178,0.526,1.178,1.178C281.826,166.435,281.3,166.961,280.648,166.961z"/>
		</g>
		<g opacity="0.3">
			<path d="M293.6,158.72h-36.497c-0.65,0-1.177-0.526-1.177-1.177c0-0.651,0.526-1.178,1.177-1.178H293.6
				c0.65,0,1.177,0.526,1.177,1.178C294.776,158.193,294.25,158.72,293.6,158.72z"/>
		</g>
	</g>
	<g opacity="0.1">
		<rect x="250.703" y="138.34" width="48.194" height="0.295"/>
	</g>
	<g opacity="0.3">
		<path fill="#FFFFFF" d="M249.768,55.241l1.555-3.829c0.119-0.254,0.177-0.513,0.187-0.772c0.001-0.052-0.003-0.104-0.005-0.154
			c1.536,0.48,3.15,0.418,4.59-0.104c1.722-0.628,3.213-1.909,4.048-3.702c1.674-3.587,0.118-7.854-3.45-9.516
			c-3.649-1.702-7.87-0.129-9.542,3.457c-0.834,1.793-0.875,3.752-0.248,5.475c0.524,1.441,1.503,2.71,2.859,3.578
			c-0.041,0.031-0.083,0.061-0.123,0.097c-0.193,0.172-0.351,0.386-0.468,0.641l-2.001,4.833 M251.477,48.311l-0.005-0.002
			c-1.2-0.559-2.083-1.646-2.536-2.889c-0.453-1.242-0.372-2.631,0.186-3.828c0.56-1.198,1.58-2.122,2.822-2.575
			c1.241-0.452,2.598-0.403,3.808,0.161c1.131,0.529,2.094,1.54,2.545,2.781c0.451,1.243,0.388,2.582-0.172,3.781
			c-0.559,1.198-1.594,2.191-2.837,2.643C254.047,48.836,252.674,48.87,251.477,48.311z"/>
	</g>
</g>
</svg>
