<?xml version="1.0" encoding="utf-8"?>
<!-- Generator: Adobe Illustrator 16.0.0, SVG Export Plug-In . SVG Version: 6.00 Build 0)  -->
<!DOCTYPE svg PUBLIC "-//W3C//DTD SVG 1.1//EN" "http://www.w3.org/Graphics/SVG/1.1/DTD/svg11.dtd">
<svg version="1.1" id="Capa_1" xmlns="http://www.w3.org/2000/svg" xmlns:xlink="http://www.w3.org/1999/xlink" x="0px" y="0px"
	 width="396px" height="330px" viewBox="0 0 396 330" enable-background="new 0 0 396 330" xml:space="preserve">
<rect x="0.701" y="-0.5" fill="#8A9FF7" width="394.9" height="331.5"/>
<polygon fill="#FFFFFF" points="219.466,252.327 163.716,252.327 162.169,217.328 221.012,217.328 "/>
<polygon opacity="0.15" enable-background="new    " points="220.593,226.829 162.589,226.829 161.951,214.206 221.177,214.206 "/>
<g>
	<path fill="#FFFFFF" d="M140.352,254.273c-0.369,0-0.669-0.3-0.669-0.668v-2.556c0-3.323,2.701-6.023,6.025-6.023h91.921
		c3.319,0,6.024,2.7,6.024,6.023v2.556c0,0.368-0.302,0.668-0.67,0.668H140.352z"/>
	<g>
		<path fill="#FFFFFF" d="M237.629,245.696c2.957,0,5.354,2.398,5.354,5.354v2.553H140.352v-2.553c0-2.958,2.396-5.354,5.354-5.354
			H237.629 M237.629,244.356h-91.922c-3.693,0-6.694,3.002-6.694,6.693v2.556c0,0.737,0.599,1.337,1.337,1.337h102.631
			c0.74,0,1.337-0.6,1.337-1.337v-2.556C244.32,247.358,241.318,244.356,237.629,244.356L237.629,244.356z"/>
	</g>
</g>
<g>
	<path fill="#FFFFFF" d="M370.179,126.683v0.091c-0.329-0.059-0.67-0.092-1.02-0.092h-37.067h-37.066
		c-0.352,0-0.691,0.033-1.022,0.092v-0.091c-2.166,0-4.32,1.649-4.32,3.82v1.537v117.205v0.743c0,3.137,2.351,4.955,5.343,4.955
		h37.066h37.067c2.991,0,5.341-1.818,5.341-4.955v-0.743V132.039v-1.537C374.5,128.332,372.349,126.683,370.179,126.683z
		 M368.292,244.027c0,1.398-0.178,2.041-1.581,2.041h-34.619h-34.618c-1.404,0-1.583-0.643-1.583-2.041V135.674
		c0-1.4,0.179-2.93,1.583-2.93h34.618h34.619c1.403,0,1.581,1.53,1.581,2.93V244.027z"/>
	<g>
		<circle opacity="0.3" enable-background="new    " cx="330.082" cy="129.881" r="0.908"/>
		<circle opacity="0.3" enable-background="new    " cx="332.265" cy="129.881" r="0.676"/>
	</g>
	<circle opacity="0.3" enable-background="new    " cx="332.091" cy="250.396" r="2.223"/>
</g>
<g>
	<rect x="86.744" y="213.118" fill="#FFFFFF" width="193.598" height="9.506"/>
	<path fill="#FFFFFF" d="M307.885,55.592H75.461c-5.867,0-11.537,5.266-11.537,11.173v102.777h5.358h1.167h2.979V70.785
		c0-2.79,3.431-5.687,6.242-5.687h223.965c2.806,0,4.725,2.897,4.725,5.687v48.892h2.719h6.788V66.765
		C317.865,60.859,313.754,55.592,307.885,55.592z"/>
</g>
<g>
	<g>
		<g>
			<path fill="#FFFFFF" d="M75.649,176.547h-0.49h-7.371H57.607v6.672h15.521c1.589,0,2.369,0.811,2.369,2.399v5.592v0.639
				l0.001,48.667c0,1.589-0.779,2.738-2.369,2.738H57.607v11.434h18.781c1.623,0,2.184-2.157,2.184-3.779V191.38v-0.646v-0.814
				v-3.919v-6.612C78.571,177.764,77.272,176.547,75.649,176.547z"/>
			<path fill="#FFFFFF" d="M39.715,240.516l0-48.667v-0.639v-5.592c0-1.589,0.78-2.399,2.369-2.399h16.689v-6.672H47.425h-7.372
				h-0.49c-1.623,0-2.921,1.217-2.921,2.842v6.612v3.919v0.814v0.646v59.528c0,1.622,0.561,3.779,2.184,3.779h19.948v-11.434H42.084
				C40.494,243.254,39.715,242.104,39.715,240.516z"/>
		</g>
		
			<line opacity="0.5" fill="none" stroke="#1D1D1B" stroke-width="0.953" stroke-linecap="round" stroke-miterlimit="10" enable-background="new    " x1="53.795" y1="180.702" x2="61.418" y2="180.702"/>
		<g>
			<circle opacity="0.5" fill="#1D1D1B" enable-background="new    " cx="57.003" cy="178.203" r="0.611"/>
			<circle opacity="0.5" fill="#1D1D1B" enable-background="new    " cx="58.472" cy="178.203" r="0.35"/>
		</g>
	</g>
	<path opacity="0.5" fill="#1D1D1B" enable-background="new    " d="M59.79,247.792c0.371-1.209-0.31-2.487-1.507-2.854
		c-1.229-0.376-2.49,0.306-2.861,1.511c-0.185,0.603-0.11,1.224,0.164,1.74c0.227,0.431,0.594,0.789,1.06,1.006
		c-0.012,0.01-0.023,0.021-0.035,0.033c-0.053,0.063-0.092,0.138-0.12,0.223l-0.482,1.579c-0.059,0.202,0.061,0.399,0.259,0.461
		c0.195,0.062,0.394-0.04,0.458-0.238l0.49-1.579c0.024-0.084,0.035-0.169,0.023-0.251c0-0.02-0.003-0.034-0.009-0.052
		c0.508,0.085,1.015-0.007,1.445-0.233C59.192,248.865,59.605,248.393,59.79,247.792z M59.003,247.111
		c0,0.794-0.628,1.438-1.405,1.438s-1.406-0.645-1.406-1.438c0-0.795,0.63-1.437,1.406-1.437
		C58.375,245.675,59.003,246.318,59.003,247.111z"/>
</g>
<path fill="#FFFFFF" d="M157.833,222.458l10.619-27.328c0.895-1.921,1.349-3.882,1.409-5.844c0.012-0.396-0.011-0.793-0.029-1.175
	c11.623,3.637,23.837,3.171,34.736-0.792c13.04-4.747,24.325-14.448,30.653-28.02c12.661-27.148,0.878-59.438-26.109-72.021
	c-27.616-12.878-59.563-0.981-72.224,26.167c-6.329,13.573-6.629,28.394-1.887,41.431c3.968,10.9,11.374,20.514,21.632,27.081
	c-0.305,0.232-0.627,0.466-0.925,0.73c-1.463,1.307-2.654,2.924-3.546,4.846l-13.996,34.925 M169.623,171.663l-0.045-0.022
	c-9.075-4.23-15.77-12.461-19.192-21.867c-3.425-9.404-2.823-19.906,1.411-28.974c4.232-9.073,11.956-16.057,21.36-19.484
	c9.399-3.418,19.665-3.042,28.813,1.218c8.572,4.003,15.848,11.656,19.269,21.053c3.424,9.405,2.935,19.544-1.297,28.616
	c-4.229,9.073-12.062,16.585-21.466,20.006C189.069,175.633,178.695,175.894,169.623,171.663z"/>
<g>
	<g>
		
			<image overflow="visible" opacity="0.2" width="77" height="83" xlink:href="C3575E3.png"  transform="matrix(1 0 0 1 157.4077 101.4077)">
		</image>
		<g>
			<path fill="#8FC428" d="M172.008,162.615c-0.712,0-1.105-0.181-1.745-0.55c-1.287-0.737-1.764-2.11-1.764-3.594v-42.616
				c0-1.484,0.477-2.856,1.764-3.596c1.288-0.742,2.713-0.731,3.995,0.016l36.39,21.311c1.271,0.74,2.014,2.103,2.014,3.578
				c0,1.471-0.801,2.832-2.074,3.576l-36.478,21.308C173.463,162.428,172.73,162.615,172.008,162.615z"/>
		</g>
	</g>
	<path fill="#43C428" d="M212.636,137.164c0,1.471-0.787,2.832-2.061,3.576l-36.472,21.308c-0.647,0.38-1.373,0.567-2.095,0.567
		c-0.712,0-1.313-0.181-1.952-0.55c-1.287-0.737-1.653-2.033-1.485-4.806"/>
	<path fill="#8FE528" d="M168.571,115.855c0-1.484,0.198-2.856,1.485-3.596c1.288-0.742,2.816-0.731,4.099,0.016l36.441,21.311
		c1.271,0.74,2.039,2.103,2.039,3.578"/>
</g>
<g>
	<g>
		<path fill="#FFFFFF" d="M58.263,200.484c2.723,0,5.241,0.912,7.295,2.402l0.821-0.812c-2.269-1.695-5.077-2.761-8.116-2.761
			c-7.365,0-13.38,6.211-13.625,13.108h-1.801l2.369,4.103l2.369-4.103h-1.777C46.04,206.674,51.537,200.484,58.263,200.484z"/>
		<path fill="#FFFFFF" d="M45.206,216.812c-0.205,0-0.396-0.109-0.498-0.286l-2.369-4.103c-0.103-0.178-0.103-0.253,0-0.432
			c0.104-0.177,0.293-0.144,0.498-0.144h1.258c0.558-7.472,6.918-13.126,14.167-13.126c3.673,0,6.629,1.561,8.461,2.929
			c0.135,0.102,0.22,0.223,0.229,0.391c0.01,0.171-0.056,0.318-0.18,0.433l-0.822,0.768c-0.202,0.191-0.507,0.205-0.732,0.044
			c-2.132-1.547-4.538-2.225-6.957-2.225c-6.29,0-11.281,5.613-11.846,10.787h1.158c0.206,0,0.395-0.033,0.497,0.144
			c0.103,0.179,0.103,0.325,0,0.504l-2.368,4.064C45.601,216.737,45.411,216.812,45.206,216.812z M43.833,212.998l1.372,2.376
			l1.373-2.376h-0.781c-0.157,0-0.307-0.207-0.416-0.32c-0.109-0.114-0.167-0.339-0.159-0.495
			c0.246-5.827,5.875-12.382,13.041-12.382c1.353,0,2.7,0.214,4.003,0.661c-1.192-0.429-2.537-0.724-4.003-0.724
			c-6.837,0-12.813,5.829-13.05,12.565c-0.012,0.31-0.265,0.694-0.575,0.694H43.833L43.833,212.998z"/>
	</g>
	<g>
		<g>
			<path fill="#FFFFFF" d="M58.333,214.932L58.333,214.932c-0.317,0-0.619-0.125-0.842-0.35l-3.772-3.773
				c-0.465-0.464-0.465-1.218,0-1.681c0.465-0.466,1.219-0.466,1.685,0l2.93,2.93l11.584-11.586c0.465-0.464,1.22-0.464,1.685,0
				c0.466,0.466,0.466,1.22,0,1.686l-12.427,12.427C58.951,214.807,58.648,214.932,58.333,214.932z"/>
		</g>
	</g>
	<g>
		<path fill="#FFFFFF" d="M68.993,206.689c1.107,1.86,1.747,4.032,1.747,6.352c0,6.881-5.597,12.478-12.477,12.478
			c-0.32,0-0.58,0.259-0.58,0.58c0,0.319,0.26,0.579,0.58,0.579c7.518,0,13.636-6.118,13.636-13.637c0-2.64-0.755-5.107-2.061-7.198
			L68.993,206.689z"/>
		<path fill="#FFFFFF" d="M58.263,227.252c-0.636,0-1.154-0.518-1.154-1.153s0.518-1.154,1.154-1.154
			c6.563,0,11.903-5.339,11.903-11.903c0-2.13-0.577-4.224-1.667-6.058c-0.134-0.228-0.099-0.516,0.087-0.7l0.845-0.846
			c0.125-0.123,0.298-0.186,0.472-0.164c0.174,0.02,0.329,0.118,0.423,0.266c1.404,2.252,2.147,4.846,2.147,7.502
			C72.474,220.878,66.099,227.252,58.263,227.252z M69.709,206.786c1.052,1.914,1.59,4.066,1.59,6.255
			c0,7.197-6.168,13.054-13.067,13.054v0.007c6.898,0,13.077-5.858,13.077-13.061c0-2.197-0.546-4.35-1.598-6.265L69.709,206.786z"
			/>
	</g>
</g>
<path fill="#FFFFFF" d="M355.533,219.305h-47.884c-0.166,0-0.302-0.414-0.302-0.58c0-5.334,1.682-19.762,4.864-24.014
	c3.08-4.115,7.459-7.264,12.326-8.742c0.082-0.024,0.172-0.049,0.246-0.003c1.941,1.189,4.232,1.776,6.808,1.776
	c2.493,0,4.848-0.643,6.807-1.843c0.073-0.045,0.164-0.061,0.245-0.036c4.865,1.478,9.244,4.563,12.326,8.692
	c3.183,4.261,4.864,18.834,4.864,24.169C355.835,218.891,355.7,219.305,355.533,219.305z"/>
<path opacity="0.1" enable-background="new    " d="M331.612,215.749c-17.215,0-23.849-1.895-23.849-1.895
	c-0.28,1.495-0.423,3.29-0.423,4.836c0,0.168,0.135,0.614,0.303,0.614h23.936h23.955c0.166,0,0.301-0.414,0.301-0.58
	c0-1.548-0.141-3.26-0.42-4.754c0,0-6.654,1.778-23.835,1.778H331.612z"/>
<circle fill="#FFFFFF" cx="331.592" cy="173.673" r="11.946"/>
<g>
	<polygon fill="#8A9FF7" points="331.459,192.043 332.729,192.043 334,188.486 331.459,188.486 328.919,188.486 330.189,192.043 	
		"/>
	<polygon fill="#8A9FF7" points="331.459,219.897 334,219.897 332.475,194.413 331.459,194.413 330.443,194.413 328.919,219.897 	
		"/>
</g>
<circle fill="none" stroke="#8A9FF7" stroke-width="1.3838" stroke-miterlimit="10" cx="326.057" cy="173.673" r="3.821"/>
<circle fill="none" stroke="#8A9FF7" stroke-width="1.3838" stroke-miterlimit="10" cx="337.127" cy="173.673" r="3.821"/>
<line fill="none" stroke="#8A9FF7" stroke-width="1.3838" stroke-miterlimit="10" x1="329.877" y1="173.673" x2="333.306" y2="173.673"/>
<line fill="none" stroke="#8A9FF7" stroke-width="1.3838" stroke-miterlimit="10" x1="322.236" y1="173.673" x2="319.645" y2="173.673"/>
<line fill="none" stroke="#8A9FF7" stroke-width="1.3838" stroke-miterlimit="10" x1="341.523" y1="173.673" x2="343.539" y2="173.673"/>
</svg>
