<?xml version="1.0" encoding="utf-8"?>
<!-- Generator: Adobe Illustrator 16.0.0, SVG Export Plug-In . SVG Version: 6.00 Build 0)  -->
<!DOCTYPE svg PUBLIC "-//W3C//DTD SVG 1.1//EN" "http://www.w3.org/Graphics/SVG/1.1/DTD/svg11.dtd">
<svg version="1.1" id="Capa_1" xmlns="http://www.w3.org/2000/svg" xmlns:xlink="http://www.w3.org/1999/xlink" x="0px" y="0px"
	 width="276px" height="354px" viewBox="0 0 276 354" enable-background="new 0 0 276 354" xml:space="preserve">
<g>
	<circle fill="#FFFFFF" cx="213.708" cy="272.613" r="30.592"/>
	
		<path fill="none" stroke="#FFFFFF" stroke-width="2.6941" stroke-linecap="round" stroke-miterlimit="10" stroke-dasharray="10.7764" d="
		M235.357,245.006c8.179,6.422,13.434,16.401,13.434,27.607c0,12.678-6.725,23.783-16.801,29.948"/>
	<circle fill="#FFFFFF" cx="78.964" cy="273.268" r="40.569"/>
	
		<path fill="none" stroke="#FFFFFF" stroke-width="2.6941" stroke-linecap="round" stroke-miterlimit="10" stroke-dasharray="10.7764" d="
		M41.975,299.949c-5.627-7.412-8.967-16.657-8.967-26.682c0-13.635,6.179-25.826,15.89-33.927"/>
	<g>
		<path fill="#BDC3C7" d="M232.598,288h-37.779c-0.131,0-0.237-0.346-0.237-0.478c0-4.207,1.327-8.323,3.838-11.676
			c2.431-3.247,5.884-5.737,9.726-6.903c0.064-0.021,0.135-0.041,0.192-0.006c1.534,0.939,3.341,1.401,5.372,1.401
			c1.968,0,3.825-0.509,5.37-1.456c0.059-0.035,0.128-0.047,0.193-0.027c3.839,1.165,7.293,3.6,9.726,6.857
			c2.51,3.36,3.838,7.602,3.838,11.81C232.836,287.654,232.729,288,232.598,288z"/>
		<circle fill="#BDC3C7" cx="213.708" cy="259.954" r="9.425"/>
	</g>
	<circle fill="#FFFFFF" cx="148.787" cy="158.328" r="65.805"/>
	<g>
		<g>
			<path fill="none" stroke="#FFFFFF" stroke-width="2.6941" stroke-linecap="round" stroke-miterlimit="10" d="M121.599,225.795
				c-1.671-0.674-3.312-1.408-4.918-2.2"/>
			
				<path fill="none" stroke="#FFFFFF" stroke-width="2.6941" stroke-linecap="round" stroke-miterlimit="10" stroke-dasharray="10.7981,10.7981" d="
				M107.385,218.119c-16.132-11.192-27.518-28.745-30.527-49.029"/>
			<path fill="none" stroke="#FFFFFF" stroke-width="2.6941" stroke-linecap="round" stroke-miterlimit="10" d="M76.263,163.714
				c-0.13-1.778-0.196-3.575-0.196-5.387"/>
		</g>
	</g>
	<g>
		<path fill="#7F8C8D" d="M104.806,296H53.122c-0.179,0-0.325-0.153-0.325-0.332c0-5.756,1.815-11.226,5.25-15.813
			c3.325-4.441,8.05-7.769,13.305-9.364c0.089-0.026,0.186-0.015,0.264,0.034c2.097,1.285,4.569,1.936,7.348,1.936
			c2.692,0,5.233-0.685,7.348-1.98c0.08-0.048,0.176-0.061,0.265-0.033c5.252,1.595,9.977,4.927,13.305,9.384
			c3.435,4.598,5.25,10.08,5.25,15.838C105.131,295.848,104.985,296,104.806,296z"/>
		<circle fill="#7F8C8D" cx="78.964" cy="258.273" r="12.894"/>
	</g>
	<polygon fill="#FFFFFF" stroke="#FFFFFF" stroke-width="0.898" stroke-miterlimit="10" points="214.141,302.31 234.346,319.372 
		225.651,295.125 	"/>
	<polygon fill="#FFFFFF" stroke="#FFFFFF" stroke-width="0.898" stroke-miterlimit="10" points="78.986,313.086 58.78,330.148 
		67.475,305.902 	"/>
	<circle fill="#FFFFFF" cx="219.089" cy="67.056" r="30.722"/>
	<polygon fill="#FFFFFF" stroke="#FFFFFF" stroke-width="0.6801" stroke-miterlimit="10" points="219.105,97.209 203.804,110.13 
		210.389,91.769 	"/>
	
		<line fill="none" stroke="#FFFFFF" stroke-width="3.5921" stroke-miterlimit="10" x1="115.356" y1="278.961" x2="141.441" y2="258.949"/>
	
		<line fill="none" stroke="#FFFFFF" stroke-width="3.5921" stroke-miterlimit="10" x1="155.469" y1="258.273" x2="188.577" y2="283.577"/>
	<line fill="none" stroke="#FFFFFF" stroke-width="4" stroke-miterlimit="10" x1="149" y1="248" x2="149" y2="215"/>
	<circle fill="#FF6860" cx="219.464" cy="67.292" r="22.718"/>
	<circle fill="#FFFFFF" cx="73.066" cy="77.62" r="27.67"/>
	<polygon fill="#FFFFFF" stroke="#FFFFFF" stroke-width="0.6125" stroke-miterlimit="10" points="77.904,104.779 91.687,116.417 
		85.756,99.879 	"/>
	<circle fill="#FF6860" cx="72.728" cy="77.833" r="20.462"/>
	<circle fill="#FFFFFF" cx="142.756" cy="40.115" r="30.722"/>
	<polygon fill="#FFFFFF" stroke="#FFFFFF" stroke-width="0.6801" stroke-miterlimit="10" points="149.061,70.269 133.759,83.189 
		140.344,64.828 	"/>
	<circle fill="#FF6860" cx="142.38" cy="40.351" r="22.718"/>
	<g>
		<circle fill="#FFFFFF" cx="43.778" cy="199.572" r="23.764"/>
		<polygon fill="#FFFFFF" stroke="#FFFFFF" stroke-width="0.5261" stroke-miterlimit="10" points="47.932,222.896 59.77,232.893 
			54.676,218.688 		"/>
		<circle fill="#FF6860" cx="43.487" cy="199.754" r="17.573"/>
		<path fill="#FFFFFF" d="M41.738,204.324v-15.125c0-1.123,0.936-2.059,2.059-2.059c1.123,0,2.021,0.936,2.021,2.059v15.125
			c0,1.159-0.899,2.058-2.021,2.058C42.674,206.382,41.738,205.483,41.738,204.324z"/>
		<path fill="#34495E" d="M43.797,213.346c-1.123,0-2.059-0.898-2.059-2.059v-0.75c0-1.123,0.936-2.059,2.059-2.059
			c1.123,0,2.021,0.936,2.021,2.059v0.75C45.818,212.447,44.919,213.346,43.797,213.346z"/>
	</g>
	<path fill="#FFFFFF" d="M222.32,67.757l2.805,1.092l1.558-5.079l-3.306-1.027c-0.004-0.1-0.222-0.545-0.229-0.643
		c-0.019-0.246,0.22,0.105-0.298-1.08l2.916-1.486l-2.342-4.598l-2.955,1.506c-0.106,0.054-0.422-0.251-0.725-0.477l1.035-2.865
		l-5.104-1.604l-0.517,2.799c-0.423,0.005-0.735,0.027-0.794-0.087l-1.353-2.655l-5.747,2.929l1.371,2.692
		c0.045,0.087-0.375,0.425-0.563,0.666l-2.85-0.938l-1.661,5.133l2.729,0.883c-0.006,0.3-0.123,0.344-0.097,0.642
		c0.009,0.148-0.029,0.171-0.075,0.194l-2.236,1.14l2.344,4.597l2.104-1.073c0.702,1.09,0.839,0.975,1.194,1.244l-0.842,3.052
		l5.182,1.759l0.914-2.773c0.415-0.001,1.182-0.151,1.242-0.032l1.2,2.354l5.747-2.928l-1.2-2.354
		C221.695,68.591,222.033,68.186,222.32,67.757z M216.476,66.004c-1.589,0.811-3.536,0.179-4.346-1.412
		c-0.81-1.588-0.178-3.536,1.411-4.345c1.59-0.811,3.537-0.178,4.346,1.412C218.697,63.248,218.064,65.196,216.476,66.004z"/>
	<path fill="#34495E" d="M235.174,75.705l1.891,0.108l-0.056-3.344l-2.179,0.028c-0.021-0.059-0.238-0.284-0.262-0.34
		c-0.059-0.144,0.152,0.02-0.388-0.589l1.456-1.456l-2.297-2.297l-1.476,1.477c-0.054,0.053-0.302-0.068-0.526-0.145l0.063-1.917
		l-3.367,0.033l0.235,1.776c-0.251,0.084-0.435,0.159-0.491,0.102l-1.326-1.327l-2.871,2.871l1.344,1.345
		c0.044,0.044-0.142,0.328-0.207,0.508l-1.889-0.008l0.004,3.396l1.806-0.002c0.056,0.18-0.007,0.229,0.067,0.403
		c0.033,0.087,0.016,0.107-0.008,0.13l-1.117,1.118l2.297,2.296l1.051-1.052c0.634,0.516,0.692,0.42,0.957,0.512l0.09,1.991
		l3.444,0.045l0.008-1.838c0.249-0.082,0.678-0.32,0.737-0.261l1.176,1.176l2.871-2.871l-1.176-1.177
		C234.961,76.326,235.084,76.017,235.174,75.705z M231.334,75.792c-0.795,0.794-2.082,0.794-2.877,0
		c-0.793-0.793-0.793-2.083,0-2.875c0.795-0.794,2.082-0.794,2.877,0C232.127,73.71,232.127,74.999,231.334,75.792z"/>
	<path fill="#34495E" d="M222.793,81.058l1.469,0.084l-0.043-2.598l-1.693,0.021c-0.016-0.045-0.185-0.22-0.203-0.264
		c-0.046-0.112,0.118,0.015-0.301-0.457l1.131-1.132l-1.784-1.785l-1.146,1.146c-0.042,0.042-0.234-0.053-0.409-0.112l0.049-1.489
		l-2.616,0.025l0.183,1.38c-0.195,0.065-0.338,0.124-0.383,0.08l-1.029-1.031l-2.23,2.23l1.044,1.045
		c0.034,0.034-0.11,0.255-0.161,0.395l-1.467-0.006l0.002,2.639l1.404-0.002c0.043,0.14-0.006,0.179,0.051,0.313
		c0.026,0.068,0.014,0.083-0.006,0.102l-0.867,0.868l1.784,1.784l0.817-0.817c0.492,0.4,0.537,0.327,0.743,0.398l0.069,1.547
		l2.676,0.035l0.006-1.428c0.193-0.063,0.527-0.249,0.573-0.203l0.914,0.914l2.23-2.23l-0.914-0.914
		C222.627,81.54,222.723,81.3,222.793,81.058z M219.809,81.125c-0.616,0.618-1.617,0.618-2.234,0c-0.616-0.616-0.616-1.618,0-2.234
		c0.617-0.617,1.618-0.617,2.234,0C220.426,79.507,220.426,80.509,219.809,81.125z"/>
	<g>
		<path fill="#34495E" d="M140.434,49c-0.422,0-0.766,0.011-0.766,0.501c0,0.488,0.344,0.499,0.766,0.499h4.479
			c0.423,0,0.765-0.011,0.765-0.499c0-0.49-0.342-0.501-0.765-0.501H140.434z"/>
		<path fill="#34495E" d="M140.434,51c-0.422,0-0.766,0.012-0.766,0.501c0,0.488,0.344,0.499,0.766,0.499h4.479
			c0.423,0,0.765-0.011,0.765-0.499c0-0.49-0.342-0.501-0.765-0.501H140.434z"/>
		<path fill="#34495E" d="M140.434,53c-0.422,0-0.766,0.012-0.766,0.501c0,0.488,0.344,0.499,0.766,0.499h4.479
			c0.423,0,0.765-0.011,0.765-0.499c0-0.49-0.342-0.501-0.765-0.501H140.434z"/>
		<path fill="#34495E" d="M145.216,54.423c0,1.433-1.161,2.594-2.595,2.594c-1.432,0-2.594-1.161-2.594-2.594"/>
		<path fill="#FFFFFF" d="M140.061,47c0-3-2.303-5.009-3.992-7.014c-1.717-2.039-3.169-4.231-3.354-6.97
			C132.319,27.159,137.434,23,143.057,23h-0.397h-0.089c5.624,0,10.699,4.137,10.305,9.994c-0.186,2.739-1.676,4.948-3.393,6.987
			c-1.689,2.005-4.07,4.019-4.07,7.019H140.061z"/>
		<path fill="none" stroke="#FF6860" stroke-width="0.4764" stroke-linejoin="round" stroke-miterlimit="10" d="M144.214,47.923
			l0.83-7.123c0,0-1.565,0.743-2.13,0.743c-0.844,0-1.737-1.804-0.49-1.804c1.492,0,0.391,1.804-0.623,1.804
			c-0.449,0-1.637-0.747-1.637-0.747l1.21,7.023"/>
	</g>
	<path fill="#FFFFFF" d="M58.27,83.22c0-3.81,2.656-7.002,6.235-7.85v-2.5c0-1.078,0.807-1.886,1.885-1.886
		c1,0,1.886,0.808,1.886,1.886v4.001c0,0.039-0.039,0.039-0.039,0.077c0.039,0.039,0.039,0.039,0.039,0.077
		c0,1.001-0.885,1.886-1.886,1.886c-2.424,0-4.387,1.923-4.387,4.309c0,2.423,1.963,4.31,4.387,4.31
		c1.577,0,2.962-0.848,3.693-2.117c0.539-0.924,1.693-1.231,2.616-0.692c0.885,0.539,1.193,1.654,0.655,2.578
		c-1.385,2.384-4.002,4.001-6.964,4.001C61.927,91.3,58.27,87.683,58.27,83.22z"/>
	<path fill="#34495E" d="M66.39,68.83c-1.078,0-1.885-0.847-1.885-1.886v-0.692c0-1.078,0.807-1.886,1.885-1.886
		c1,0,1.886,0.808,1.886,1.886v0.692C68.275,67.983,67.39,68.83,66.39,68.83z"/>
	<path fill="#FFFFFF" d="M80.953,80.295v2.501c0,1.076-0.808,1.884-1.886,1.884c-1,0-1.885-0.808-1.885-1.884v-4.002
		c0-0.038,0.04-0.038,0.04-0.077c-0.04-0.037-0.04-0.037-0.04-0.077c0-1,0.885-1.886,1.885-1.886c2.424,0,4.387-1.924,4.387-4.31
		c0-2.423-1.963-4.309-4.387-4.309c-1.578,0-2.962,0.848-3.694,2.117c-0.537,0.924-1.692,1.23-2.616,0.692
		c-0.885-0.538-1.192-1.655-0.653-2.577c1.385-2.386,4-4.002,6.963-4.002c4.464,0,8.118,3.617,8.118,8.079
		C87.185,76.255,84.53,79.449,80.953,80.295z"/>
	<path fill="#34495E" d="M80.953,88.721v0.692c0,1.077-0.808,1.886-1.886,1.886c-1,0-1.885-0.809-1.885-1.886v-0.692
		c0-1.039,0.885-1.884,1.885-1.884C80.145,86.837,80.953,87.683,80.953,88.721z"/>
	<g>
		<polygon fill="#FFFFFF" stroke="#FFFFFF" stroke-width="0.3607" stroke-miterlimit="10" points="235.92,235.442 227.806,242.295 
			231.297,232.557 		"/>
		<path fill="#FFFFFF" d="M235.911,203.159c-8.997,0-16.292,7.294-16.292,16.292s7.295,16.293,16.292,16.293
			c8.998,0,16.292-7.295,16.292-16.293S244.909,203.159,235.911,203.159z M236.111,231.625c-6.654,0-12.049-5.395-12.049-12.049
			c0-6.653,5.395-12.047,12.049-12.047c6.652,0,12.047,5.394,12.047,12.047C248.158,226.23,242.764,231.625,236.111,231.625z"/>
		<path fill="#FFFFFF" d="M226.975,222.777c0-2.353,1.64-4.323,3.85-4.846v-1.545c0-0.666,0.498-1.164,1.164-1.164
			c0.618,0,1.164,0.498,1.164,1.164v2.471c0,0.024-0.023,0.024-0.023,0.047c0.023,0.025,0.023,0.025,0.023,0.048
			c0,0.618-0.546,1.165-1.164,1.165c-1.497,0-2.709,1.188-2.709,2.66c0,1.497,1.212,2.662,2.709,2.662
			c0.973,0,1.828-0.524,2.28-1.308c0.333-0.571,1.046-0.76,1.615-0.427c0.547,0.332,0.737,1.021,0.405,1.592
			c-0.855,1.473-2.473,2.471-4.301,2.471C229.232,227.768,226.975,225.533,226.975,222.777z"/>
		<path fill="#34495E" d="M231.988,213.893c-0.666,0-1.164-0.523-1.164-1.165v-0.427c0-0.666,0.498-1.165,1.164-1.165
			c0.618,0,1.164,0.499,1.164,1.165v0.427C233.152,213.369,232.606,213.893,231.988,213.893z"/>
		<path fill="#FFFFFF" d="M240.98,220.973v1.544c0,0.665-0.499,1.164-1.164,1.164c-0.617,0-1.164-0.499-1.164-1.164v-2.472
			c0-0.022,0.024-0.022,0.024-0.047c-0.024-0.023-0.024-0.023-0.024-0.048c0-0.618,0.547-1.165,1.164-1.165
			c1.497,0,2.709-1.188,2.709-2.66c0-1.497-1.212-2.662-2.709-2.662c-0.975,0-1.83,0.524-2.281,1.308
			c-0.332,0.571-1.045,0.761-1.615,0.428c-0.547-0.332-0.736-1.021-0.403-1.591c0.854-1.474,2.47-2.472,4.3-2.472
			c2.756,0,5.013,2.233,5.013,4.989C244.829,218.478,243.189,220.449,240.98,220.973z"/>
		<path fill="#34495E" d="M240.98,226.175v0.428c0,0.665-0.499,1.165-1.164,1.165c-0.617,0-1.164-0.5-1.164-1.165v-0.428
			c0-0.642,0.547-1.163,1.164-1.163C240.481,225.012,240.98,225.533,240.98,226.175z"/>
	</g>
	<path fill="#FFFFFF" d="M158.164,255.891c0.097-5.29-4.121-9.656-9.381-9.752c-5.38-0.099-9.684,4.112-9.779,9.402
		c-0.049,2.644,0.963,5.059,2.665,6.822c1.422,1.474,3.31,2.496,5.435,2.819c-0.034,0.06-0.07,0.12-0.096,0.185
		c-0.143,0.314-0.219,0.662-0.227,1.037l-0.122,6.924c0.005,0.883,0.721,1.541,1.577,1.557c0.855,0.016,1.549-0.617,1.582-1.5
		l0.139-6.924c0.006-0.374-0.063-0.723-0.193-1.043c-0.028-0.065-0.059-0.127-0.09-0.188c2.137-0.245,4.075-1.198,5.551-2.618
		C156.99,260.908,158.116,258.533,158.164,255.891z M154.208,254.066c0.919,3.201-0.872,6.523-4.001,7.422s-6.41-0.968-7.329-4.169
		c-0.919-3.202,0.872-6.524,4.001-7.423S153.289,250.865,154.208,254.066z"/>
	<circle fill="#FFFFFF" cx="59.858" cy="127" r="9.161"/>
	<circle opacity="0.5" fill="#FFFFFF" cx="43.185" cy="144.452" r="5.179"/>
	<circle opacity="0.2" fill="#FFFFFF" cx="60.248" cy="150.738" r="3.383"/>
	<circle fill="#FFFFFF" cx="47.528" cy="311.753" r="6.225"/>
	<circle opacity="0.5" fill="#FFFFFF" cx="39.79" cy="323.612" r="3.519"/>
	<circle opacity="0.5" fill="#FFFFFF" cx="35.3" cy="232.911" r="3.519"/>
	<circle opacity="0.2" fill="#FFFFFF" cx="53.181" cy="325.189" r="2.299"/>
	<circle opacity="0.2" fill="#FFFFFF" cx="38.812" cy="238.979" r="2.299"/>
	<circle opacity="0.2" fill="#FFFFFF" cx="48.69" cy="334.17" r="2.299"/>
	<circle fill="#FFFFFF" cx="240.236" cy="111.652" r="7.905"/>
	<circle opacity="0.5" fill="#FFFFFF" cx="231.807" cy="126.822" r="5.179"/>
	<circle opacity="0.2" fill="#FFFFFF" cx="223.172" cy="117.406" r="3.383"/>
	<circle opacity="0.2" fill="#FFFFFF" cx="245.098" cy="136.265" r="1.742"/>
	<g>
		<path fill="#34495E" d="M191.585,198H105.77c-0.298,0-0.54-0.346-0.54-0.644c0-9.556,3.014-18.684,8.717-26.302
			c5.521-7.374,13.366-12.92,22.091-15.569c0.147-0.044,0.308-0.037,0.438,0.042c3.483,2.134,7.588,3.209,12.2,3.209
			c4.472,0,8.69-1.14,12.201-3.29c0.132-0.082,0.292-0.104,0.438-0.058c8.721,2.646,16.566,8.18,22.092,15.578
			c5.703,7.637,8.717,16.83,8.717,26.39C192.125,197.655,191.883,198,191.585,198z"/>
		<path opacity="0.1" d="M148.717,192c-30.856,0-42.745-3.184-42.745-3.184c-0.5,2.678-0.754,5.603-0.754,8.376
			c0,0.298,0.241,0.808,0.541,0.808h42.896h42.931c0.298,0,0.54-0.346,0.54-0.644c0-2.772-0.254-5.852-0.752-8.531
			c0,0-11.928,3.175-42.719,3.175H148.717z"/>
		<circle fill="#34495E" cx="148.677" cy="135.199" r="21.41"/>
	</g>
</g>
</svg>
