<?xml version="1.0" encoding="utf-8"?>
<!-- Generator: Adobe Illustrator 16.0.0, SVG Export Plug-In . SVG Version: 6.00 Build 0)  -->
<!DOCTYPE svg PUBLIC "-//W3C//DTD SVG 1.1//EN" "http://www.w3.org/Graphics/SVG/1.1/DTD/svg11.dtd">
<svg version="1.1" id="Capa_1" xmlns="http://www.w3.org/2000/svg" xmlns:xlink="http://www.w3.org/1999/xlink" x="0px" y="0px"
	 width="565px" height="180px" viewBox="0 0 565 180" enable-background="new 0 0 565 180" xml:space="preserve">
<rect fill="#FF6860" width="565" height="180"/>
<g>
	<g>
		<circle fill="#FFFFFF" cx="435.955" cy="93.852" r="28.738"/>
		
			<path fill="none" stroke="#FFFFFF" stroke-width="2.5308" stroke-linecap="round" stroke-miterlimit="10" stroke-dasharray="10.1233" d="
			M456.291,67.918c7.685,6.033,12.62,15.406,12.62,25.935c0,11.908-6.317,22.342-15.783,28.132"/>
		<g>
			<path fill="#BDC3C7" d="M453.699,107.992h-35.49c-0.122,0-0.224-0.168-0.224-0.293c0-3.952,1.248-7.739,3.605-10.89
				c2.282-3.049,5.528-5.35,9.136-6.445c0.062-0.02,0.126-0.019,0.182,0.016c1.441,0.882,3.139,1.324,5.047,1.324
				c1.848,0,3.595-0.471,5.046-1.361c0.055-0.032,0.119-0.043,0.18-0.024c3.607,1.096,6.851,3.384,9.137,6.443
				c2.357,3.156,3.605,6.985,3.605,10.938C453.923,107.824,453.822,107.992,453.699,107.992z"/>
			<circle fill="#BDC3C7" cx="435.955" cy="81.959" r="8.854"/>
		</g>
		<polygon fill="#FFFFFF" stroke="#FFFFFF" stroke-width="0.8436" stroke-miterlimit="10" points="436.36,121.748 455.341,137.776 
			447.173,114.999 		"/>
		<g>
			<polygon fill="#FFFFFF" stroke="#FFFFFF" stroke-width="0.3388" stroke-miterlimit="10" points="456.82,58.933 449.196,65.371 
				452.478,56.223 			"/>
			<path fill="#FFFFFF" d="M456.813,28.606c-8.452,0-15.306,6.853-15.306,15.306s6.854,15.306,15.306,15.306
				c8.453,0,15.304-6.853,15.304-15.306S465.266,28.606,456.813,28.606z M457,55.347c-6.251,0-11.318-5.067-11.318-11.318
				S450.749,32.711,457,32.711c6.249,0,11.316,5.067,11.316,11.318S463.249,55.347,457,55.347z"/>
			<path fill="#FFFFFF" d="M448.417,47.037c0-2.212,1.541-4.062,3.616-4.554v-1.451c0-0.625,0.468-1.094,1.094-1.094
				c0.581,0,1.093,0.469,1.093,1.094v2.322c0,0.021-0.021,0.021-0.021,0.044c0.021,0.022,0.021,0.022,0.021,0.044
				c0,0.582-0.512,1.095-1.093,1.095c-1.406,0-2.543,1.116-2.543,2.499c0,1.405,1.137,2.499,2.543,2.499
				c0.915,0,1.717-0.492,2.143-1.229c0.312-0.535,0.981-0.714,1.518-0.401c0.514,0.313,0.691,0.959,0.38,1.496
				c-0.804,1.383-2.323,2.321-4.04,2.321C450.536,51.725,448.417,49.625,448.417,47.037z"/>
			<path fill="#34495E" d="M453.125,38.69c-0.624,0-1.092-0.491-1.092-1.095v-0.401c0-0.625,0.466-1.095,1.092-1.095
				c0.581,0,1.095,0.47,1.095,1.095v0.401C454.22,38.199,453.706,38.69,453.125,38.69z"/>
			<path fill="#FFFFFF" d="M461.574,45.341v1.45c0,0.625-0.47,1.093-1.094,1.093c-0.58,0-1.094-0.468-1.094-1.093V44.47
				c0-0.022,0.022-0.022,0.022-0.044c-0.022-0.022-0.022-0.022-0.022-0.046c0-0.58,0.514-1.093,1.094-1.093
				c1.405,0,2.545-1.116,2.545-2.5c0-1.406-1.14-2.5-2.545-2.5c-0.916,0-1.72,0.492-2.144,1.228
				c-0.312,0.537-0.981,0.715-1.517,0.403c-0.513-0.312-0.692-0.959-0.378-1.495c0.803-1.385,2.318-2.323,4.038-2.323
				c2.591,0,4.71,2.099,4.71,4.687C465.19,42.997,463.648,44.85,461.574,45.341z"/>
			<path fill="#34495E" d="M461.574,50.227v0.402c0,0.626-0.47,1.096-1.094,1.096c-0.58,0-1.094-0.47-1.094-1.096v-0.402
				c0-0.602,0.514-1.091,1.094-1.091C461.104,49.136,461.574,49.625,461.574,50.227z"/>
		</g>
	</g>
	<g>
		<circle fill="#FFFFFF" cx="126.113" cy="95.707" r="29.639"/>
		
			<path fill="none" stroke="#FFFFFF" stroke-width="1.9683" stroke-linecap="round" stroke-miterlimit="10" stroke-dasharray="7.8731" d="
			M99.09,115.198c-4.111-5.414-6.551-12.169-6.551-19.492c0-9.962,4.514-18.868,11.609-24.788"/>
		<g>
			<path fill="#7F8C8D" d="M144.993,112.07h-37.76c-0.131,0-0.238,0.01-0.238-0.12c0-4.205,1.326-8.142,3.836-11.494
				c2.43-3.243,5.881-5.644,9.721-6.809c0.065-0.021,0.136,0.004,0.193,0.039c1.532,0.939,3.338,1.422,5.368,1.422
				c1.967,0,3.823-0.495,5.369-1.442c0.058-0.035,0.128-0.044,0.193-0.023c3.837,1.166,7.289,3.602,9.721,6.857
				c2.509,3.359,3.835,7.243,3.835,11.45C145.23,112.08,145.124,112.07,144.993,112.07z"/>
			<circle fill="#7F8C8D" cx="126.113" cy="84.751" r="9.42"/>
		</g>
		<polygon fill="#FFFFFF" stroke="#FFFFFF" stroke-width="0.6561" stroke-miterlimit="10" points="126.129,124.797 111.367,137.264 
			117.719,119.548 		"/>
		<g>
			<circle fill="#FFFFFF" cx="100.406" cy="41.864" r="17.362"/>
			<polygon fill="#FFFFFF" stroke="#FFFFFF" stroke-width="0.3844" stroke-miterlimit="10" points="103.442,58.906 112.09,66.209 
				108.369,55.831 			"/>
			<circle fill="#FF6860" cx="100.194" cy="41.998" r="12.838"/>
			<path fill="#FFFFFF" d="M98.916,45.336v-11.05c0-0.82,0.684-1.505,1.504-1.505c0.821,0,1.477,0.685,1.477,1.505v11.05
				c0,0.847-0.657,1.503-1.477,1.503C99.6,46.839,98.916,46.183,98.916,45.336z"/>
			<path fill="#34495E" d="M100.42,51.928c-0.82,0-1.504-0.657-1.504-1.505v-0.547c0-0.821,0.684-1.504,1.504-1.504
				c0.821,0,1.477,0.683,1.477,1.504v0.547C101.897,51.27,101.241,51.928,100.42,51.928z"/>
		</g>
		<circle fill="#FFFFFF" cx="103.146" cy="123.823" r="4.547"/>
		<circle opacity="0.5" fill="#FFFFFF" enable-background="new    " cx="97.494" cy="132.487" r="2.571"/>
		<circle opacity="0.5" fill="#FFFFFF" enable-background="new    " cx="94.212" cy="66.221" r="2.571"/>
		<circle opacity="0.2" fill="#FFFFFF" enable-background="new    " cx="107.276" cy="133.64" r="1.679"/>
		<circle opacity="0.2" fill="#FFFFFF" enable-background="new    " cx="96.779" cy="70.655" r="1.679"/>
		<circle opacity="0.2" fill="#FFFFFF" enable-background="new    " cx="103.996" cy="140.201" r="1.68"/>
	</g>
	<circle fill="#FFFFFF" cx="282.569" cy="99.576" r="40.957"/>
	<g>
		<g>
			<path fill="none" stroke="#FFFFFF" stroke-width="1.6768" stroke-linecap="round" stroke-miterlimit="10" d="M265.648,141.567
				c-1.04-0.42-2.062-0.877-3.061-1.37"/>
			
				<path fill="none" stroke="#FFFFFF" stroke-width="1.6768" stroke-linecap="round" stroke-miterlimit="10" stroke-dasharray="6.7206,6.7206" d="
				M256.801,136.79c-10.041-6.965-17.126-17.891-19-30.516"/>
			<path fill="none" stroke="#FFFFFF" stroke-width="1.6768" stroke-linecap="round" stroke-miterlimit="10" d="M237.432,102.93
				c-0.081-1.107-0.123-2.226-0.123-3.354"/>
		</g>
	</g>
	<g>
		<g>
			<path fill="none" stroke="#FFFFFF" stroke-width="1.6768" stroke-linecap="round" stroke-miterlimit="10" d="M302.25,140.197
				c-0.999,0.493-2.021,0.95-3.062,1.37"/>
			
				<path fill="none" stroke="#FFFFFF" stroke-width="1.6768" stroke-linecap="round" stroke-miterlimit="10" stroke-dasharray="6.7206,6.7206" d="
				M327.037,106.274c-1.874,12.625-8.959,23.551-18.999,30.516"/>
			
				<path fill="none" stroke="#FFFFFF" stroke-width="1.6768" stroke-linecap="round" stroke-miterlimit="10" stroke-dasharray="6.7206,6.7206" d="
				M400.771,99.576h-73.243c0,1.128-0.04,2.246-0.123,3.354"/>
		</g>
	</g>
	<circle fill="#FFFFFF" cx="326.325" cy="42.769" r="19.121"/>
	<polygon fill="#FFFFFF" stroke="#FFFFFF" stroke-width="0.4233" stroke-miterlimit="10" points="326.335,61.537 316.811,69.579 
		320.91,58.15 	"/>
	<circle fill="#FF6860" cx="326.559" cy="42.916" r="14.139"/>
	<circle fill="#FFFFFF" cx="235.441" cy="49.345" r="17.221"/>
	<polygon fill="#FFFFFF" stroke="#FFFFFF" stroke-width="0.3812" stroke-miterlimit="10" points="238.453,66.249 247.031,73.491 
		243.339,63.198 	"/>
	<circle fill="#FF6860" cx="235.231" cy="49.478" r="12.735"/>
	<circle fill="#FFFFFF" cx="278.815" cy="26.001" r="19.121"/>
	<polygon fill="#FFFFFF" stroke="#FFFFFF" stroke-width="0.4233" stroke-miterlimit="10" points="282.74,44.769 273.216,52.811 
		277.314,41.383 	"/>
	<circle fill="#FF6860" cx="278.582" cy="26.149" r="14.14"/>
	<path fill="#FFFFFF" d="M328.337,43.206l1.744,0.68l0.97-3.161l-2.058-0.639c-0.003-0.063-0.139-0.34-0.143-0.401
		c-0.012-0.153,0.137,0.065-0.185-0.672l1.814-0.925l-1.458-2.861l-1.838,0.937c-0.066,0.034-0.263-0.156-0.451-0.297l0.644-1.783
		l-3.176-0.999l-0.321,1.742c-0.263,0.003-0.458,0.017-0.494-0.054l-0.843-1.652l-3.576,1.823l0.854,1.676
		c0.028,0.053-0.232,0.265-0.35,0.414l-1.774-0.583l-1.035,3.195l1.7,0.549c-0.004,0.187-0.077,0.214-0.061,0.399
		c0.005,0.092-0.019,0.106-0.047,0.121l-1.393,0.71l1.459,2.861l1.311-0.668c0.438,0.678,0.521,0.607,0.743,0.774l-0.524,1.899
		l3.226,1.095l0.57-1.727c0.259,0,0.734-0.094,0.773-0.02l0.745,1.465l3.578-1.823l-0.748-1.465
		C327.946,43.725,328.157,43.473,328.337,43.206z M324.698,42.114c-0.989,0.505-2.2,0.112-2.705-0.878
		c-0.505-0.989-0.11-2.201,0.879-2.704c0.988-0.505,2.2-0.111,2.705,0.879C326.082,40.399,325.688,41.612,324.698,42.114z"/>
	<path fill="#34495E" d="M336.335,48.153l1.178,0.067l-0.035-2.081l-1.355,0.017c-0.014-0.037-0.149-0.177-0.164-0.211
		c-0.036-0.089,0.095,0.012-0.24-0.366l0.905-0.907l-1.428-1.43l-0.92,0.919c-0.032,0.033-0.187-0.042-0.326-0.09l0.038-1.193
		l-2.095,0.021l0.146,1.105c-0.157,0.052-0.271,0.099-0.307,0.063l-0.825-0.826l-1.787,1.787l0.837,0.838
		c0.026,0.027-0.089,0.203-0.13,0.316l-1.175-0.005l0.003,2.113l1.122,0c0.034,0.112-0.003,0.142,0.043,0.25
		c0.021,0.054,0.009,0.066-0.005,0.081l-0.695,0.696l1.43,1.429l0.653-0.655c0.395,0.321,0.432,0.262,0.597,0.319l0.056,1.24
		L334,51.677l0.004-1.144c0.155-0.051,0.422-0.2,0.459-0.163l0.732,0.731l1.787-1.786l-0.732-0.732
		C336.203,48.539,336.28,48.348,336.335,48.153z M333.945,48.207c-0.493,0.494-1.296,0.494-1.791,0
		c-0.493-0.493-0.493-1.296,0-1.789c0.495-0.495,1.298-0.495,1.791,0C334.439,46.911,334.439,47.714,333.945,48.207z"/>
	<path fill="#34495E" d="M328.63,51.483l0.915,0.053l-0.027-1.617l-1.054,0.013c-0.011-0.028-0.115-0.137-0.127-0.165
		c-0.028-0.07,0.073,0.009-0.188-0.284l0.705-0.705l-1.11-1.111l-0.714,0.713c-0.025,0.026-0.146-0.032-0.254-0.069l0.03-0.927
		l-1.629,0.016l0.114,0.859c-0.121,0.041-0.21,0.077-0.237,0.05l-0.641-0.642l-1.388,1.388l0.649,0.65
		c0.021,0.022-0.068,0.159-0.101,0.246l-0.913-0.004l0.002,1.643l0.873-0.001c0.026,0.087-0.004,0.111,0.032,0.195
		c0.017,0.042,0.008,0.052-0.004,0.063l-0.54,0.541l1.11,1.11l0.509-0.508c0.306,0.249,0.336,0.204,0.463,0.248l0.043,0.963
		l1.665,0.022l0.004-0.89c0.12-0.039,0.328-0.154,0.356-0.125l0.569,0.569l1.388-1.388l-0.568-0.569
		C328.527,51.784,328.587,51.634,328.63,51.483z M326.772,51.526c-0.384,0.385-1.006,0.385-1.39,0c-0.384-0.383-0.384-1.007,0-1.39
		c0.384-0.384,1.006-0.384,1.39,0C327.157,50.519,327.157,51.143,326.772,51.526z"/>
	<g>
		<path fill="#34495E" d="M277.371,31.324c-0.263,0-0.477,0.006-0.477,0.312c0,0.304,0.213,0.311,0.477,0.311h2.787
			c0.264,0,0.477-0.007,0.477-0.311c0-0.305-0.213-0.312-0.477-0.312H277.371z"/>
		<path fill="#34495E" d="M277.371,32.569c-0.263,0-0.477,0.008-0.477,0.312c0,0.304,0.213,0.31,0.477,0.31h2.787
			c0.264,0,0.477-0.006,0.477-0.31c0-0.305-0.213-0.312-0.477-0.312H277.371z"/>
		<path fill="#34495E" d="M277.371,33.813c-0.263,0-0.477,0.008-0.477,0.312s0.213,0.311,0.477,0.311h2.787
			c0.264,0,0.477-0.006,0.477-0.311c0-0.305-0.213-0.312-0.477-0.312H277.371z"/>
		<path fill="#34495E" d="M280.347,34.907c0,0.892-0.723,1.614-1.614,1.614s-1.615-0.722-1.615-1.614"/>
		<path fill="#FFFFFF" d="M277.139,30.08c0-1.868-1.434-3.014-2.485-4.262c-1.068-1.269-1.972-2.685-2.087-4.39
			c-0.246-3.646,2.938-6.287,6.438-6.287h-0.248H278.7c3.5,0,6.659,2.679,6.414,6.325c-0.115,1.705-1.044,3.028-2.111,4.296
			c-1.052,1.248-2.534,2.45-2.534,4.317H277.139z"/>
		<path fill="none" stroke="#FF6860" stroke-width="0.2965" stroke-linejoin="round" stroke-miterlimit="10" d="M279.723,30.861
			l0.517-4.433c0,0-0.975,0.462-1.326,0.462c-0.526,0-1.082-1.123-0.305-1.123c0.928,0,0.243,1.123-0.388,1.123
			c-0.28,0-1.018-0.465-1.018-0.465l0.752,4.371"/>
	</g>
	<path fill="#FFFFFF" d="M226.233,52.83c0-2.371,1.652-4.358,3.88-4.886v-1.556c0-0.671,0.502-1.174,1.173-1.174
		c0.623,0,1.174,0.503,1.174,1.174v2.49c0,0.024-0.024,0.024-0.024,0.047c0.024,0.024,0.024,0.024,0.024,0.048
		c0,0.624-0.551,1.174-1.174,1.174c-1.509,0-2.73,1.197-2.73,2.682c0,1.508,1.221,2.683,2.73,2.683c0.981,0,1.843-0.527,2.298-1.318
		c0.335-0.575,1.054-0.766,1.628-0.431c0.55,0.335,0.742,1.03,0.407,1.604c-0.862,1.484-2.491,2.49-4.334,2.49
		C228.508,57.858,226.233,55.607,226.233,52.83z"/>
	<path fill="#34495E" d="M231.009,43.809c-1.013,0-1.771-0.795-1.771-1.771v-0.65c0-1.013,0.758-1.771,1.771-1.771
		c0.939,0,1.771,0.758,1.771,1.771v0.65C232.781,43.013,231.949,43.809,231.009,43.809z"/>
	<path fill="#FFFFFF" d="M240.35,51.01v1.556c0,0.67-0.502,1.172-1.173,1.172c-0.623,0-1.173-0.502-1.173-1.172v-2.491
		c0-0.023,0.025-0.023,0.025-0.048c-0.025-0.023-0.025-0.023-0.025-0.047c0-0.623,0.551-1.174,1.173-1.174
		c1.508,0,2.73-1.197,2.73-2.683c0-1.508-1.222-2.682-2.73-2.682c-0.983,0-1.844,0.528-2.299,1.318
		c-0.334,0.575-1.053,0.766-1.628,0.43c-0.551-0.334-0.742-1.03-0.406-1.604c0.862-1.485,2.489-2.491,4.334-2.491
		c2.778,0,5.052,2.251,5.052,5.028C244.229,48.495,242.577,50.483,240.35,51.01z"/>
	<path fill="#34495E" d="M240.35,56.254v0.431c0,0.671-0.502,1.174-1.173,1.174c-0.623,0-1.173-0.503-1.173-1.174v-0.431
		c0-0.646,0.551-1.172,1.173-1.172C239.847,55.081,240.35,55.607,240.35,56.254z"/>
	<circle fill="#FFFFFF" cx="229.569" cy="77.558" r="5.702"/>
	<circle opacity="0.5" fill="#FFFFFF" enable-background="new    " cx="213.62" cy="78.555" r="3.224"/>
	<circle opacity="0.5" fill="#FFFFFF" enable-background="new    " cx="147.336" cy="123.823" r="3.224"/>
	<circle opacity="0.5" fill="#FFFFFF" enable-background="new    " cx="129.353" cy="50.43" r="3.224"/>
	<circle opacity="0.2" fill="#FFFFFF" enable-background="new    " cx="237.309" cy="87.401" r="2.105"/>
	<circle opacity="0.2" fill="#FFFFFF" enable-background="new    " cx="135.534" cy="135.058" r="2.105"/>
	<circle opacity="0.2" fill="#FFFFFF" enable-background="new    " cx="145.231" cy="63.865" r="2.105"/>
	<circle fill="#FFFFFF" cx="339.487" cy="70.526" r="4.92"/>
	<circle fill="#FFFFFF" cx="477.037" cy="59.226" r="4.92"/>
	<path opacity="0.5" fill="#FFFFFF" enable-background="new    " d="M334.241,76.744c1.778,0,3.222,1.443,3.222,3.224
		c0,1.78-1.443,3.223-3.222,3.223c-1.782,0-3.225-1.443-3.225-3.223C331.017,78.188,332.459,76.744,334.241,76.744z"/>
	<path opacity="0.5" fill="#FFFFFF" enable-background="new    " d="M403.996,111.975c1.778,0,3.222,1.443,3.222,3.224
		s-1.443,3.224-3.222,3.224c-1.782,0-3.225-1.443-3.225-3.224S402.214,111.975,403.996,111.975z"/>
	<circle opacity="0.5" fill="#FFFFFF" enable-background="new    " cx="427.102" cy="52.811" r="3.224"/>
	<circle opacity="0.2" fill="#FFFFFF" enable-background="new    " cx="328.866" cy="74.107" r="2.105"/>
	<circle opacity="0.2" fill="#FFFFFF" enable-background="new    " cx="423.877" cy="63.198" r="2.105"/>
	<circle opacity="0.2" fill="#FFFFFF" enable-background="new    " cx="468.911" cy="70.526" r="2.105"/>
	<circle opacity="0.2" fill="#FFFFFF" enable-background="new    " cx="342.513" cy="85.845" r="1.084"/>
	<circle opacity="0.2" fill="#FFFFFF" enable-background="new    " cx="412.33" cy="63.198" r="1.084"/>
	<g>
		<path fill="#34495E" d="M309.207,124.061h-53.411c-0.186,0-0.336-0.112-0.336-0.298c0-5.946,1.876-11.577,5.425-16.317
			c3.437-4.59,8.319-8.016,13.75-9.665c0.091-0.026,0.192-0.01,0.273,0.039c2.168,1.329,4.722,2.004,7.593,2.004
			c2.784,0,5.41-0.706,7.593-2.044c0.083-0.051,0.182-0.063,0.273-0.035c5.429,1.648,10.311,5.094,13.75,9.697
			c3.55,4.754,5.426,10.372,5.426,16.321C309.543,123.948,309.392,124.061,309.207,124.061z"/>
		<path opacity="0.1" enable-background="new    " d="M282.526,120.326c-19.205,0-26.605-1.878-26.605-1.878
			c-0.311,1.667-0.469,3.435-0.469,5.161c0,0.187,0.15,0.451,0.336,0.451h26.699h26.72c0.185,0,0.336-0.112,0.336-0.298
			c0-1.725-0.158-3.693-0.469-5.36c0,0-7.423,1.924-26.587,1.924H282.526z"/>
		<circle fill="#34495E" cx="282.502" cy="85.182" r="13.326"/>
	</g>
	
		<line fill="none" stroke="#FFFFFF" stroke-width="1.6768" stroke-linecap="round" stroke-miterlimit="10" stroke-dasharray="6.7206,6.7206" x1="232.781" y1="99.576" x2="162.846" y2="99.576"/>
</g>
</svg>
