<?xml version="1.0" encoding="utf-8"?>
<!-- Generator: Adobe Illustrator 16.0.0, SVG Export Plug-In . SVG Version: 6.00 Build 0)  -->
<!DOCTYPE svg PUBLIC "-//W3C//DTD SVG 1.1//EN" "http://www.w3.org/Graphics/SVG/1.1/DTD/svg11.dtd">
<svg version="1.1" id="Capa_1" xmlns="http://www.w3.org/2000/svg" xmlns:xlink="http://www.w3.org/1999/xlink" x="0px" y="0px"
	 width="312px" height="284px" viewBox="0 0 312 284" enable-background="new 0 0 312 284" xml:space="preserve">
<rect x="-0.5" y="0.5" fill="#B58AF7" width="314" height="284"/>
<g>
	
		<image overflow="visible" opacity="0.2" enable-background="new    " width="153" height="111" xlink:href="7C8CFB71.png"  transform="matrix(1.1459 0 0 1.1431 135.2617 61.4375)">
	</image>
	<g>
		<rect x="146.559" y="72.877" fill="#FFFFFF" width="146.143" height="98.132"/>
	</g>
</g>
<g>
	
		<image overflow="visible" opacity="0.25" enable-background="new    " width="138" height="137" xlink:href="7C8CFB73.png"  transform="matrix(1.1452 0 0 1.1451 6.0723 46.4404)">
	</image>
	<g>
		<rect x="17.669" y="57.65" fill="#FF6860" width="128.89" height="128.237"/>
	</g>
</g>
<path fill="#FFFFFF" d="M129.795,181.26H36.597c-0.324,0-0.587-0.809-0.587-1.13c0-10.383,3.271-38.464,9.467-46.739
	c5.996-8.008,14.516-14.137,23.99-17.014c0.161-0.05,0.336-0.095,0.479-0.006c3.779,2.315,8.238,3.458,13.25,3.458
	c4.854,0,9.437-1.252,13.249-3.587c0.144-0.087,0.318-0.118,0.476-0.07c9.469,2.875,17.993,8.878,23.991,16.917
	c6.193,8.292,9.467,36.658,9.467,47.042C130.381,180.451,130.118,181.26,129.795,181.26z"/>
<path opacity="0.1" enable-background="new    " d="M83.238,174.34c-33.508,0-46.419-3.688-46.419-3.688
	c-0.544,2.908-0.821,6.402-0.821,9.411c0,0.325,0.262,1.196,0.588,1.196h46.586h46.624c0.324,0,0.586-0.809,0.586-1.13
	c0-3.013-0.275-6.344-0.818-9.254c0,0-12.952,3.464-46.391,3.464H83.238z"/>
<circle fill="#FFFFFF" cx="83.196" cy="92.445" r="23.252"/>
<g>
	<polygon fill="#FF6860" points="82.938,128.198 85.41,128.198 87.885,121.277 82.938,121.277 77.994,121.277 80.468,128.198 	"/>
	<polygon fill="#FF6860" points="82.938,182.411 87.885,182.411 84.916,132.813 82.938,132.813 80.961,132.813 77.994,182.411 	"/>
</g>
<circle fill="none" stroke="#FF6860" stroke-width="2.6933" stroke-miterlimit="10" cx="72.423" cy="92.445" r="7.435"/>
<circle fill="none" stroke="#FF6860" stroke-width="2.6933" stroke-miterlimit="10" cx="93.969" cy="92.445" r="7.435"/>
<line fill="none" stroke="#FF6860" stroke-width="2.6933" stroke-miterlimit="10" x1="79.859" y1="92.445" x2="86.533" y2="92.445"/>
<line fill="none" stroke="#FF6860" stroke-width="2.6933" stroke-miterlimit="10" x1="64.987" y1="92.445" x2="59.945" y2="92.445"/>
<line fill="none" stroke="#FF6860" stroke-width="2.6933" stroke-miterlimit="10" x1="102.527" y1="92.445" x2="106.449" y2="92.445"/>
<g opacity="0.1">
	<path d="M218.535,146.127h-53.281c-1.258,0-2.283-1.021-2.283-2.284s1.023-2.283,2.283-2.283h53.281
		c1.264,0,2.284,1.022,2.284,2.283C220.82,145.105,219.799,146.127,218.535,146.127z"/>
</g>
<g opacity="0.1">
	<path d="M218.535,131.665h-53.281c-1.258,0-2.283-1.021-2.283-2.284c0-1.263,1.023-2.284,2.283-2.284h53.281
		c1.264,0,2.284,1.021,2.284,2.284C220.819,130.644,219.799,131.665,218.535,131.665z"/>
</g>
<g opacity="0.1">
	<path d="M180.358,156.021h-13.699c-1.259,0-2.284-1.022-2.284-2.282c0-1.263,1.023-2.283,2.284-2.283h13.699
		c1.263,0,2.284,1.021,2.284,2.283C182.643,154.998,181.621,156.021,180.358,156.021z"/>
</g>
<g opacity="0.1">
	<path d="M274.266,131.665h-48.265c-1.262,0-2.283-1.021-2.283-2.284c0-1.263,1.023-2.284,2.283-2.284h48.265
		c1.261,0,2.284,1.021,2.284,2.284C276.55,130.644,275.526,131.665,274.266,131.665z"/>
</g>
<g opacity="0.5">
	<path fill="#FF6860" d="M243.764,87.295h-48.266c-1.26,0-2.282-1.023-2.282-2.285c0-1.263,1.022-2.283,2.282-2.283h48.266
		c1.261,0,2.283,1.021,2.283,2.283C246.047,86.271,245.022,87.295,243.764,87.295z"/>
</g>
<g>
	<path fill="#FFEF27" d="M177.866,115.866c-0.113,0-0.229-0.028-0.334-0.083l-5.686-2.989l-5.685,2.989
		c-0.244,0.127-0.535,0.105-0.76-0.054c-0.221-0.161-0.332-0.433-0.286-0.704l1.085-6.331l-4.599-4.482
		c-0.2-0.192-0.268-0.478-0.184-0.738c0.085-0.262,0.312-0.451,0.582-0.491l6.357-0.922l2.841-5.76c0.123-0.245,0.372-0.4,0.647-0.4
		c0.274,0,0.523,0.155,0.645,0.4l2.844,5.76l6.357,0.922c0.271,0.04,0.496,0.228,0.581,0.491c0.084,0.262,0.013,0.547-0.185,0.738
		l-4.6,4.482l1.086,6.331c0.047,0.271-0.066,0.543-0.288,0.704C178.164,115.819,178.018,115.866,177.866,115.866z"/>
	<path opacity="0.2" fill="#34495E" enable-background="new    " d="M171.848,95.901c0.274,0,0.523,0.155,0.645,0.4l2.844,5.76
		l6.358,0.922c0.269,0.039,0.494,0.228,0.579,0.491c0.084,0.261,0.015,0.548-0.185,0.738l-4.599,4.484l1.087,6.331
		c0.046,0.27-0.067,0.542-0.287,0.703c-0.126,0.091-0.272,0.139-0.426,0.139c-0.11,0-0.228-0.027-0.332-0.082l-5.684-2.989"/>
</g>
<g>
	<path fill="#FFEF27" d="M201.762,115.866c-0.116,0-0.233-0.028-0.337-0.083l-5.685-2.989l-5.688,2.989
		c-0.24,0.127-0.532,0.105-0.757-0.054c-0.221-0.161-0.33-0.433-0.285-0.704l1.085-6.331l-4.597-4.482
		c-0.2-0.192-0.267-0.478-0.186-0.738c0.083-0.263,0.312-0.451,0.582-0.491l6.355-0.922l2.843-5.76c0.12-0.245,0.373-0.4,0.649-0.4
		c0.271,0,0.519,0.155,0.644,0.4l2.842,5.76l6.359,0.922c0.27,0.04,0.493,0.228,0.579,0.491c0.085,0.262,0.015,0.547-0.185,0.738
		l-4.599,4.482l1.088,6.331c0.044,0.271-0.068,0.543-0.286,0.704C202.056,115.819,201.909,115.866,201.762,115.866z"/>
	<path opacity="0.2" fill="#34495E" enable-background="new    " d="M195.74,95.901c0.271,0,0.521,0.155,0.646,0.4l2.841,5.76
		l6.359,0.922c0.27,0.039,0.494,0.228,0.579,0.491c0.085,0.261,0.014,0.548-0.184,0.738l-4.603,4.484l1.089,6.331
		c0.047,0.27-0.067,0.542-0.286,0.703c-0.126,0.091-0.274,0.139-0.426,0.139c-0.112,0-0.229-0.027-0.332-0.082l-5.687-2.989"/>
</g>
<g>
	<path fill="#FFEF27" d="M225.652,115.866c-0.118,0-0.233-0.028-0.335-0.083l-5.686-2.989l-5.688,2.989
		c-0.243,0.127-0.536,0.105-0.758-0.054c-0.219-0.161-0.329-0.433-0.287-0.704l1.084-6.331l-4.596-4.482
		c-0.2-0.192-0.267-0.478-0.183-0.738c0.084-0.263,0.311-0.451,0.579-0.491l6.358-0.922l2.843-5.76c0.122-0.245,0.371-0.4,0.646-0.4
		c0.276,0,0.525,0.155,0.647,0.4l2.841,5.76l6.358,0.922c0.269,0.04,0.495,0.228,0.581,0.491c0.083,0.262,0.013,0.547-0.187,0.738
		l-4.594,4.482l1.083,6.331c0.044,0.271-0.068,0.543-0.288,0.704C225.948,115.819,225.8,115.866,225.652,115.866z"/>
	<path opacity="0.2" fill="#34495E" enable-background="new    " d="M219.632,95.901c0.276,0,0.525,0.155,0.647,0.4l2.841,5.76
		l6.358,0.922c0.269,0.039,0.495,0.228,0.581,0.491c0.083,0.261,0.013,0.548-0.187,0.738l-4.594,4.484l1.083,6.331
		c0.044,0.27-0.068,0.542-0.288,0.703c-0.123,0.091-0.273,0.139-0.425,0.139c-0.112,0-0.23-0.027-0.332-0.082l-5.688-2.989"/>
</g>
<g>
	<path fill="#FFEF27" d="M249.543,115.866c-0.114,0-0.23-0.028-0.336-0.083l-5.685-2.989l-5.686,2.989
		c-0.241,0.127-0.536,0.105-0.758-0.054c-0.22-0.161-0.329-0.433-0.287-0.704l1.086-6.331l-4.597-4.482
		c-0.197-0.192-0.268-0.478-0.186-0.738c0.089-0.263,0.313-0.451,0.584-0.491l6.355-0.922l2.844-5.76
		c0.121-0.245,0.371-0.4,0.646-0.4c0.273,0,0.523,0.155,0.645,0.4l2.844,5.76l6.355,0.922c0.273,0.04,0.498,0.228,0.582,0.491
		c0.086,0.262,0.014,0.547-0.184,0.738l-4.598,4.482l1.084,6.331c0.046,0.271-0.064,0.543-0.286,0.704
		C249.84,115.819,249.692,115.866,249.543,115.866z"/>
	<path opacity="0.2" fill="#34495E" enable-background="new    " d="M243.524,95.901c0.273,0,0.521,0.155,0.644,0.4l2.844,5.76
		l6.357,0.922c0.273,0.039,0.498,0.228,0.579,0.491c0.087,0.261,0.016,0.548-0.183,0.738l-4.597,4.484l1.085,6.331
		c0.045,0.27-0.066,0.542-0.289,0.703c-0.124,0.091-0.275,0.139-0.422,0.139c-0.114,0-0.232-0.027-0.334-0.082l-5.685-2.989"/>
</g>
<g>
	<path fill="#FFEF27" d="M273.434,115.866c-0.115,0-0.229-0.028-0.335-0.083l-5.686-2.989l-5.687,2.989
		c-0.241,0.127-0.535,0.105-0.757-0.054c-0.218-0.161-0.328-0.433-0.286-0.704l1.086-6.331l-4.598-4.482
		c-0.198-0.192-0.267-0.478-0.186-0.738c0.086-0.263,0.313-0.451,0.583-0.491l6.355-0.922l2.843-5.76
		c0.124-0.245,0.372-0.4,0.648-0.4c0.272,0,0.523,0.155,0.647,0.4l2.84,5.76l6.36,0.922c0.269,0.04,0.495,0.228,0.576,0.491
		c0.091,0.262,0.017,0.547-0.181,0.738l-4.6,4.482l1.085,6.331c0.045,0.271-0.065,0.543-0.284,0.704
		C273.732,115.819,273.588,115.866,273.434,115.866z"/>
	<path opacity="0.2" fill="#34495E" enable-background="new    " d="M267.414,95.901c0.273,0,0.525,0.155,0.646,0.4l2.842,5.76
		l6.358,0.922c0.271,0.039,0.496,0.228,0.579,0.491c0.088,0.261,0.016,0.548-0.183,0.738l-4.599,4.484l1.086,6.331
		c0.045,0.27-0.066,0.542-0.287,0.703c-0.125,0.091-0.274,0.139-0.424,0.139c-0.114,0-0.229-0.027-0.336-0.082l-5.684-2.989"/>
</g>
<g enable-background="new    ">
	<path fill="#FF6860" d="M240.345,140.854c0,0.568-0.177,1.028-0.53,1.383c-0.354,0.354-0.955,0.53-1.799,0.53h-6.381l-0.836,4.853
		c1.051-0.214,2.002-0.321,2.862-0.321c1.221,0,2.298,0.184,3.229,0.546c0.932,0.365,1.714,0.868,2.347,1.512
		c0.631,0.643,1.107,1.395,1.429,2.257c0.322,0.862,0.482,1.792,0.482,2.789c0,1.231-0.217,2.355-0.65,3.373
		c-0.433,1.02-1.037,1.891-1.809,2.613s-1.684,1.284-2.74,1.68c-1.055,0.396-2.205,0.596-3.445,0.596
		c-0.73,0-1.42-0.075-2.074-0.225c-0.652-0.152-1.268-0.353-1.84-0.604c-0.573-0.25-1.104-0.541-1.59-0.868
		c-0.488-0.326-0.924-0.673-1.312-1.036l1.224-1.687c0.256-0.364,0.593-0.548,1.01-0.548c0.27,0,0.543,0.087,0.821,0.256
		c0.278,0.173,0.598,0.359,0.956,0.563c0.358,0.202,0.782,0.391,1.27,0.563c0.488,0.17,1.075,0.256,1.762,0.256
		c0.727,0,1.369-0.116,1.928-0.354c0.557-0.235,1.02-0.563,1.39-0.987c0.37-0.424,0.649-0.926,0.836-1.51
		c0.188-0.583,0.28-1.219,0.28-1.904c0-1.266-0.366-2.251-1.099-2.965c-0.735-0.712-1.819-1.067-3.255-1.067
		c-1.103,0-2.233,0.204-3.391,0.609l-2.475-0.707l1.928-11.282h11.475v1.688H240.345z"/>
	<path fill="#FF6860" d="M247.657,162.453c-0.184,0.493-0.474,0.862-0.878,1.108c-0.4,0.247-0.81,0.37-1.228,0.37h-1.687
		l9.384-24.008c0.17-0.45,0.435-0.795,0.788-1.037c0.354-0.242,0.766-0.361,1.236-0.361h1.703L247.657,162.453z"/>
	<path fill="#FF6860" d="M273.964,140.854c0,0.568-0.177,1.028-0.531,1.383c-0.353,0.354-0.953,0.53-1.8,0.53h-6.38l-0.836,4.853
		c1.051-0.214,2.005-0.321,2.859-0.321c1.222,0,2.299,0.184,3.23,0.546c0.934,0.365,1.716,0.868,2.349,1.512
		c0.632,0.643,1.108,1.395,1.429,2.257c0.322,0.862,0.481,1.792,0.481,2.789c0,1.231-0.216,2.355-0.651,3.373
		c-0.432,1.02-1.034,1.891-1.806,2.613c-0.772,0.723-1.685,1.284-2.74,1.68c-1.056,0.396-2.205,0.596-3.447,0.596
		c-0.73,0-1.42-0.075-2.074-0.225c-0.651-0.152-1.266-0.353-1.839-0.604c-0.574-0.25-1.104-0.541-1.591-0.868
		c-0.488-0.326-0.924-0.673-1.312-1.036l1.224-1.687c0.257-0.364,0.594-0.548,1.013-0.548c0.266,0,0.54,0.087,0.817,0.256
		c0.279,0.173,0.598,0.359,0.959,0.563c0.357,0.202,0.781,0.391,1.269,0.563c0.487,0.17,1.073,0.256,1.761,0.256
		c0.729,0,1.371-0.116,1.928-0.354c0.559-0.235,1.021-0.563,1.39-0.987c0.369-0.424,0.649-0.926,0.836-1.51
		c0.187-0.583,0.281-1.219,0.281-1.904c0-1.266-0.368-2.251-1.099-2.965c-0.736-0.712-1.82-1.067-3.257-1.067
		c-1.102,0-2.231,0.204-3.391,0.609l-2.473-0.707l1.928-11.282h11.475v1.688H273.964z"/>
</g>
</svg>
