<?xml version="1.0" encoding="utf-8"?>
<!-- Generator: Adobe Illustrator 16.0.0, SVG Export Plug-In . SVG Version: 6.00 Build 0)  -->
<!DOCTYPE svg PUBLIC "-//W3C//DTD SVG 1.1//EN" "http://www.w3.org/Graphics/SVG/1.1/DTD/svg11.dtd">
<svg version="1.1" id="Capa_1" xmlns="http://www.w3.org/2000/svg" xmlns:xlink="http://www.w3.org/1999/xlink" x="0px" y="0px"
	 width="396px" height="549px" viewBox="443.979 0 396 549" enable-background="new 443.979 0 396 549" xml:space="preserve">
<rect x="444.348" fill="#FF6860" width="395.631" height="549"/>
<path opacity="0.1" enable-background="new    " d="M642.216,352.492c-53.843,0-74.588-5.924-74.588-5.924
	c-0.875,4.672-1.32,10.285-1.32,15.121c0,0.521,0.422,1.921,0.945,1.921h74.856h74.917c0.52,0,0.943-1.3,0.943-1.815
	c0-4.842-0.44-10.193-1.315-14.87c0,0-20.812,5.567-74.542,5.567H642.216L642.216,352.492z"/>
<g>
	<path fill="#FFFFFF" d="M717.024,363.61H567.271c-0.519,0-0.942-1.297-0.942-1.815c0-16.682,5.257-61.804,15.212-75.101
		c9.635-12.867,23.324-22.715,38.549-27.34c0.258-0.079,0.54-0.152,0.769-0.008c6.073,3.719,13.24,5.558,21.291,5.558
		c7.802,0,15.163-2.012,21.288-5.766c0.232-0.141,0.514-0.189,0.766-0.111c15.216,4.619,28.91,14.266,38.551,27.184
		c9.951,13.322,15.21,58.902,15.21,75.589C717.966,362.313,717.541,363.61,717.024,363.61z"/>
	<path fill="#FFFFFF" d="M642.145,183.54c20.636,0,37.364,16.727,37.364,37.361s-16.729,37.361-37.364,37.361
		c-20.631,0-37.358-16.727-37.358-37.361S621.514,183.54,642.145,183.54z"/>
	<g>
		<polygon fill="#FF6860" points="641.732,278.351 645.706,278.351 649.682,267.229 641.732,267.229 633.79,267.229 
			637.763,278.351 		"/>
		<polygon fill="#FF6860" points="641.732,365.461 649.682,365.461 644.91,285.765 641.732,285.765 638.557,285.765 633.79,365.461 
					"/>
	</g>
	<circle fill="none" stroke="#FF6860" stroke-width="4.3277" stroke-miterlimit="10" cx="624.837" cy="220.901" r="11.946"/>
	<circle fill="none" stroke="#FF6860" stroke-width="4.3277" stroke-miterlimit="10" cx="659.46" cy="220.901" r="11.946"/>
	
		<line fill="none" stroke="#FF6860" stroke-width="4.3277" stroke-miterlimit="10" x1="636.785" y1="220.899" x2="647.512" y2="220.899"/>
	
		<line fill="none" stroke="#FF6860" stroke-width="4.3277" stroke-miterlimit="10" x1="612.89" y1="220.899" x2="604.786" y2="220.899"/>
	
		<line fill="none" stroke="#FF6860" stroke-width="4.3277" stroke-miterlimit="10" x1="673.212" y1="220.899" x2="679.513" y2="220.899"/>
</g>
<g>
	<path fill="#FFFFFF" d="M758.297,216.021c16.647,0,30.144,13.495,30.144,30.143c0,16.646-13.496,30.141-30.144,30.141
		c-16.645,0-30.141-13.494-30.141-30.141C728.156,229.515,741.652,216.021,758.297,216.021z"/>
	<path fill="#FFFFFF" d="M807.193,298.853c-7.777-10.421-18.826-18.205-31.101-21.932c-0.204-0.063-0.432-0.022-0.619,0.091
		c-4.941,3.027-10.88,4.651-17.174,4.651c-6.495,0-12.277-1.483-17.177-4.483c-0.186-0.116-0.413-0.059-0.621,0.006
		c-8.551,2.599-16.499,7.242-23.165,13.326c7.419,19.78,11.324,55.778,11.367,70.784h90.003c0.417,0,0.761-1.047,0.757-1.461
		C819.464,346.373,815.223,309.601,807.193,298.853z"/>
</g>
<g>
	<circle fill="#FFFFFF" cx="526.029" cy="246.163" r="30.142"/>
	<path fill="#FFFFFF" d="M477.134,298.853c7.777-10.421,18.826-18.205,31.103-21.932c0.204-0.063,0.43-0.022,0.617,0.091
		c4.943,3.027,10.88,4.651,17.176,4.651c6.495,0,12.277-1.483,17.175-4.483c0.186-0.116,0.413-0.059,0.621,0.006
		c8.553,2.599,16.501,7.242,23.165,13.326c-7.419,19.78-11.323,55.778-11.365,70.784H465.62c-0.417,0-0.761-1.047-0.757-1.461
		C464.863,346.373,469.104,309.601,477.134,298.853z"/>
</g>
</svg>
