<?xml version="1.0" encoding="utf-8"?>
<!-- Generator: Adobe Illustrator 16.0.0, SVG Export Plug-In . SVG Version: 6.00 Build 0)  -->
<!DOCTYPE svg PUBLIC "-//W3C//DTD SVG 1.1//EN" "http://www.w3.org/Graphics/SVG/1.1/DTD/svg11.dtd">
<svg version="1.1" id="Capa_1" xmlns="http://www.w3.org/2000/svg" xmlns:xlink="http://www.w3.org/1999/xlink" x="0px" y="0px"
	 width="396px" height="549px" viewBox="0 0 396 549" enable-background="new 0 0 396 549" xml:space="preserve">
<rect fill="#FF6860" width="396" height="549"/>
<g>
	<path opacity="0.1" enable-background="new    " d="M196.96,391.352c-53.843,0-74.588-5.924-74.588-5.924
		c-0.875,4.672-1.32,10.285-1.32,15.121c0,0.521,0.422,1.921,0.945,1.921h74.856h74.917c0.52,0,0.943-1.3,0.943-1.815
		c0-4.842-0.44-10.193-1.315-14.87c0,0-20.812,5.567-74.542,5.567H196.96L196.96,391.352z"/>
	<g>
		<path fill="#FFFFFF" d="M271.769,402.47H122.015c-0.519,0-0.942-1.297-0.942-1.815c0-16.682,5.257-61.804,15.212-75.101
			c9.635-12.867,23.324-22.715,38.549-27.34c0.258-0.079,0.54-0.152,0.769-0.008c6.073,3.719,13.24,5.558,21.291,5.558
			c7.802,0,15.163-2.012,21.288-5.766c0.232-0.141,0.514-0.189,0.766-0.111c15.216,4.619,28.91,14.266,38.551,27.184
			c9.951,13.322,15.21,58.902,15.21,75.589C272.71,401.173,272.285,402.47,271.769,402.47z"/>
		<path fill="#FFFFFF" d="M196.889,222.399c20.636,0,37.364,16.727,37.364,37.361s-16.729,37.361-37.364,37.361
			c-20.631,0-37.358-16.727-37.358-37.361S176.258,222.399,196.889,222.399z"/>
		<g>
			<polygon fill="#FF6860" points="196.477,317.21 200.45,317.21 204.426,306.089 196.477,306.089 188.534,306.089 192.507,317.21 
							"/>
			<polygon fill="#FF6860" points="196.477,404.32 204.426,404.32 199.654,324.624 196.477,324.624 193.301,324.624 188.534,404.32 
							"/>
		</g>
		<circle fill="none" stroke="#FF6860" stroke-width="4.3277" stroke-miterlimit="10" cx="179.581" cy="259.76" r="11.946"/>
		<circle fill="none" stroke="#FF6860" stroke-width="4.3277" stroke-miterlimit="10" cx="214.204" cy="259.76" r="11.946"/>
		
			<line fill="none" stroke="#FF6860" stroke-width="4.3277" stroke-miterlimit="10" x1="191.529" y1="259.759" x2="202.256" y2="259.759"/>
		
			<line fill="none" stroke="#FF6860" stroke-width="4.3277" stroke-miterlimit="10" x1="167.634" y1="259.759" x2="159.53" y2="259.759"/>
		
			<line fill="none" stroke="#FF6860" stroke-width="4.3277" stroke-miterlimit="10" x1="227.956" y1="259.759" x2="234.257" y2="259.759"/>
	</g>
	<g>
		<path fill="#FFFFFF" d="M313.041,254.88c16.647,0,30.144,13.495,30.144,30.143c0,16.646-13.496,30.141-30.144,30.141
			c-16.645,0-30.141-13.494-30.141-30.141C282.9,268.375,296.396,254.88,313.041,254.88z"/>
		<path fill="#FFFFFF" d="M361.938,337.712c-7.777-10.421-18.826-18.205-31.101-21.932c-0.204-0.063-0.432-0.022-0.619,0.091
			c-4.941,3.027-10.88,4.651-17.174,4.651c-6.495,0-12.277-1.483-17.177-4.483c-0.186-0.116-0.413-0.059-0.621,0.006
			c-8.551,2.599-16.499,7.242-23.165,13.326c7.419,19.78,11.324,55.778,11.367,70.784h90.003c0.417,0,0.761-1.047,0.757-1.461
			C374.208,385.232,369.967,348.46,361.938,337.712z"/>
	</g>
	<g>
		<circle fill="#FFFFFF" cx="80.773" cy="285.022" r="30.142"/>
		<path fill="#FFFFFF" d="M31.878,337.712c7.777-10.421,18.826-18.205,31.103-21.932c0.204-0.063,0.43-0.022,0.617,0.091
			c4.943,3.027,10.88,4.651,17.176,4.651c6.495,0,12.277-1.483,17.175-4.483c0.186-0.116,0.413-0.059,0.621,0.006
			c8.553,2.599,16.501,7.242,23.165,13.326c-7.419,19.78-11.323,55.778-11.365,70.784H20.364c-0.417,0-0.761-1.047-0.757-1.461
			C19.607,385.232,23.849,348.46,31.878,337.712z"/>
	</g>
	<g>
		<g>
			<g>
				<rect x="93.225" y="87.588" fill="#FFFFFF" width="206.512" height="86.509"/>
			</g>
		</g>
		<g>
			<rect x="93.225" y="87.588" fill="#74BD28" width="95.879" height="86.509"/>
		</g>
		<path fill="#FFFFFF" d="M162.061,132.623c4.686-11.534-0.888-24.685-12.358-29.338c-11.729-4.764-24.739,0.845-29.421,12.383
			c-2.337,5.761-2.156,11.918,0.089,17.233c1.88,4.436,5.156,8.277,9.556,10.777c-0.129,0.108-0.256,0.209-0.371,0.327
			c-0.577,0.571-1.037,1.272-1.372,2.085l-6.119,15.104c-0.736,1.938,0.279,3.993,2.146,4.75s3.921-0.047,4.741-1.957l6.155-15.086
			c0.327-0.819,0.475-1.645,0.459-2.459c-0.004-0.166-0.021-0.323-0.038-0.488c4.902,1.272,9.963,0.815,14.4-1.057
			C155.239,142.652,159.722,138.388,162.061,132.623z M154.915,125.276c-0.686,7.803-7.431,13.583-15.057,12.919
			c-7.628-0.676-13.256-7.549-12.572-15.351c0.689-7.807,7.427-13.591,15.058-12.924C149.972,110.596,155.6,117.467,154.915,125.276
			z"/>
		<rect x="189.104" y="87.588" fill="#8199F7" width="28.384" height="28.836"/>
		<rect x="189.104" y="116.425" fill="#B58AF7" width="28.384" height="28.837"/>
		<rect x="189.104" y="145.262" fill="#78D8FA" width="28.384" height="28.836"/>
		<line x1="217.487" y1="116.425" x2="299.736" y2="116.425"/>
		<line x1="217.487" y1="145.223" x2="299.736" y2="145.223"/>
		<g opacity="0.1">
			<path d="M287.401,100.872h-57.577c-0.918,0-1.662-0.744-1.662-1.662c0-0.917,0.744-1.661,1.662-1.661h57.577
				c0.916,0,1.66,0.744,1.66,1.661C289.062,100.127,288.317,100.872,287.401,100.872z"/>
		</g>
		<g opacity="0.1">
			<path d="M268.591,110.769h-38.767c-0.918,0-1.662-0.744-1.662-1.662c0-0.917,0.744-1.661,1.662-1.661h38.767
				c0.917,0,1.661,0.744,1.661,1.661C270.252,110.024,269.508,110.769,268.591,110.769z"/>
		</g>
		<g opacity="0.1">
			<path d="M249.781,138.483h-19.957c-0.918,0-1.662-0.744-1.662-1.662c0-0.917,0.744-1.661,1.662-1.661h19.957
				c0.916,0,1.66,0.744,1.66,1.661C251.441,137.739,250.697,138.483,249.781,138.483z"/>
		</g>
		<g opacity="0.1">
			<path d="M287.401,130.843h-57.577c-0.918,0-1.662-0.744-1.662-1.662c0-0.917,0.744-1.661,1.662-1.661h57.577
				c0.916,0,1.66,0.744,1.66,1.661C289.062,130.099,288.317,130.843,287.401,130.843z"/>
		</g>
		<g opacity="0.1">
			<path d="M287.401,161.34h-57.577c-0.918,0-1.662-0.744-1.662-1.662c0-0.917,0.744-1.66,1.662-1.66h57.577
				c0.916,0,1.66,0.744,1.66,1.66C289.062,160.597,288.317,161.34,287.401,161.34z"/>
		</g>
		<polygon fill="#74BD28" points="102.384,174.098 89.217,224.322 121.735,174.098 		"/>
		<polygon fill="#FFFFFF" points="292.154,174.098 305.321,224.322 272.802,174.098 		"/>
		<polygon fill="#78D8FA" points="200.185,174.098 191.362,207.747 213.149,174.098 		"/>
	</g>
</g>
</svg>
