<?xml version="1.0" encoding="utf-8"?>
<!-- Generator: Adobe Illustrator 16.0.0, SVG Export Plug-In . SVG Version: 6.00 Build 0)  -->
<!DOCTYPE svg PUBLIC "-//W3C//DTD SVG 1.1//EN" "http://www.w3.org/Graphics/SVG/1.1/DTD/svg11.dtd">
<svg version="1.1" id="Capa_1" xmlns="http://www.w3.org/2000/svg" xmlns:xlink="http://www.w3.org/1999/xlink" x="0px" y="0px"
	 width="396px" height="549px" viewBox="0 0 396 549" enable-background="new 0 0 396 549" xml:space="preserve">
<g>
	<rect fill="#FF6860" width="396" height="549"/>
	<g>
		<circle fill="#FFFFFF" cx="264.042" cy="324.947" r="30.592"/>
		
			<path fill="none" stroke="#FFFFFF" stroke-width="2.6941" stroke-linecap="round" stroke-miterlimit="10" stroke-dasharray="10.7764" d="
			M285.691,297.34c8.179,6.422,13.433,16.4,13.433,27.607c0,12.677-6.724,23.783-16.801,29.947"/>
		<circle fill="#FFFFFF" cx="129.298" cy="325.602" r="40.569"/>
		
			<path fill="none" stroke="#FFFFFF" stroke-width="2.6941" stroke-linecap="round" stroke-miterlimit="10" stroke-dasharray="10.7764" d="
			M92.309,352.282c-5.627-7.412-8.967-16.657-8.967-26.681c0-13.635,6.179-25.826,15.89-33.928"/>
		<g>
			<path fill="#BDC3C7" d="M282.931,340h-37.779c-0.131,0-0.238-0.18-0.238-0.312c0-4.207,1.327-8.239,3.838-11.593
				c2.43-3.246,5.884-5.694,9.725-6.86c0.065-0.021,0.135-0.02,0.193,0.016c1.534,0.939,3.341,1.41,5.372,1.41
				c1.968,0,3.826-0.502,5.371-1.449c0.059-0.035,0.128-0.046,0.193-0.026c3.839,1.165,7.293,3.602,9.726,6.859
				c2.51,3.36,3.837,7.436,3.837,11.643C283.169,339.82,283.063,340,282.931,340z"/>
			<circle fill="#BDC3C7" cx="264.042" cy="312.287" r="9.425"/>
		</g>
		<circle fill="#FFFFFF" cx="199.12" cy="210.661" r="65.805"/>
		<g>
			<g>
				<path fill="none" stroke="#FFFFFF" stroke-width="2.6941" stroke-linecap="round" stroke-miterlimit="10" d="M171.933,278.128
					c-1.671-0.674-3.312-1.408-4.918-2.2"/>
				
					<path fill="none" stroke="#FFFFFF" stroke-width="2.6941" stroke-linecap="round" stroke-miterlimit="10" stroke-dasharray="10.7981,10.7981" d="
					M157.718,270.452c-16.132-11.191-27.518-28.745-30.527-49.029"/>
				<path fill="none" stroke="#FFFFFF" stroke-width="2.6941" stroke-linecap="round" stroke-miterlimit="10" d="M126.597,216.048
					c-0.13-1.778-0.196-3.575-0.196-5.387"/>
			</g>
		</g>
		<g>
			<path fill="#7F8C8D" d="M155.139,348h-51.684c-0.179,0-0.325,0.013-0.325-0.165c0-5.756,1.815-11.144,5.25-15.731
				c3.325-4.441,8.05-7.726,13.305-9.321c0.089-0.027,0.186,0.006,0.264,0.055c2.097,1.285,4.569,1.945,7.348,1.945
				c2.692,0,5.233-0.678,7.348-1.975c0.08-0.047,0.176-0.059,0.265-0.031c5.252,1.596,9.977,4.929,13.305,9.386
				c3.435,4.599,5.25,9.914,5.25,15.672C155.464,348.013,155.319,348,155.139,348z"/>
			<circle fill="#7F8C8D" cx="129.298" cy="310.607" r="12.894"/>
		</g>
		<polygon fill="#FFFFFF" stroke="#FFFFFF" stroke-width="0.898" stroke-miterlimit="10" points="264.474,354.643 284.679,371.705 
			275.985,347.459 		"/>
		<polygon fill="#FFFFFF" stroke="#FFFFFF" stroke-width="0.898" stroke-miterlimit="10" points="129.319,365.42 109.114,382.482 
			117.808,358.235 		"/>
		<circle fill="#FFFFFF" cx="269.422" cy="119.389" r="30.722"/>
		<polygon fill="#FFFFFF" stroke="#FFFFFF" stroke-width="0.6801" stroke-miterlimit="10" points="269.439,149.543 254.137,162.464 
			260.722,144.102 		"/>
		
			<line fill="none" stroke="#FFFFFF" stroke-width="3.5921" stroke-miterlimit="10" x1="165.69" y1="331.295" x2="191.775" y2="311.283"/>
		
			<line fill="none" stroke="#FFFFFF" stroke-width="3.5921" stroke-miterlimit="10" x1="205.802" y1="310.606" x2="238.911" y2="335.91"/>
		<line fill="none" stroke="#FFFFFF" stroke-width="4" stroke-miterlimit="10" x1="199" y1="300" x2="199" y2="267"/>
		<circle fill="#FF6860" cx="269.798" cy="119.625" r="22.718"/>
		<circle fill="#FFFFFF" cx="123.4" cy="129.954" r="27.67"/>
		<polygon fill="#FFFFFF" stroke="#FFFFFF" stroke-width="0.6125" stroke-miterlimit="10" points="128.238,157.113 142.02,168.75 
			136.089,152.212 		"/>
		<circle fill="#FF6860" cx="123.061" cy="130.167" r="20.462"/>
		<circle fill="#FFFFFF" cx="193.089" cy="92.448" r="30.722"/>
		<polygon fill="#FFFFFF" stroke="#FFFFFF" stroke-width="0.6801" stroke-miterlimit="10" points="199.394,122.602 184.092,135.523 
			190.677,117.161 		"/>
		<circle fill="#FF6860" cx="192.713" cy="92.685" r="22.718"/>
		<g>
			<circle fill="#FFFFFF" cx="94.111" cy="251.905" r="23.764"/>
			<polygon fill="#FFFFFF" stroke="#FFFFFF" stroke-width="0.5261" stroke-miterlimit="10" points="98.266,275.23 110.103,285.226 
				105.01,271.021 			"/>
			<circle fill="#FF6860" cx="93.821" cy="252.088" r="17.573"/>
			<path fill="#FFFFFF" d="M92.071,256.657v-15.124c0-1.123,0.936-2.06,2.059-2.06c1.123,0,2.021,0.937,2.021,2.06v15.124
				c0,1.159-0.899,2.058-2.021,2.058C93.007,258.715,92.071,257.816,92.071,256.657z"/>
			<path fill="#34495E" d="M94.13,265.679c-1.123,0-2.059-0.898-2.059-2.059v-0.749c0-1.123,0.936-2.059,2.059-2.059
				c1.123,0,2.021,0.936,2.021,2.059v0.749C96.152,264.78,95.253,265.679,94.13,265.679z"/>
		</g>
		<path fill="#FFFFFF" d="M272.654,120.09l2.804,1.092l1.558-5.079l-3.306-1.027c-0.004-0.1-0.222-0.545-0.229-0.643
			c-0.019-0.246,0.219,0.105-0.297-1.08l2.916-1.486l-2.342-4.598l-2.954,1.506c-0.107,0.054-0.422-0.251-0.725-0.477l1.035-2.865
			l-5.104-1.604l-0.516,2.799c-0.422,0.005-0.735,0.027-0.794-0.087l-1.353-2.655l-5.747,2.929l1.372,2.692
			c0.045,0.087-0.375,0.425-0.563,0.666l-2.85-0.938l-1.662,5.133l2.73,0.883c-0.006,0.3-0.124,0.344-0.097,0.642
			c0.009,0.148-0.029,0.171-0.075,0.194l-2.237,1.14l2.344,4.597l2.105-1.073c0.703,1.09,0.839,0.975,1.195,1.244l-0.842,3.052
			l5.182,1.759l0.915-2.773c0.415-0.001,1.181-0.151,1.242-0.032l1.2,2.354l5.747-2.928l-1.2-2.354
			C272.028,120.924,272.366,120.519,272.654,120.09z M266.809,118.337c-1.589,0.811-3.536,0.179-4.346-1.412
			c-0.81-1.588-0.178-3.536,1.411-4.345c1.59-0.811,3.537-0.178,4.346,1.412C269.031,115.581,268.398,117.529,266.809,118.337z"/>
		<path fill="#34495E" d="M285.507,128.039l1.891,0.108l-0.056-3.344l-2.178,0.028c-0.022-0.059-0.239-0.284-0.263-0.34
			c-0.059-0.144,0.152,0.02-0.387-0.589l1.456-1.456l-2.296-2.297l-1.476,1.477c-0.053,0.053-0.301-0.068-0.526-0.145l0.063-1.917
			l-3.367,0.033l0.235,1.776c-0.251,0.084-0.435,0.159-0.492,0.102l-1.326-1.327l-2.872,2.871l1.345,1.345
			c0.043,0.044-0.142,0.328-0.208,0.508l-1.888-0.008l0.004,3.396l1.805-0.002c0.055,0.18-0.007,0.229,0.067,0.403
			c0.034,0.087,0.016,0.107-0.007,0.13l-1.118,1.118l2.297,2.296l1.051-1.052c0.634,0.516,0.692,0.42,0.958,0.512l0.09,1.991
			l3.444,0.045l0.008-1.838c0.249-0.082,0.678-0.32,0.737-0.261l1.176,1.176l2.871-2.871l-1.176-1.177
			C285.294,128.659,285.418,128.351,285.507,128.039z M281.667,128.126c-0.794,0.794-2.083,0.794-2.877,0
			c-0.793-0.793-0.793-2.083,0-2.875c0.794-0.794,2.083-0.794,2.877,0C282.461,126.043,282.461,127.333,281.667,128.126z"/>
		<path fill="#34495E" d="M273.126,133.391l1.469,0.084l-0.043-2.598l-1.693,0.021c-0.017-0.045-0.185-0.22-0.204-0.264
			c-0.046-0.112,0.118,0.015-0.301-0.457l1.131-1.132l-1.784-1.785l-1.146,1.146c-0.042,0.042-0.234-0.053-0.409-0.112l0.049-1.489
			l-2.616,0.025l0.183,1.38c-0.195,0.065-0.338,0.124-0.382,0.08l-1.029-1.031l-2.231,2.23l1.044,1.045
			c0.034,0.034-0.11,0.255-0.161,0.395l-1.467-0.006l0.002,2.639l1.403-0.002c0.043,0.14-0.006,0.179,0.052,0.313
			c0.026,0.068,0.013,0.083-0.006,0.102l-0.868,0.868l1.785,1.784l0.817-0.817c0.492,0.4,0.538,0.327,0.744,0.398l0.069,1.547
			l2.676,0.035l0.006-1.428c0.193-0.063,0.527-0.249,0.573-0.203l0.914,0.914l2.23-2.23l-0.914-0.914
			C272.961,133.873,273.057,133.633,273.126,133.391z M270.143,133.458c-0.617,0.618-1.618,0.618-2.235,0
			c-0.616-0.616-0.616-1.618,0-2.234c0.617-0.617,1.618-0.617,2.235,0C270.759,131.841,270.759,132.842,270.143,133.458z"/>
		<g>
			<path fill="#34495E" d="M190.767,101c-0.422,0-0.765,0.011-0.765,0.501c0,0.488,0.343,0.499,0.765,0.499h4.479
				c0.423,0,0.765-0.011,0.765-0.499c0-0.49-0.342-0.501-0.765-0.501H190.767z"/>
			<path fill="#34495E" d="M190.767,103c-0.422,0-0.765,0.012-0.765,0.501c0,0.488,0.343,0.499,0.765,0.499h4.479
				c0.423,0,0.765-0.011,0.765-0.499c0-0.49-0.342-0.501-0.765-0.501H190.767z"/>
			<path fill="#34495E" d="M190.767,105c-0.422,0-0.765,0.012-0.765,0.501c0,0.488,0.343,0.499,0.765,0.499h4.479
				c0.423,0,0.765-0.011,0.765-0.499c0-0.49-0.342-0.501-0.765-0.501H190.767z"/>
			<path fill="#34495E" d="M195.549,106.757c0,1.433-1.161,2.594-2.594,2.594c-1.432,0-2.594-1.161-2.594-2.594"/>
			<path fill="#FFFFFF" d="M190.395,99c0-3-2.304-4.842-3.993-6.847c-1.717-2.039-3.169-4.314-3.354-7.053
				c-0.395-5.858,4.72-10.1,10.343-10.1h-0.398h-0.089c5.624,0,10.7,4.304,10.305,10.161c-0.185,2.739-1.676,4.865-3.393,6.903
				c-1.689,2.005-4.07,3.936-4.07,6.936H190.395z"/>
			<path fill="none" stroke="#FF6860" stroke-width="0.4764" stroke-linejoin="round" stroke-miterlimit="10" d="M194.547,100.257
				l0.83-7.123c0,0-1.566,0.743-2.13,0.743c-0.844,0-1.737-1.804-0.49-1.804c1.492,0,0.39,1.804-0.623,1.804
				c-0.45,0-1.636-0.747-1.636-0.747l1.209,7.023"/>
		</g>
		<path fill="#FFFFFF" d="M108.604,135.553c0-3.81,2.656-7.002,6.235-7.85v-2.5c0-1.078,0.807-1.886,1.885-1.886
			c1,0,1.886,0.808,1.886,1.886v4.001c0,0.039-0.039,0.039-0.039,0.077c0.039,0.039,0.039,0.039,0.039,0.077
			c0,1.001-0.885,1.886-1.886,1.886c-2.424,0-4.387,1.923-4.387,4.309c0,2.423,1.963,4.31,4.387,4.31
			c1.577,0,2.962-0.848,3.693-2.117c0.539-0.924,1.693-1.231,2.616-0.692c0.885,0.539,1.193,1.654,0.655,2.578
			c-1.385,2.384-4.002,4.001-6.964,4.001C112.26,143.633,108.604,140.016,108.604,135.553z"/>
		<path fill="#34495E" d="M116.723,121.164c-1.078,0-1.885-0.847-1.885-1.886v-0.692c0-1.078,0.807-1.886,1.885-1.886
			c1,0,1.886,0.808,1.886,1.886v0.692C118.609,120.316,117.724,121.164,116.723,121.164z"/>
		<path fill="#FFFFFF" d="M131.286,132.629v2.501c0,1.076-0.808,1.884-1.886,1.884c-1,0-1.885-0.808-1.885-1.884v-4.002
			c0-0.038,0.04-0.038,0.04-0.077c-0.04-0.037-0.04-0.037-0.04-0.077c0-1,0.885-1.886,1.885-1.886c2.424,0,4.387-1.924,4.387-4.31
			c0-2.423-1.963-4.309-4.387-4.309c-1.578,0-2.962,0.848-3.694,2.117c-0.537,0.924-1.692,1.23-2.616,0.692
			c-0.885-0.538-1.192-1.655-0.653-2.577c1.385-2.386,4-4.002,6.963-4.002c4.464,0,8.118,3.617,8.118,8.079
			C137.519,128.589,134.864,131.783,131.286,132.629z"/>
		<path fill="#34495E" d="M131.286,141.055v0.692c0,1.077-0.808,1.886-1.886,1.886c-1,0-1.885-0.809-1.885-1.886v-0.692
			c0-1.039,0.885-1.884,1.885-1.884C130.478,139.17,131.286,140.016,131.286,141.055z"/>
		<g>
			<polygon fill="#FFFFFF" stroke="#FFFFFF" stroke-width="0.3607" stroke-miterlimit="10" points="286.254,287.775 
				278.139,294.629 281.631,284.891 			"/>
			<path fill="#FFFFFF" d="M286.245,255.492c-8.997,0-16.292,7.295-16.292,16.293s7.295,16.293,16.292,16.293
				c8.998,0,16.292-7.295,16.292-16.293S295.243,255.492,286.245,255.492z M286.445,283.958c-6.655,0-12.048-5.394-12.048-12.048
				s5.394-12.048,12.048-12.048c6.653,0,12.047,5.394,12.047,12.048S293.098,283.958,286.445,283.958z"/>
			<path fill="#FFFFFF" d="M277.308,275.111c0-2.354,1.64-4.324,3.85-4.847v-1.544c0-0.666,0.498-1.165,1.164-1.165
				c0.619,0,1.165,0.499,1.165,1.165v2.471c0,0.023-0.024,0.023-0.024,0.047c0.024,0.024,0.024,0.024,0.024,0.047
				c0,0.619-0.546,1.166-1.165,1.166c-1.497,0-2.708,1.188-2.708,2.66c0,1.496,1.212,2.661,2.708,2.661
				c0.974,0,1.829-0.524,2.281-1.308c0.333-0.57,1.046-0.76,1.615-0.427c0.547,0.333,0.737,1.021,0.405,1.592
				c-0.855,1.473-2.472,2.471-4.301,2.471C279.565,280.101,277.308,277.867,277.308,275.111z"/>
			<path fill="#34495E" d="M282.321,266.227c-0.666,0-1.164-0.523-1.164-1.166v-0.427c0-0.665,0.498-1.165,1.164-1.165
				c0.619,0,1.165,0.5,1.165,1.165v0.427C283.486,265.703,282.94,266.227,282.321,266.227z"/>
			<path fill="#FFFFFF" d="M291.314,273.306v1.544c0,0.665-0.499,1.164-1.164,1.164c-0.618,0-1.164-0.499-1.164-1.164v-2.471
				c0-0.023,0.024-0.023,0.024-0.047c-0.024-0.023-0.024-0.023-0.024-0.049c0-0.617,0.546-1.164,1.164-1.164
				c1.497,0,2.709-1.188,2.709-2.661c0-1.497-1.212-2.661-2.709-2.661c-0.975,0-1.83,0.523-2.281,1.307
				c-0.332,0.571-1.045,0.761-1.615,0.428c-0.546-0.332-0.736-1.021-0.403-1.59c0.855-1.475,2.47-2.473,4.3-2.473
				c2.756,0,5.013,2.234,5.013,4.989C295.163,270.811,293.523,272.783,291.314,273.306z"/>
			<path fill="#34495E" d="M291.314,278.508v0.428c0,0.666-0.499,1.165-1.164,1.165c-0.618,0-1.164-0.499-1.164-1.165v-0.428
				c0-0.641,0.546-1.162,1.164-1.162C290.815,277.346,291.314,277.867,291.314,278.508z"/>
		</g>
		<path fill="#FFFFFF" d="M208.498,308.224c0.097-5.29-4.121-9.655-9.38-9.752c-5.38-0.099-9.684,4.112-9.78,9.403
			c-0.048,2.643,0.964,5.058,2.666,6.822c1.422,1.473,3.309,2.496,5.435,2.818c-0.034,0.061-0.07,0.121-0.096,0.185
			c-0.143,0.315-0.219,0.663-0.227,1.037l-0.122,6.925c0.004,0.882,0.721,1.541,1.577,1.557c0.856,0.016,1.548-0.617,1.582-1.5
			l0.138-6.924c0.006-0.375-0.062-0.724-0.193-1.044c-0.028-0.065-0.058-0.126-0.09-0.188c2.138-0.244,4.076-1.197,5.551-2.617
			C207.323,313.242,208.45,310.867,208.498,308.224z M204.542,306.4c0.919,3.201-0.873,6.523-4,7.422
			c-3.129,0.898-6.411-0.969-7.33-4.17c-0.919-3.201,0.872-6.524,4-7.423C200.341,301.332,203.622,303.198,204.542,306.4z"/>
		<circle fill="#FFFFFF" cx="110.192" cy="179.333" r="9.161"/>
		<circle opacity="0.5" fill="#FFFFFF" cx="93.519" cy="196.785" r="5.179"/>
		<circle opacity="0.2" fill="#FFFFFF" cx="110.582" cy="203.072" r="3.383"/>
		<circle fill="#FFFFFF" cx="97.861" cy="364.086" r="6.225"/>
		<circle opacity="0.5" fill="#FFFFFF" cx="90.124" cy="375.945" r="3.519"/>
		<circle opacity="0.5" fill="#FFFFFF" cx="85.633" cy="285.244" r="3.519"/>
		<circle opacity="0.2" fill="#FFFFFF" cx="103.514" cy="377.523" r="2.299"/>
		<circle opacity="0.2" fill="#FFFFFF" cx="89.146" cy="291.313" r="2.299"/>
		<circle opacity="0.2" fill="#FFFFFF" cx="99.024" cy="386.504" r="2.299"/>
		<circle fill="#FFFFFF" cx="290.57" cy="163.986" r="7.905"/>
		<circle opacity="0.5" fill="#FFFFFF" cx="282.14" cy="179.156" r="5.179"/>
		<circle opacity="0.2" fill="#FFFFFF" cx="273.506" cy="169.74" r="3.383"/>
		<circle opacity="0.2" fill="#FFFFFF" cx="295.431" cy="188.599" r="1.742"/>
		<g>
			<path fill="#34495E" d="M241.918,250h-85.815c-0.298,0-0.54-0.179-0.54-0.478c0-9.555,3.014-18.601,8.717-26.218
				c5.521-7.374,13.366-12.878,22.091-15.528c0.147-0.044,0.308-0.016,0.439,0.063c3.483,2.134,7.587,3.22,12.2,3.22
				c4.472,0,8.691-1.135,12.201-3.285c0.132-0.082,0.292-0.101,0.439-0.055c8.721,2.646,16.566,8.181,22.092,15.579
				c5.703,7.638,8.717,16.663,8.717,26.223C242.459,249.82,242.217,250,241.918,250z"/>
			<path opacity="0.1" d="M199.051,244c-30.856,0-42.746-3.017-42.746-3.017c-0.5,2.678-0.754,5.519-0.754,8.292
				c0,0.299,0.241,0.725,0.541,0.725h42.896h42.93c0.298,0,0.541-0.179,0.541-0.478c0-2.771-0.254-5.935-0.753-8.614
				c0,0-11.927,3.092-42.718,3.092H199.051z"/>
			<circle fill="#34495E" cx="199.011" cy="187.533" r="21.41"/>
		</g>
	</g>
</g>
</svg>
