<?xml version="1.0" encoding="utf-8"?>
<!-- Generator: Adobe Illustrator 16.0.0, SVG Export Plug-In . SVG Version: 6.00 Build 0)  -->
<!DOCTYPE svg PUBLIC "-//W3C//DTD SVG 1.1//EN" "http://www.w3.org/Graphics/SVG/1.1/DTD/svg11.dtd">
<svg version="1.1" id="Capa_1" xmlns="http://www.w3.org/2000/svg" xmlns:xlink="http://www.w3.org/1999/xlink" x="0px" y="0px"
	 width="700px" height="700px" viewBox="0 0 700 700" enable-background="new 0 0 700 700" xml:space="preserve">
<rect x="0.5" y="0.5" fill="#A47BD9" width="699" height="700"/>
<polygon opacity="0.3" fill="#444444" points="547.045,161.958 700.127,316.297 699.982,514.091 699.5,700.5 593.557,700.734 
	331.457,699.508 81.351,452.928 176.853,440.613 "/>
<g>
	<path fill="#FFFFFF" d="M547.5,412.039c0,6.882-5.579,12.461-12.461,12.461H155.961c-6.882,0-12.461-5.579-12.461-12.461V174.961
		c0-6.882,5.579-12.461,12.461-12.461h379.078c6.882,0,12.461,5.579,12.461,12.461V412.039z"/>
	<rect x="209.351" y="185.98" fill="#949494" width="259.407" height="236.491"/>
	<path fill="#5A5A5A" d="M143.5,200.5v-27.324c0-6.88,5.787-10.676,12.668-10.676h377.117c6.88,0,12.215,3.796,12.215,10.676V200.5"
		/>
	<path d="M548.5,409.364c0,9.464-7.672,17.136-17.137,17.136H154.637c-9.464,0-17.137-7.672-17.137-17.136V175.636
		c0-9.464,7.672-17.136,17.137-17.136h376.727c9.465,0,17.137,7.672,17.137,17.136V409.364z M534.5,179.032
		c0-4.545-4.528-8.532-9.059-8.532H164.329c-4.529,0-10.829,3.987-10.829,8.532v225.23c0,4.542,6.3,9.237,10.829,9.237h361.113
		c4.53,0,9.059-4.695,9.059-9.237V179.032z"/>
	<path fill="#FFFFFF" d="M344.727,423.5H72.5v13.187c0,10.929,9.631,19.813,22.321,19.813h249.905h253.205
		c12.693,0,19.568-8.885,19.568-19.813V423.5H344.727z"/>
	<circle fill="#949494" cx="174.997" cy="184.69" r="6.219"/>
	<circle fill="#C5C5C5" cx="194.943" cy="184.69" r="6.218"/>
	<circle fill="#858585" cx="214.891" cy="184.69" r="6.219"/>
	<path opacity="0.3" fill="#444444" d="M344.727,423.5H260.5v0.873c0,3.341,2.958,7.127,6.837,7.127h77.389h77.389
		c3.878,0,4.385-3.786,4.385-7.127V423.5H344.727z"/>
	<g>
		<g>
			<g>
				<g>
					<polyline fill="#BFBFBF" points="443.431,203.804 433.393,222.962 444.556,228.812 454.827,234.193 467.41,210.179 
						457.296,203.581 					"/>
					<polyline opacity="0.1" points="444.109,228.576 454.827,234.193 468.758,207.612 458.911,203.581 					"/>
					
						<rect x="434.053" y="220.281" transform="matrix(0.8858 0.4641 -0.4641 0.8858 155.2248 -181.3911)" fill="#A2A2A2" width="24.198" height="8.799"/>
				</g>
				<path fill="#BFBFBF" d="M461.706,237.794c-1.103,2.103-3.75,3.003-5.854,1.902l-13.333-6.988l-13.331-6.984
					c-2.109-1.103-2.873-3.79-1.77-5.894l0,0c1.103-2.104,3.744-3.003,5.853-1.901l13.332,6.984l13.332,6.986
					C462.039,233.002,462.807,235.691,461.706,237.794L461.706,237.794z"/>
				<path opacity="0.1" d="M442.069,232.473l13.782,7.224c2.104,1.101,4.752,0.201,5.854-1.902l0,0
					c1.101-2.103,0.333-4.792-1.771-5.894l-13.782-7.22"/>
				<path opacity="0.1" d="M427.367,219.92"/>
			</g>
			<g>
				<path fill="#FFFFFF" d="M426.814,253.65c1.715-1.795,4.526-1.891,6.284-0.218c1.749,1.676,1.783,4.489,0.072,6.284
					c-1.716,1.795-4.528,1.893-6.281,0.219C425.135,258.258,425.101,255.447,426.814,253.65z"/>
				<path fill="#FFFFFF" d="M407.861,310.446c-1.23,2.346-3.812,3.516-6.283,3.069l25.87-49.151c0.128-0.25,0.198-0.505,0.211-0.763
					c0.009-0.051,0.004-0.104,0-0.156c1.518,0.524,3.115,0.499,4.563,0.02c1.735-0.577,3.237-1.822,4.118-3.582
					c1.767-3.526,0.38-7.794-3.204-9.589c-3.506-1.754-7.798-0.331-9.563,3.192c-0.881,1.763-0.963,3.718-0.384,5.455
					c0.479,1.446,1.434,2.746,2.76,3.646c-0.045,0.03-0.086,0.063-0.125,0.095c-0.198,0.167-0.364,0.374-0.488,0.622l-25.929,49.269
					c-2.17-1.732-2.883-4.811-1.545-7.361c0,0,9.394-53.851,10.437-55.834c0.953-1.824,28.982-19.41,28.982-19.41l4.998,2.619
					l5,2.62c0,0,1.496,33.055,0.541,34.876C446.781,272.067,407.861,310.446,407.861,310.446z"/>
				<path opacity="0.1" d="M442.069,232.473l5.21,2.731c0,0,1.496,33.055,0.541,34.876c-1.039,1.986-39.959,40.364-39.959,40.364
					c-1.23,2.347-3.812,3.517-6.283,3.07l25.87-49.153c0.128-0.248,0.198-0.504,0.211-0.762c0.009-0.051,0.004-0.104,0-0.156
					c1.518,0.524,3.115,0.499,4.563,0.02c1.735-0.577,3.237-1.822,4.118-3.582c1.767-3.526,0.398-7.79-3.19-9.583"/>
			</g>
		</g>
		<g>
			<path fill="none" stroke="#FFFFFF" stroke-width="6.5997" stroke-miterlimit="10" d="M394.878,330.592l-60.125,50.629
				c0,0-54.23-36.987-54.445-56.627c-0.204-18.876,51.145-55.556,51.145-55.556"/>
			<rect x="269.413" y="313.702" fill="#FFFFFF" width="21.794" height="21.791"/>
			<rect x="320.564" y="258.144" fill="#FFFFFF" width="21.787" height="21.79"/>
			<rect x="323.862" y="370.324" fill="#FFFFFF" width="21.791" height="21.79"/>
			<rect x="383.981" y="319.043" fill="#FFFFFF" width="21.79" height="21.792"/>
			
				<line fill="none" stroke="#FFFFFF" stroke-width="6.5997" stroke-miterlimit="10" x1="280.309" y1="324.595" x2="280.309" y2="285.708"/>
			
				<line fill="none" stroke="#FFFFFF" stroke-width="6.5997" stroke-miterlimit="10" x1="280.309" y1="324.595" x2="280.309" y2="361.238"/>
			<circle fill="#FFFFFF" cx="280.31" cy="285.708" r="7.412"/>
			<circle fill="#FFFFFF" cx="280.31" cy="361.238" r="7.412"/>
		</g>
		<g>
			<rect x="153.468" y="212.443" fill="#444444" width="39.896" height="124.662"/>
			<g opacity="0.5">
				<rect x="160.106" y="231.751" fill="#FFFFFF" width="8.893" height="8.666"/>
				<rect x="175.272" y="231.751" fill="#FFFFFF" width="8.897" height="8.666"/>
				<rect x="160.106" y="246.347" fill="#FFFFFF" width="8.893" height="8.666"/>
				<rect x="175.272" y="246.347" fill="#FFFFFF" width="8.897" height="8.666"/>
				<rect x="160.106" y="260.944" fill="#FFFFFF" width="8.893" height="8.666"/>
				<rect x="175.272" y="260.944" fill="#FFFFFF" width="8.897" height="8.666"/>
				<rect x="160.106" y="275.54" fill="#FFFFFF" width="8.893" height="8.667"/>
				<rect x="175.272" y="275.54" fill="#FFFFFF" width="8.897" height="8.667"/>
				<rect x="160.106" y="290.136" fill="#FFFFFF" width="8.893" height="8.668"/>
				<rect x="175.272" y="290.136" fill="#FFFFFF" width="8.897" height="8.668"/>
				<rect x="160.106" y="304.733" fill="#FFFFFF" width="8.893" height="8.666"/>
				<rect x="175.272" y="304.733" fill="#FFFFFF" width="8.897" height="8.666"/>
			</g>
			<rect x="160.106" y="319.871" opacity="0.5" fill="#FFFFFF" width="24.063" height="12.1"/>
			<rect x="153.468" y="212.443" opacity="0.6" width="39.896" height="14.668"/>
		</g>
		<g>
			<rect x="517.562" y="224.681" fill="#444444" width="17.034" height="175.239"/>
			<rect x="522.229" y="236.524" opacity="0.5" fill="#FFFFFF" width="8.896" height="8.757"/>
			<rect x="522.229" y="251.271" opacity="0.5" fill="#FFFFFF" width="8.896" height="8.757"/>
			<rect x="522.229" y="266.02" opacity="0.5" fill="#FFFFFF" width="8.896" height="8.757"/>
			<rect x="522.229" y="280.767" opacity="0.5" fill="#FFFFFF" width="8.896" height="8.759"/>
			<rect x="522.229" y="295.517" opacity="0.5" fill="#FFFFFF" width="8.896" height="8.754"/>
			<rect x="522.229" y="310.266" opacity="0.5" fill="#FFFFFF" width="8.896" height="8.757"/>
			<rect x="522.229" y="325.99" opacity="0.5" fill="#FFFFFF" width="8.896" height="8.757"/>
			<rect x="522.229" y="340.738" opacity="0.5" fill="#FFFFFF" width="8.896" height="8.756"/>
			<rect x="522.229" y="355.484" opacity="0.5" fill="#FFFFFF" width="8.896" height="8.758"/>
			<rect x="522.229" y="370.234" opacity="0.5" fill="#FFFFFF" width="8.896" height="8.757"/>
			<rect x="522.229" y="384.981" opacity="0.5" fill="#FFFFFF" width="8.896" height="8.757"/>
		</g>
		<rect x="153.468" y="200.279" fill="#444444" width="381.1" height="12.465"/>
		<rect x="517.562" y="224.681" opacity="0.6" width="17.034" height="8.472"/>
	</g>
	<g>
		<rect x="498.111" y="224.67" fill="#444444" width="16.414" height="46.154"/>
		<rect x="502.907" y="248.085" fill="#848484" width="6.685" height="6.858"/>
		<rect x="502.907" y="236.39" fill="#4D4D4D" width="6.685" height="6.857"/>
		<rect x="502.907" y="260.124" fill="#8A8A8A" width="6.685" height="6.857"/>
		<rect x="498.111" y="224.67" opacity="0.6" width="16.414" height="8.483"/>
	</g>
</g>
</svg>
