<?xml version="1.0" encoding="utf-8"?>
<!-- Generator: Adobe Illustrator 16.0.0, SVG Export Plug-In . SVG Version: 6.00 Build 0)  -->
<!DOCTYPE svg PUBLIC "-//W3C//DTD SVG 1.1//EN" "http://www.w3.org/Graphics/SVG/1.1/DTD/svg11.dtd">
<svg version="1.1" id="Capa_1" xmlns="http://www.w3.org/2000/svg" xmlns:xlink="http://www.w3.org/1999/xlink" x="0px" y="0px"
	 width="700px" height="700px" viewBox="0 0 700 700" enable-background="new 0 0 700 700" xml:space="preserve">
<rect fill="#74BD4F" width="700" height="700"/>
<polygon opacity="0.3" fill="#444444" enable-background="new    " points="371.979,808.618 122.728,559.368 595.777,86.768 
	805.585,289.939 805.585,808.618 "/>
<path fill="#B5B5B5" d="M125.369,561.952c30.124,30.125,141.785-32.694,180.9-71.812c15.207-15.206,25.561-32.942,30.818-50.766
	c0,0-17.361-29.604-38.452-50.693l-0.213-0.215c-21.091-21.089-50.693-38.449-50.693-38.449
	c-17.823,5.255-35.58,15.632-50.786,30.839c-39.115,39.114-101.926,150.767-71.8,180.892L125.369,561.952z"/>
<path fill="#E7E7E7" d="M196.97,490.292c22.001,22.003,78.468,1.212,107.038-27.358c11.105-11.104,18.759-24.147,22.598-37.164
	c0,0-12.594-21.711-27.997-37.113l-0.158-0.157c-15.402-15.403-37.113-27.996-37.113-27.996
	c-13.018,3.839-26.032,11.46-37.138,22.567c-28.57,28.568-49.376,85.051-27.373,107.054L196.97,490.292z"/>
<path fill="#313131" d="M419.815,378.206l8.633,8.633c0,0-7.438,126.063-41.278,130.271c-21.694,2.697-45.858-74.504-45.858-74.504
	L419.815,378.206z"/>
<path fill="#565656" d="M308.795,267.185l-8.633-8.633c0,0-126.063,7.434-130.271,41.278c-2.696,21.694,74.503,45.858,74.503,45.858
	L308.795,267.185z"/>
<path fill="#FFFFFF" d="M598.076,88.777C562.536,53.235,411,145.211,320.951,235.26c-35.009,35.008-62.604,73.247-81.756,107.226
	c0,0,13.031,42.377,37.914,67.261L277.36,410c24.882,24.882,67.26,37.912,67.26,37.912c33.979-19.153,71.976-46.504,106.982-81.512
	c90.052-90.049,182.149-241.708,146.605-277.251L598.076,88.777z"/>
<path opacity="0.2" fill="#444444" enable-background="new    " d="M598.076,88.777l0.133,0.373
	c35.544,35.543-56.555,187.202-146.605,277.25c-35.008,35.009-73.004,62.358-106.982,81.513c0,0-42.377-13.03-67.26-37.912
	l-0.252-0.253"/>
<path fill="#797979" d="M242.516,346.114l98.16,98.158c0,0-52.468-23.428-63.335-34.295c-9.31-9.308,0,0,0,0
	S242.146,356.393,242.516,346.114z"/>
<circle fill="#797979" cx="438.309" cy="248.799" r="55.038"/>
<circle fill="#AEAEAE" cx="438.309" cy="248.799" r="46.917"/>
<path fill="#797979" d="M510.247,102.787c39.436-19.015,72.039-26.022,85.934-12.127l0.262,0.216
	c13.685,13.687,7.097,45.526-11.276,84.165c0,0-38.031-16.357-47.791-25.795C527.704,139.896,510.247,102.787,510.247,102.787z"/>
<path fill="#EBEBEB" stroke="#000000" stroke-width="2.1548" stroke-miterlimit="10" d="M278.514,408.846"/>
<path fill="#565656" d="M238.548,448.329c72.194-27.066,108.27-108.271,108.27-108.271l-0.129-0.128
	c0,0-81.164,36.036-108.229,108.23"/>
<path opacity="0.2" fill="#444444" enable-background="new    " d="M471.484,215.624c18.32,18.323,18.32,48.029,0.001,66.35
	c-18.323,18.324-48.029,18.324-66.354,0"/>
<circle opacity="0.5" fill="#FFFFFF" enable-background="new    " cx="435.855" cy="219.26" r="14.482"/>
<path opacity="0.2" fill="#444444" enable-background="new    " d="M596.181,90.659l0.262,0.216
	c13.685,13.687,7.097,45.526-11.276,84.165c0,0-38.031-16.357-47.791-25.795"/>
</svg>
