<?xml version="1.0" encoding="utf-8"?>
<!-- Generator: Adobe Illustrator 16.0.0, SVG Export Plug-In . SVG Version: 6.00 Build 0)  -->
<!DOCTYPE svg PUBLIC "-//W3C//DTD SVG 1.1//EN" "http://www.w3.org/Graphics/SVG/1.1/DTD/svg11.dtd">
<svg version="1.1" id="Capa_1" xmlns="http://www.w3.org/2000/svg" xmlns:xlink="http://www.w3.org/1999/xlink" x="0px" y="0px"
	 width="700px" height="700px" viewBox="0 0 700 700" enable-background="new 0 0 700 700" xml:space="preserve">
<rect fill="#2EACB5" width="700" height="700"/>
<polyline opacity="0.3" fill="#444444" points="1295.735,858.221 869.964,1230.494 214.103,575.578 251.799,554.5 496.139,554.5 
	501.077,532.137 499.891,358.504 547.162,339.411 558.684,288.308 530.703,233.951 498.83,203.494 497.941,73.722 632.038,207.9 "/>
<path fill="#F2E9EC" d="M492.5,540.595c0,12.271-9.313,22.905-20.892,22.905H239.222c-11.579,0-21.722-10.634-21.722-22.905V116.509
	c0-12.272,10.143-22.009,21.722-22.009h232.387c11.579,0,20.892,9.737,20.892,22.009v43.198v4.931V540.595z"/>
<polyline fill="#4B588A" points="217.5,140.5 217.5,94.5 492.5,94.5 492.5,140.5 "/>
<path fill="#444444" d="M484.618,68.5h-3.292h-60.898h-191.34c-10.907,0-18.587,6.375-18.587,17.282v44.439v93.816v342.347
	c0,10.907,10.68,22.116,21.587,22.116h252.531c10.907,0,15.882-11.209,15.882-22.116V166.381v-4.338v-5.486v-26.336V85.782
	C500.5,74.875,495.525,68.5,484.618,68.5z M485.5,500.548c0,10.907-8.08,20.952-18.986,20.952H247.609
	c-10.907,0-20.109-10.045-20.109-20.952v-376.91c0-10.907,9.202-19.138,20.109-19.138h218.905c10.906,0,18.986,8.23,18.986,19.138
	v38.393v4.383V500.548z"/>
<path opacity="0.5" fill="#FFFFFF" stroke="#1D1D1B" stroke-width="0.4115" stroke-miterlimit="10" d="M372.929,550.738
	c2.411-7.852-2.011-16.171-9.817-18.567c-7.985-2.451-16.208,1.988-18.62,9.838c-1.204,3.924-0.729,7.96,1.055,11.322
	c1.49,2.807,3.867,5.141,6.901,6.534c-0.076,0.073-0.156,0.149-0.223,0.232c-0.349,0.41-0.609,0.896-0.781,1.45l-3.149,10.277
	c-0.371,1.319,0.415,2.608,1.688,2.999c1.27,0.391,2.573-0.257,3.001-1.56l3.171-10.271c0.17-0.556,0.219-1.105,0.161-1.641
	c-0.013-0.108-0.032-0.214-0.054-0.318c3.294,0.55,6.594-0.042,9.402-1.529C369.027,557.723,371.725,554.662,372.929,550.738z
	 M367.805,546.321c0,5.169-4.094,9.356-9.145,9.356c-5.052,0-9.146-4.188-9.146-9.356s4.094-9.356,9.146-9.356
	C363.711,536.965,367.805,541.152,367.805,546.321z"/>
<path opacity="0.1" fill="#EAEAEA" d="M372.929,550.738c2.411-7.852-2.011-16.171-9.817-18.567
	c-7.985-2.451-16.208,1.988-18.62,9.838c-1.204,3.924-0.729,7.96,1.055,11.322c1.49,2.807,3.867,5.141,6.901,6.534
	c-0.076,0.073-0.156,0.149-0.223,0.232c-0.349,0.41-0.609,0.896-0.781,1.45l-3.149,10.277c-0.371,1.319,0.415,2.608,1.688,2.999
	c1.27,0.391,2.573-0.257,3.001-1.56l3.171-10.271c0.17-0.556,0.219-1.105,0.161-1.641c-0.013-0.108-0.032-0.214-0.054-0.318
	c3.294,0.55,6.594-0.042,9.402-1.529C369.027,557.723,371.725,554.662,372.929,550.738z M367.805,546.321
	c0,5.169-4.094,9.356-9.145,9.356c-5.052,0-9.146-4.188-9.146-9.356s4.094-9.356,9.146-9.356
	C363.711,536.965,367.805,541.152,367.805,546.321z"/>
<path fill-rule="evenodd" clip-rule="evenodd" fill="#DB4F4B" d="M276.555,487.846c0.387,0.918,0.915,1.774,1.365,2.666
	c0.166,0.325,0.349,0.404,0.71,0.258c1.042-0.42,2.103-0.801,3.159-1.193c0.148-0.055,0.292-0.167,0.471-0.09
	c0.068,0.031,0.121,0.01,0.161-0.051c0.355-0.017,0.575,0.162,0.771,0.446c1.472,2.138,3.205,4.034,5.254,5.636
	c0.487,0.384,0.564,0.74,0.291,1.35c-0.488,1.082-0.974,2.167-1.477,3.24c-0.13,0.28-0.114,0.422,0.174,0.611
	c1.832,1.22,3.793,2.188,5.817,3.031c1.133,0.471,2.295,0.873,3.483,1.192c0.334,0.087,0.478,0.003,0.609-0.304
	c0.472-1.088,0.971-2.167,1.469-3.245c0.264-0.572,0.592-0.744,1.188-0.627c2.556,0.487,5.123,0.547,7.701,0.249
	c0.346-0.038,0.624,0.008,0.844,0.285c0.352,1.171,0.841,2.292,1.254,3.436c0.086,0.235,0.127,0.494,0.307,0.686
	c0.658,0.07,1.262-0.191,1.884-0.325c1.775-0.379,3.456-1.061,5.132-1.732c1.077-0.434,2.093-1.006,3.107-1.575
	c0.125-0.069,0.224-0.193,0.336-0.291c0.024-0.222-0.101-0.4-0.173-0.592c-0.458-1.178-0.844-2.385-1.365-3.541
	c-0.016-0.354,0.161-0.57,0.448-0.768c2.135-1.473,4.03-3.203,5.63-5.252c0.386-0.493,0.743-0.57,1.349-0.295
	c1.069,0.477,2.14,0.956,3.197,1.457c0.295,0.137,0.464,0.133,0.659-0.164c1.31-1.984,2.355-4.102,3.221-6.313
	c0.383-0.978,0.696-1.978,1.008-2.977c0.114-0.363-0.006-0.473-0.296-0.602c-1.085-0.479-2.163-0.973-3.242-1.469
	c-0.579-0.268-0.757-0.59-0.645-1.18c0.488-2.582,0.553-5.178,0.243-7.783c-0.027-0.231-0.02-0.45,0.156-0.631
	c0.125-0.035,0.209-0.127,0.294-0.215c0.083-0.175,0.265-0.185,0.415-0.24c1.08-0.41,2.157-0.826,3.247-1.213
	c0.299-0.105,0.352-0.274,0.299-0.54c-0.452-2.366-1.254-4.622-2.183-6.831c-0.387-0.918-0.915-1.775-1.368-2.666
	c-0.163-0.325-0.349-0.404-0.709-0.26c-1.042,0.422-2.102,0.801-3.158,1.193c-0.149,0.055-0.291,0.168-0.468,0.09
	c-0.072-0.029-0.124-0.01-0.166,0.052c-0.352,0.018-0.572-0.163-0.77-0.447c-1.472-2.136-3.205-4.034-5.254-5.636
	c-0.49-0.382-0.564-0.738-0.291-1.35c0.487-1.082,0.974-2.165,1.478-3.24c0.13-0.279,0.114-0.42-0.174-0.609
	c-1.831-1.22-3.793-2.19-5.817-3.031c-1.133-0.471-2.295-0.875-3.485-1.191c-0.334-0.088-0.476-0.004-0.609,0.299
	c-0.473,1.094-0.968,2.169-1.468,3.247c-0.263,0.572-0.59,0.743-1.186,0.629c-2.556-0.49-5.124-0.547-7.702-0.251
	c-0.344,0.04-0.624-0.006-0.844-0.285c-0.352-1.17-0.841-2.289-1.255-3.436c-0.085-0.233-0.125-0.492-0.306-0.687
	c-0.656-0.065-1.26,0.194-1.882,0.326c-1.776,0.381-3.458,1.062-5.134,1.735c-1.079,0.434-2.093,1.006-3.107,1.572
	c-0.127,0.071-0.224,0.195-0.334,0.293c-0.026,0.221,0.098,0.4,0.172,0.59c0.458,1.18,0.844,2.387,1.365,3.539
	c0.016,0.355-0.164,0.574-0.449,0.771c-2.134,1.471-4.031,3.203-5.632,5.252c-0.384,0.491-0.741,0.568-1.347,0.295
	c-1.07-0.48-2.139-0.956-3.198-1.459c-0.292-0.137-0.463-0.131-0.658,0.166c-1.307,1.984-2.353,4.102-3.221,6.312
	c-0.383,0.979-0.696,1.977-1.008,2.977c-0.114,0.363,0.006,0.473,0.295,0.601c1.085,0.479,2.164,0.975,3.241,1.47
	c0.58,0.269,0.757,0.591,0.646,1.179c-0.489,2.582-0.555,5.18-0.243,7.787c0.027,0.229,0.019,0.448-0.158,0.627
	c-0.124,0.035-0.207,0.128-0.294,0.215c-0.082,0.177-0.262,0.186-0.413,0.241c-1.08,0.411-2.159,0.826-3.249,1.214
	c-0.297,0.105-0.349,0.274-0.297,0.539C274.822,483.377,275.625,485.635,276.555,487.846z M291.807,477.779
	c-0.553-2.564-0.315-5.072,0.631-7.504c0.733-1.883,1.86-3.517,3.353-4.886c1.056-0.968,2.232-1.749,3.549-2.316
	c0.506-0.134,0.995-0.316,1.466-0.55c0.383-0.165,0.796-0.222,1.199-0.307c2.565-0.555,5.071-0.314,7.504,0.63
	c1.887,0.733,3.519,1.858,4.887,3.353c0.983,1.074,1.779,2.27,2.342,3.617c0.119,0.461,0.286,0.906,0.5,1.33
	c0.18,0.407,0.241,0.842,0.333,1.269c0.554,2.563,0.316,5.071-0.63,7.503c-0.733,1.886-1.859,3.519-3.354,4.887
	c-1.054,0.967-2.232,1.75-3.549,2.316c-0.506,0.135-0.993,0.318-1.466,0.549c-0.511,0.189-1.048,0.281-1.58,0.383
	c-2.458,0.457-4.843,0.187-7.157-0.717c-1.723-0.674-3.237-1.685-4.534-3.006c-1.13-1.15-2.033-2.457-2.659-3.951
	c-0.119-0.461-0.286-0.906-0.5-1.33C291.961,478.644,291.9,478.208,291.807,477.779z"/>
<line fill="none" stroke="#DB4F4B" stroke-width="16" stroke-linecap="round" stroke-miterlimit="10" x1="368.5" y1="249.5" x2="248.5" y2="249.5"/>
<line fill="none" stroke="#EEB04D" stroke-width="16" stroke-linecap="round" stroke-miterlimit="10" x1="368.5" y1="289.5" x2="268.5" y2="289.5"/>
<line fill="none" stroke="#2EACB5" stroke-width="16" stroke-linecap="round" stroke-miterlimit="10" x1="368.5" y1="330.5" x2="317.5" y2="330.5"/>
<line opacity="0.1" fill="none" stroke="#EAEAEA" stroke-width="7" stroke-linecap="round" stroke-miterlimit="10" x1="292.5" y1="541" x2="256.5" y2="541"/>
<line opacity="0.1" fill="none" stroke="#EAEAEA" stroke-width="7" stroke-linecap="round" stroke-miterlimit="10" x1="292.5" y1="554" x2="256.5" y2="554"/>
<line opacity="0.1" fill="none" stroke="#EAEAEA" stroke-width="7" stroke-linecap="round" stroke-miterlimit="10" x1="292.5" y1="567" x2="256.5" y2="567"/>
<path fill-rule="evenodd" clip-rule="evenodd" fill="#DB4F4B" d="M390.945,294.626c0.135,3.385,0.791,6.748,1.16,10.129
	c0.135,1.231,0.632,1.702,1.951,1.668c3.827-0.093,7.657-0.039,11.486-0.024c0.539,0.003,1.133-0.185,1.605,0.273
	c0.184,0.182,0.379,0.177,0.582,0.031c1.146,0.37,1.631,1.204,1.916,2.347c2.137,8.564,5.389,16.677,10.002,24.227
	c1.102,1.807,0.913,3.033-0.688,4.65c-2.846,2.864-5.69,5.732-8.577,8.554c-0.749,0.734-0.862,1.202-0.177,2.154
	c4.375,6.076,9.464,11.505,14.903,16.607c3.046,2.856,6.265,5.524,9.675,7.958c0.957,0.683,1.508,0.585,2.3-0.231
	c2.81-2.902,5.677-5.743,8.554-8.582c1.527-1.508,2.771-1.662,4.537-0.582c7.552,4.61,15.662,7.865,24.228,10.003
	c1.146,0.284,1.978,0.771,2.344,1.917c-0.274,4.147-0.062,8.297-0.108,12.447c-0.009,0.846-0.189,1.717,0.156,2.545
	c2.013,1.006,4.245,0.894,6.387,1.213c6.107,0.915,12.274,0.753,18.42,0.611c3.949-0.094,7.869-0.696,11.776-1.295
	c0.487-0.074,0.945-0.348,1.417-0.529c0.343-0.674,0.166-1.394,0.158-2.088c-0.051-4.301,0.166-8.607-0.113-12.907
	c0.371-1.144,1.201-1.63,2.344-1.913c8.561-2.137,16.668-5.389,24.217-9.995c1.813-1.107,3.042-0.926,4.648,0.667
	c2.83,2.803,5.666,5.605,8.439,8.466c0.771,0.794,1.32,0.978,2.294,0.269c6.538-4.765,12.4-10.254,17.808-16.264
	c2.389-2.654,4.576-5.459,6.768-8.274c0.791-1.018,0.544-1.513-0.225-2.267c-2.885-2.822-5.73-5.683-8.568-8.554
	c-1.527-1.544-1.709-2.785-0.649-4.529c4.646-7.638,7.958-15.826,10.081-24.5c0.189-0.77,0.475-1.456,1.249-1.818
	c0.44,0.036,0.816-0.156,1.196-0.337c0.471-0.457,1.063-0.269,1.607-0.271c3.93-0.015,7.862-0.05,11.792,0.021
	c1.075,0.018,1.443-0.453,1.598-1.363c1.383-8.074,1.529-16.218,1.206-24.367c-0.134-3.385-0.789-6.75-1.159-10.129
	c-0.135-1.231-0.632-1.702-1.951-1.671c-3.827,0.095-7.657,0.042-11.485,0.026c-0.541-0.002-1.134,0.188-1.605-0.272
	c-0.186-0.182-0.381-0.178-0.584-0.032c-1.145-0.368-1.631-1.204-1.914-2.345c-2.139-8.567-5.391-16.678-10.002-24.227
	c-1.102-1.805-0.914-3.033,0.688-4.65c2.844-2.866,5.689-5.733,8.576-8.554c0.749-0.736,0.863-1.202,0.177-2.154
	c-4.375-6.076-9.464-11.505-14.903-16.606c-3.046-2.856-6.266-5.524-9.674-7.959c-0.96-0.682-1.51-0.583-2.301,0.233
	c-2.81,2.901-5.677,5.743-8.555,8.58c-1.526,1.51-2.771,1.661-4.537,0.584c-7.551-4.613-15.66-7.867-24.229-10.002
	c-1.143-0.286-1.975-0.77-2.342-1.917c0.275-4.147,0.061-8.3,0.109-12.449c0.008-0.844,0.188-1.713-0.158-2.544
	c-2.012-1.005-4.246-0.894-6.384-1.212c-6.11-0.915-12.276-0.752-18.421-0.611c-3.951,0.09-7.87,0.696-11.777,1.292
	c-0.486,0.076-0.945,0.351-1.418,0.531c-0.342,0.673-0.164,1.395-0.157,2.089c0.052,4.301-0.165,8.605,0.112,12.904
	c-0.369,1.147-1.2,1.631-2.344,1.917c-8.561,2.136-16.669,5.388-24.215,9.994c-1.813,1.107-3.043,0.926-4.648-0.667
	c-2.831-2.806-5.668-5.606-8.44-8.467c-0.771-0.792-1.321-0.976-2.292-0.267c-6.541,4.766-12.402,10.253-17.809,16.263
	c-2.388,2.655-4.576,5.46-6.768,8.274c-0.793,1.018-0.547,1.511,0.224,2.265c2.885,2.822,5.729,5.685,8.568,8.554
	c1.525,1.544,1.708,2.787,0.649,4.528c-4.646,7.641-7.956,15.829-10.082,24.503c-0.188,0.77-0.473,1.457-1.248,1.815
	c-0.44-0.036-0.816,0.157-1.195,0.339c-0.471,0.458-1.064,0.27-1.607,0.272c-3.929,0.016-7.863,0.051-11.793-0.02
	c-1.076-0.019-1.443,0.453-1.598,1.361C390.77,278.331,390.623,286.477,390.945,294.626z M451.557,280.803
	c1.309-8.833,5.061-16.53,10.981-23.149c4.587-5.13,10.126-8.981,16.523-11.557c4.517-1.816,9.202-2.899,14.073-3.131
	c1.773,0.172,3.547,0.172,5.32,0c1.422-0.071,2.801,0.248,4.191,0.453c8.833,1.302,16.529,5.057,23.149,10.978
	c5.131,4.587,8.985,10.126,11.556,16.525c1.845,4.591,2.953,9.353,3.135,14.315c-0.174,1.612-0.174,3.224,0,4.836
	c0.089,1.504-0.236,2.964-0.453,4.435c-1.308,8.832-5.06,16.528-10.98,23.148c-4.588,5.131-10.127,8.983-16.523,11.555
	c-4.517,1.818-9.202,2.903-14.074,3.133c-1.772-0.172-3.545-0.172-5.32,0c-1.859-0.008-3.674-0.357-5.496-0.677
	c-8.369-1.476-15.645-5.192-21.932-10.835c-4.688-4.205-8.305-9.234-10.858-14.993c-2.223-5.017-3.536-10.263-3.745-15.765
	c0.176-1.612,0.178-3.226,0-4.838C451.016,283.735,451.34,282.275,451.557,280.803z"/>
<path fill-rule="evenodd" clip-rule="evenodd" fill="#EEB04D" d="M343.917,442.773c0.085,2.131,0.498,4.246,0.729,6.374
	c0.085,0.774,0.398,1.071,1.228,1.05c2.408-0.06,4.819-0.024,7.228-0.015c0.34,0.002,0.713-0.117,1.012,0.171
	c0.114,0.115,0.238,0.112,0.365,0.02c0.721,0.232,1.026,0.758,1.205,1.477c1.346,5.389,3.392,10.494,6.295,15.245
	c0.691,1.137,0.574,1.909-0.434,2.926c-1.79,1.804-3.58,3.606-5.396,5.384c-0.471,0.462-0.543,0.756-0.111,1.354
	c2.754,3.824,5.955,7.241,9.379,10.451c1.916,1.797,3.941,3.477,6.087,5.008c0.603,0.43,0.948,0.367,1.446-0.146
	c1.768-1.827,3.573-3.615,5.383-5.401c0.961-0.947,1.744-1.044,2.856-0.364c4.751,2.899,9.854,4.947,15.245,6.294
	c0.721,0.179,1.244,0.484,1.475,1.206c-0.174,2.61-0.039,5.221-0.068,7.832c-0.006,0.532-0.12,1.08,0.099,1.602
	c1.267,0.633,2.671,0.563,4.019,0.763c3.843,0.576,7.725,0.475,11.59,0.386c2.485-0.06,4.953-0.438,7.412-0.816
	c0.305-0.046,0.594-0.219,0.892-0.332c0.216-0.423,0.104-0.876,0.099-1.313c-0.033-2.707,0.104-5.417-0.071-8.122
	c0.233-0.72,0.755-1.025,1.476-1.204c5.387-1.346,10.488-3.391,15.237-6.289c1.142-0.697,1.915-0.584,2.925,0.42
	c1.781,1.763,3.565,3.527,5.311,5.326c0.486,0.5,0.832,0.615,1.443,0.169c4.115-2.998,7.805-6.452,11.207-10.233
	c1.502-1.67,2.879-3.436,4.26-5.207c0.496-0.639,0.34-0.951-0.144-1.426c-1.815-1.775-3.605-3.576-5.392-5.383
	c-0.961-0.973-1.074-1.754-0.408-2.85c2.924-4.808,5.008-9.959,6.343-15.418c0.12-0.484,0.3-0.916,0.786-1.144
	c0.278,0.022,0.515-0.099,0.752-0.212c0.298-0.288,0.67-0.169,1.014-0.171c2.471-0.01,4.947-0.032,7.419,0.013
	c0.679,0.012,0.909-0.285,1.006-0.857c0.87-5.08,0.962-10.205,0.759-15.333c-0.084-2.13-0.496-4.248-0.73-6.374
	c-0.084-0.775-0.396-1.07-1.228-1.052c-2.407,0.06-4.818,0.026-7.226,0.017c-0.342-0.002-0.715,0.117-1.01-0.172
	c-0.117-0.115-0.241-0.113-0.368-0.02c-0.72-0.232-1.027-0.759-1.206-1.476c-1.346-5.392-3.391-10.496-6.293-15.245
	c-0.693-1.137-0.574-1.908,0.434-2.928c1.789-1.803,3.579-3.606,5.395-5.381c0.473-0.463,0.544-0.758,0.113-1.357
	c-2.754-3.822-5.957-7.238-9.379-10.449c-1.916-1.797-3.943-3.477-6.087-5.008c-0.604-0.43-0.95-0.368-1.448,0.146
	c-1.768,1.826-3.571,3.613-5.383,5.398c-0.961,0.95-1.744,1.045-2.854,0.369c-4.751-2.903-9.854-4.951-15.247-6.295
	c-0.719-0.18-1.242-0.485-1.473-1.207c0.172-2.609,0.039-5.223,0.068-7.834c0.006-0.531,0.118-1.078-0.099-1.602
	c-1.267-0.631-2.673-0.563-4.019-0.762c-3.845-0.575-7.725-0.474-11.592-0.384c-2.484,0.056-4.952,0.437-7.41,0.813
	c-0.307,0.047-0.594,0.22-0.892,0.332c-0.216,0.425-0.103,0.878-0.1,1.315c0.032,2.706-0.104,5.415,0.071,8.12
	c-0.232,0.722-0.756,1.027-1.475,1.207c-5.388,1.344-10.489,3.39-15.238,6.287c-1.141,0.698-1.915,0.584-2.926-0.419
	c-1.781-1.767-3.565-3.528-5.311-5.328c-0.486-0.498-0.831-0.614-1.441-0.167c-4.117,2.999-7.805,6.451-11.207,10.232
	c-1.503,1.672-2.881,3.436-4.258,5.207c-0.498,0.641-0.344,0.951,0.141,1.426c1.815,1.776,3.604,3.576,5.393,5.383
	c0.959,0.971,1.074,1.754,0.408,2.849c-2.924,4.81-5.008,9.96-6.345,15.419c-0.119,0.484-0.298,0.916-0.786,1.143
	c-0.276-0.022-0.513,0.098-0.752,0.213c-0.296,0.289-0.669,0.17-1.012,0.172c-2.472,0.01-4.948,0.031-7.42-0.014
	c-0.677-0.011-0.908,0.287-1.006,0.857C343.806,432.52,343.714,437.646,343.917,442.773z M382.057,434.076
	c0.824-5.559,3.184-10.401,6.91-14.567c2.887-3.228,6.373-5.651,10.397-7.271c2.842-1.144,5.791-1.826,8.856-1.971
	c1.115,0.107,2.23,0.107,3.348,0c0.895-0.045,1.762,0.155,2.637,0.286c5.558,0.818,10.402,3.181,14.566,6.906
	c3.229,2.887,5.654,6.373,7.271,10.399c1.162,2.889,1.859,5.885,1.975,9.008c-0.111,1.015-0.111,2.028,0,3.042
	c0.055,0.947-0.15,1.865-0.287,2.791c-0.822,5.559-3.184,10.4-6.91,14.566c-2.887,3.229-6.371,5.653-10.396,7.271
	c-2.843,1.144-5.791,1.826-8.856,1.971c-1.115-0.107-2.23-0.107-3.348,0c-1.17-0.004-2.313-0.223-3.459-0.426
	c-5.268-0.929-9.846-3.266-13.801-6.818c-2.949-2.646-5.225-5.811-6.832-9.434c-1.398-3.156-2.225-6.457-2.357-9.92
	c0.109-1.014,0.111-2.029,0-3.044C381.716,435.92,381.92,435.002,382.057,434.076z"/>
<polygon opacity="0.1" fill="#EAEAEA" stroke="#EAEAEA" stroke-width="3" stroke-linecap="round" stroke-linejoin="round" stroke-miterlimit="10" points="
	456,534.921 427.719,552.394 456,569.865 "/>
</svg>
