<?xml version="1.0" encoding="utf-8"?>
<!-- Generator: Adobe Illustrator 16.0.0, SVG Export Plug-In . SVG Version: 6.00 Build 0)  -->
<!DOCTYPE svg PUBLIC "-//W3C//DTD SVG 1.1//EN" "http://www.w3.org/Graphics/SVG/1.1/DTD/svg11.dtd">
<svg version="1.1" id="Capa_1" xmlns="http://www.w3.org/2000/svg" xmlns:xlink="http://www.w3.org/1999/xlink" x="0px" y="0px"
	 width="700px" height="700px" viewBox="0 0 700 700" enable-background="new 0 0 700 700" xml:space="preserve">
<rect fill="#2EACB5" width="700" height="700"/>
<path fill="#F2E9EC" d="M468.519,507.336c0,10.575-8.024,19.739-18.004,19.739H250.252c-9.979,0-18.719-9.164-18.719-19.739V141.873
	c0-10.576,8.741-18.967,18.719-18.967h200.264c9.979,0,18.004,8.391,18.004,18.967V179.1v4.25L468.519,507.336L468.519,507.336z"/>
<polyline fill="#4B588A" points="231.533,162.547 231.533,122.906 468.519,122.906 468.519,162.547 "/>
<path fill="#444444" d="M461.727,100.5h-2.837H406.41H241.519c-9.399,0-16.018,5.494-16.018,14.893v38.296v80.847V529.56
	c0,9.399,9.204,19.06,18.603,19.06h217.624c9.399,0,13.688-9.659,13.688-19.06V184.85v-3.738v-4.728v-22.695v-38.296
	C475.413,105.994,471.126,100.5,461.727,100.5z M462.486,472.825c0,9.398-6.963,18.056-16.362,18.056H257.479
	c-9.399,0-17.329-8.656-17.329-18.056V148.016c0-9.399,7.93-16.493,17.329-16.493h188.645c9.399,0,16.362,7.093,16.362,16.493
	v33.086v3.777V472.825L462.486,472.825z"/>
<path opacity="0.5" fill="#FFFFFF" stroke="#1D1D1B" stroke-width="0.3546" stroke-miterlimit="10" enable-background="new    " d="
	M365.477,516.077c2.078-6.768-1.732-13.937-8.461-16.001c-6.881-2.112-13.967,1.714-16.044,8.479
	c-1.038,3.381-0.628,6.859,0.909,9.758c1.285,2.419,3.333,4.43,5.948,5.631c-0.066,0.063-0.135,0.128-0.193,0.198
	c-0.3,0.354-0.524,0.773-0.673,1.25l-2.713,8.856c-0.319,1.137,0.358,2.247,1.455,2.585c1.094,0.337,2.218-0.222,2.586-1.345
	l2.731-8.852c0.147-0.479,0.188-0.953,0.141-1.415c-0.012-0.093-0.027-0.185-0.047-0.272c2.839,0.474,5.682-0.036,8.102-1.318
	C362.113,522.097,364.438,519.459,365.477,516.077z M361.061,512.271c0,4.454-3.527,8.063-7.881,8.063s-7.882-3.608-7.882-8.063
	c0-4.453,3.528-8.063,7.882-8.063C357.532,504.208,361.061,507.816,361.061,512.271z"/>
<path opacity="0.1" fill="#EAEAEA" enable-background="new    " d="M365.477,516.077c2.078-6.768-1.732-13.937-8.461-16.001
	c-6.881-2.112-13.967,1.714-16.044,8.479c-1.038,3.381-0.628,6.859,0.909,9.758c1.285,2.419,3.333,4.43,5.948,5.631
	c-0.066,0.063-0.135,0.128-0.193,0.198c-0.3,0.354-0.524,0.773-0.673,1.25l-2.713,8.856c-0.319,1.137,0.358,2.247,1.455,2.585
	c1.094,0.337,2.218-0.222,2.586-1.345l2.731-8.852c0.147-0.479,0.188-0.953,0.141-1.415c-0.012-0.093-0.027-0.185-0.047-0.272
	c2.839,0.474,5.682-0.036,8.102-1.318C362.113,522.097,364.438,519.459,365.477,516.077z M361.061,512.271
	c0,4.454-3.527,8.063-7.881,8.063s-7.882-3.608-7.882-8.063c0-4.453,3.528-8.063,7.882-8.063
	C357.532,504.208,361.061,507.816,361.061,512.271z"/>
<path fill="#DB4F4B" d="M282.424,461.879c0.333,0.791,0.789,1.528,1.176,2.297c0.143,0.28,0.301,0.35,0.612,0.224
	c0.898-0.362,1.812-0.69,2.722-1.027c0.127-0.048,0.252-0.146,0.406-0.078c0.059,0.026,0.104,0.009,0.139-0.044
	c0.306-0.015,0.496,0.14,0.665,0.384c1.269,1.843,2.762,3.478,4.528,4.857c0.42,0.331,0.486,0.638,0.25,1.163
	c-0.42,0.933-0.839,1.867-1.272,2.793c-0.112,0.239-0.098,0.362,0.15,0.524c1.579,1.054,3.269,1.888,5.013,2.612
	c0.977,0.406,1.978,0.753,3.001,1.028c0.288,0.073,0.412,0.002,0.525-0.264c0.407-0.938,0.837-1.868,1.266-2.797
	c0.228-0.492,0.51-0.641,1.024-0.54c2.203,0.42,4.415,0.472,6.637,0.215c0.298-0.032,0.538,0.008,0.727,0.245
	c0.303,1.009,0.725,1.977,1.081,2.962c0.074,0.202,0.109,0.427,0.265,0.592c0.567,0.061,1.087-0.164,1.624-0.28
	c1.53-0.327,2.978-0.914,4.423-1.492c0.928-0.375,1.803-0.867,2.677-1.357c0.108-0.06,0.193-0.167,0.29-0.251
	c0.021-0.19-0.087-0.345-0.149-0.51c-0.395-1.016-0.728-2.057-1.177-3.052c-0.014-0.306,0.139-0.491,0.386-0.662
	c1.84-1.27,3.473-2.761,4.852-4.526c0.332-0.425,0.64-0.489,1.163-0.254c0.921,0.411,1.844,0.824,2.755,1.256
	c0.254,0.117,0.399,0.114,0.568-0.142c1.129-1.709,2.029-3.535,2.775-5.439c0.331-0.844,0.6-1.705,0.869-2.565
	c0.098-0.313-0.005-0.407-0.255-0.52c-0.935-0.412-1.864-0.839-2.794-1.266c-0.499-0.23-0.652-0.509-0.556-1.018
	c0.42-2.226,0.477-4.462,0.209-6.707c-0.023-0.199-0.017-0.389,0.134-0.544c0.108-0.03,0.18-0.109,0.253-0.186
	c0.071-0.15,0.229-0.159,0.357-0.207c0.931-0.354,1.859-0.712,2.798-1.046c0.258-0.09,0.303-0.234,0.258-0.465
	c-0.39-2.039-1.081-3.983-1.881-5.887c-0.333-0.791-0.789-1.529-1.179-2.298c-0.141-0.279-0.301-0.349-0.611-0.225
	c-0.898,0.363-1.812,0.689-2.722,1.028c-0.128,0.047-0.251,0.145-0.403,0.077c-0.063-0.025-0.107-0.009-0.143,0.045
	c-0.303,0.016-0.493-0.142-0.664-0.385c-1.269-1.843-2.762-3.478-4.528-4.857c-0.422-0.329-0.486-0.636-0.25-1.163
	c0.419-0.933,0.839-1.866,1.273-2.793c0.112-0.24,0.098-0.361-0.149-0.523c-1.578-1.053-3.27-1.888-5.014-2.611
	c-0.976-0.407-1.978-0.754-3.003-1.027c-0.288-0.075-0.41-0.003-0.525,0.258c-0.408,0.943-0.834,1.869-1.265,2.799
	c-0.227,0.492-0.508,0.641-1.022,0.542c-2.203-0.422-4.416-0.472-6.637-0.217c-0.296,0.034-0.538-0.005-0.728-0.246
	c-0.303-1.008-0.725-1.972-1.082-2.96c-0.073-0.2-0.107-0.425-0.264-0.592c-0.565-0.057-1.085,0.166-1.622,0.28
	c-1.53,0.328-2.98,0.915-4.424,1.495c-0.93,0.374-1.804,0.867-2.678,1.354c-0.109,0.062-0.193,0.167-0.288,0.252
	c-0.022,0.19,0.085,0.346,0.149,0.51c0.395,1.017,0.727,2.057,1.176,3.05c0.014,0.305-0.141,0.494-0.387,0.664
	c-1.839,1.268-3.474,2.76-4.854,4.524c-0.331,0.425-0.638,0.49-1.161,0.254c-0.922-0.413-1.843-0.822-2.756-1.257
	c-0.252-0.118-0.399-0.112-0.567,0.144c-1.126,1.711-2.028,3.536-2.776,5.439c-0.33,0.843-0.6,1.703-0.869,2.565
	c-0.099,0.313,0.005,0.408,0.254,0.518c0.935,0.413,1.865,0.84,2.793,1.268c0.5,0.231,0.653,0.51,0.557,1.017
	c-0.421,2.225-0.478,4.464-0.209,6.71c0.023,0.198,0.016,0.387-0.136,0.54c-0.107,0.031-0.179,0.11-0.253,0.187
	c-0.071,0.152-0.226,0.16-0.356,0.208c-0.931,0.354-1.861,0.712-2.8,1.046c-0.256,0.091-0.301,0.235-0.256,0.465
	C280.931,458.027,281.623,459.974,282.424,461.879z M295.568,453.203c-0.477-2.209-0.271-4.371,0.544-6.466
	c0.631-1.624,1.603-3.031,2.889-4.212c0.91-0.834,1.924-1.508,3.059-1.995c0.436-0.115,0.857-0.272,1.264-0.475
	c0.33-0.143,0.686-0.191,1.033-0.266c2.21-0.478,4.371-0.271,6.467,0.543c1.626,0.633,3.033,1.602,4.211,2.891
	c0.847,0.927,1.533,1.955,2.019,3.117c0.103,0.396,0.246,0.779,0.431,1.146c0.155,0.351,0.208,0.726,0.287,1.094
	c0.478,2.208,0.272,4.37-0.543,6.466c-0.632,1.625-1.602,3.033-2.891,4.211c-0.908,0.834-1.923,1.508-3.058,1.996
	c-0.436,0.116-0.856,0.274-1.263,0.473c-0.44,0.164-0.903,0.243-1.362,0.33c-2.118,0.396-4.174,0.162-6.167-0.616
	c-1.485-0.581-2.79-1.452-3.908-2.592c-0.974-0.99-1.751-2.116-2.291-3.403c-0.103-0.397-0.247-0.781-0.431-1.146
	C295.701,453.948,295.648,453.573,295.568,453.203z"/>
<line fill="none" stroke="#DB4F4B" stroke-width="13.7883" stroke-linecap="round" stroke-miterlimit="10" x1="361.659" y1="256.48" x2="258.247" y2="256.48"/>
<line fill="none" stroke="#EEB04D" stroke-width="13.7883" stroke-linecap="round" stroke-miterlimit="10" x1="361.659" y1="290.951" x2="275.482" y2="290.951"/>
<line fill="none" stroke="#2EACB5" stroke-width="13.7883" stroke-linecap="round" stroke-miterlimit="10" x1="361.659" y1="326.283" x2="317.709" y2="326.283"/>
<line opacity="0.1" fill="none" stroke="#EAEAEA" stroke-width="6.0324" stroke-linecap="round" stroke-miterlimit="10" enable-background="new    " x1="296.165" y1="507.686" x2="265.142" y2="507.686"/>
<line opacity="0.1" fill="none" stroke="#EAEAEA" stroke-width="6.0324" stroke-linecap="round" stroke-miterlimit="10" enable-background="new    " x1="296.165" y1="518.888" x2="265.142" y2="518.888"/>
<line opacity="0.1" fill="none" stroke="#EAEAEA" stroke-width="6.0324" stroke-linecap="round" stroke-miterlimit="10" enable-background="new    " x1="296.165" y1="530.091" x2="265.142" y2="530.091"/>
<path fill="#DB4F4B" d="M381.002,295.368c0.116,2.917,0.682,5.815,1,8.729c0.116,1.061,0.544,1.467,1.682,1.438
	c3.297-0.08,6.599-0.034,9.897-0.02c0.465,0.002,0.978-0.16,1.384,0.235c0.158,0.157,0.326,0.152,0.5,0.027
	c0.988,0.319,1.406,1.039,1.651,2.022c1.843,7.381,4.645,14.372,8.62,20.879c0.948,1.558,0.786,2.613-0.594,4.006
	c-2.451,2.469-4.903,4.94-7.392,7.372c-0.646,0.633-0.743,1.035-0.152,1.856c3.771,5.236,8.155,9.915,12.844,14.312
	c2.625,2.461,5.398,4.761,8.338,6.857c0.824,0.589,1.299,0.505,1.98-0.199c2.422-2.5,4.894-4.949,7.372-7.396
	c1.315-1.301,2.389-1.434,3.909-0.501c6.508,3.973,13.497,6.776,20.88,8.618c0.987,0.246,1.704,0.666,2.021,1.652
	c-0.236,3.574-0.055,7.15-0.095,10.728c-0.007,0.729-0.162,1.479,0.136,2.192c1.733,0.867,3.657,0.771,5.504,1.045
	c5.264,0.789,10.578,0.649,15.874,0.527c3.402-0.081,6.78-0.6,10.147-1.115c0.42-0.063,0.814-0.301,1.222-0.457
	c0.296-0.58,0.144-1.201,0.137-1.799c-0.044-3.707,0.143-7.418-0.098-11.123c0.318-0.986,1.034-1.404,2.02-1.647
	c7.378-1.843,14.364-4.646,20.87-8.613c1.563-0.954,2.622-0.799,4.005,0.574c2.439,2.416,4.883,4.83,7.273,7.297
	c0.663,0.684,1.137,0.842,1.977,0.229c5.635-4.104,10.686-8.836,15.346-14.015c2.06-2.287,3.944-4.704,5.833-7.13
	c0.683-0.877,0.47-1.305-0.193-1.954c-2.485-2.433-4.938-4.898-7.384-7.371c-1.315-1.332-1.473-2.4-0.56-3.903
	c4.003-6.582,6.857-13.638,8.688-21.112c0.162-0.664,0.408-1.256,1.075-1.567c0.38,0.031,0.703-0.135,1.031-0.291
	c0.405-0.394,0.915-0.231,1.384-0.233c3.389-0.014,6.775-0.044,10.162,0.018c0.927,0.016,1.244-0.39,1.378-1.174
	c1.191-6.958,1.317-13.977,1.039-20.999c-0.116-2.917-0.68-5.817-0.999-8.729c-0.117-1.061-0.544-1.467-1.682-1.44
	c-3.298,0.082-6.6,0.036-9.897,0.022c-0.466-0.001-0.977,0.162-1.383-0.234c-0.16-0.157-0.328-0.153-0.503-0.027
	c-0.987-0.317-1.405-1.038-1.649-2.021c-1.844-7.382-4.646-14.373-8.618-20.878c-0.95-1.556-0.788-2.614,0.592-4.007
	c2.452-2.47,4.902-4.94,7.391-7.372c0.646-0.634,0.744-1.036,0.152-1.856c-3.771-5.236-8.155-9.915-12.842-14.311
	c-2.626-2.461-5.4-4.76-8.339-6.859c-0.826-0.588-1.301-0.502-1.981,0.201c-2.421,2.5-4.893,4.949-7.372,7.394
	c-1.315,1.301-2.389,1.431-3.91,0.503c-6.507-3.976-13.495-6.78-20.88-8.62c-0.984-0.247-1.702-0.664-2.02-1.652
	c0.237-3.574,0.055-7.153,0.096-10.728c0.007-0.728,0.161-1.477-0.137-2.192c-1.733-0.866-3.659-0.771-5.502-1.044
	c-5.266-0.789-10.578-0.648-15.875-0.526c-3.403,0.077-6.781,0.6-10.148,1.113c-0.419,0.065-0.814,0.302-1.222,0.458
	c-0.296,0.58-0.143,1.202-0.137,1.8c0.046,3.707-0.142,7.416,0.098,11.121c-0.317,0.988-1.034,1.405-2.021,1.652
	c-7.378,1.841-14.364,4.643-20.867,8.612c-1.563,0.955-2.622,0.798-4.006-0.575c-2.438-2.418-4.885-4.831-7.272-7.296
	c-0.664-0.683-1.14-0.841-1.977-0.23c-5.636,4.107-10.688,8.835-15.347,14.015c-2.059,2.288-3.943,4.705-5.832,7.13
	c-0.684,0.877-0.472,1.302,0.191,1.952c2.486,2.432,4.938,4.899,7.385,7.371c1.313,1.331,1.472,2.402,0.559,3.902
	c-4.003,6.584-6.854,13.641-8.688,21.116c-0.162,0.664-0.408,1.255-1.076,1.564c-0.379-0.031-0.702,0.135-1.029,0.292
	c-0.406,0.395-0.917,0.232-1.385,0.234c-3.387,0.014-6.776,0.044-10.163-0.017c-0.929-0.017-1.244,0.39-1.377,1.173
	C380.852,281.326,380.725,288.346,381.002,295.368z M433.235,283.456c1.128-7.612,4.36-14.245,9.463-19.949
	c3.953-4.421,8.727-7.74,14.237-9.959c3.895-1.565,7.932-2.498,12.129-2.698c1.527,0.148,3.057,0.148,4.585,0
	c1.226-0.061,2.413,0.213,3.61,0.39c7.613,1.123,14.244,4.358,19.949,9.461c4.422,3.953,7.743,8.726,9.959,14.24
	c1.59,3.957,2.545,8.061,2.702,12.336c-0.151,1.389-0.151,2.778,0,4.168c0.076,1.296-0.204,2.554-0.392,3.821
	c-1.128,7.611-4.36,14.244-9.463,19.949c-3.953,4.421-8.727,7.741-14.237,9.958c-3.895,1.567-7.932,2.502-12.129,2.7
	c-1.527-0.148-3.056-0.148-4.585,0c-1.603-0.007-3.166-0.307-4.736-0.583c-7.212-1.271-13.481-4.475-18.899-9.337
	c-4.041-3.624-7.157-7.958-9.356-12.921c-1.916-4.323-3.048-8.844-3.229-13.585c0.152-1.389,0.153-2.78,0-4.169
	C432.769,285.982,433.048,284.724,433.235,283.456z"/>
<path fill="#EEB04D" d="M340.475,423.037c0.073,1.836,0.429,3.658,0.628,5.492c0.073,0.667,0.343,0.923,1.058,0.904
	c2.075-0.053,4.153-0.021,6.229-0.014c0.293,0.002,0.614-0.101,0.872,0.147c0.1,0.099,0.206,0.097,0.315,0.018
	c0.622,0.199,0.884,0.653,1.039,1.272c1.159,4.645,2.923,9.043,5.424,13.138c0.597,0.979,0.495,1.646-0.373,2.521
	c-1.543,1.556-3.086,3.107-4.649,4.642c-0.406,0.396-0.47,0.65-0.097,1.166c2.373,3.296,5.134,6.239,8.082,9.007
	c1.652,1.548,3.396,2.995,5.246,4.314c0.521,0.37,0.817,0.316,1.246-0.126c1.522-1.573,3.08-3.114,4.64-4.653
	c0.827-0.816,1.504-0.899,2.461-0.314c4.094,2.499,8.491,4.265,13.137,5.425c0.623,0.154,1.072,0.417,1.271,1.039
	c-0.148,2.249-0.033,4.5-0.059,6.749c-0.006,0.459-0.104,0.932,0.086,1.381c1.092,0.547,2.302,0.485,3.463,0.657
	c3.313,0.497,6.657,0.409,9.988,0.333c2.142-0.052,4.268-0.377,6.387-0.703c0.263-0.039,0.512-0.188,0.769-0.286
	c0.188-0.363,0.091-0.755,0.086-1.132c-0.027-2.333,0.09-4.668-0.062-6.999c0.201-0.62,0.65-0.883,1.271-1.038
	c4.644-1.158,9.038-2.922,13.131-5.42c0.984-0.6,1.649-0.503,2.521,0.363c1.535,1.52,3.073,3.039,4.578,4.589
	c0.419,0.432,0.717,0.53,1.243,0.146c3.546-2.583,6.727-5.561,9.658-8.817c1.294-1.438,2.479-2.962,3.671-4.487
	c0.428-0.552,0.293-0.819-0.125-1.229c-1.563-1.529-3.105-3.081-4.646-4.639c-0.828-0.84-0.926-1.513-0.353-2.456
	c2.521-4.145,4.315-8.582,5.467-13.287c0.104-0.417,0.259-0.789,0.677-0.985c0.24,0.02,0.444-0.086,0.648-0.184
	c0.257-0.247,0.577-0.146,0.874-0.146c2.129-0.009,4.263-0.026,6.394,0.013c0.585,0.01,0.783-0.246,0.867-0.739
	c0.75-4.378,0.829-8.794,0.653-13.214c-0.072-1.835-0.428-3.66-0.629-5.492c-0.072-0.668-0.342-0.923-1.06-0.907
	c-2.074,0.052-4.151,0.022-6.227,0.015c-0.295-0.002-0.616,0.103-0.871-0.147c-0.101-0.1-0.207-0.099-0.317-0.018
	c-0.62-0.199-0.884-0.653-1.038-1.271c-1.159-4.646-2.923-9.045-5.423-13.138c-0.598-0.979-0.495-1.645,0.373-2.522
	c1.542-1.554,3.085-3.106,4.649-4.638c0.407-0.398,0.469-0.652,0.098-1.17c-2.373-3.293-5.134-6.236-8.083-9.003
	c-1.65-1.551-3.396-2.998-5.245-4.316c-0.521-0.371-0.818-0.316-1.248,0.125c-1.522,1.574-3.078,3.114-4.639,4.652
	c-0.828,0.817-1.503,0.899-2.459,0.317c-4.096-2.502-8.492-4.268-13.14-5.426c-0.62-0.154-1.07-0.417-1.271-1.04
	c0.147-2.247,0.033-4.501,0.059-6.751c0.006-0.457,0.103-0.929-0.086-1.38c-1.092-0.544-2.304-0.485-3.463-0.657
	c-3.313-0.495-6.657-0.408-9.989-0.331c-2.142,0.049-4.268,0.377-6.386,0.701c-0.265,0.04-0.512,0.189-0.769,0.286
	c-0.188,0.366-0.09,0.756-0.088,1.133c0.027,2.332-0.088,4.666,0.063,6.998c-0.199,0.621-0.65,0.885-1.271,1.039
	c-4.644,1.158-9.038,2.922-13.131,5.418c-0.982,0.603-1.649,0.504-2.521-0.36c-1.535-1.521-3.071-3.04-4.577-4.592
	c-0.419-0.429-0.716-0.529-1.24-0.144c-3.55,2.584-6.728,5.559-9.658,8.817c-1.297,1.44-2.482,2.96-3.67,4.486
	c-0.43,0.553-0.297,0.819,0.121,1.229c1.563,1.529,3.104,3.081,4.647,4.64c0.826,0.836,0.926,1.511,0.353,2.454
	c-2.521,4.146-4.316,8.584-5.47,13.288c-0.102,0.417-0.256,0.789-0.677,0.984c-0.238-0.02-0.443,0.084-0.648,0.185
	c-0.256,0.249-0.578,0.146-0.872,0.147c-2.131,0.008-4.265,0.026-6.395-0.013c-0.583-0.009-0.783,0.248-0.867,0.738
	C340.379,414.2,340.299,418.618,340.475,423.037z M373.342,415.542c0.711-4.791,2.744-8.964,5.955-12.554
	c2.488-2.781,5.492-4.869,8.96-6.267c2.449-0.985,4.991-1.573,7.632-1.698c0.961,0.093,1.922,0.093,2.887,0
	c0.771-0.039,1.519,0.134,2.271,0.245c4.789,0.706,8.964,2.742,12.553,5.952c2.782,2.487,4.872,5.492,6.267,8.962
	c1.001,2.489,1.602,5.071,1.701,7.764c-0.096,0.874-0.096,1.747,0,2.621c0.048,0.815-0.13,1.606-0.246,2.404
	c-0.709,4.79-2.745,8.962-5.955,12.553c-2.488,2.782-5.49,4.872-8.96,6.267c-2.449,0.985-4.99,1.574-7.631,1.698
	c-0.961-0.092-1.923-0.092-2.887,0c-1.008-0.003-1.992-0.191-2.979-0.367c-4.54-0.8-8.485-2.813-11.894-5.875
	c-2.541-2.28-4.504-5.008-5.889-8.13c-1.204-2.72-1.918-5.564-2.029-8.549c0.092-0.874,0.094-1.749,0-2.623
	C373.049,417.131,373.225,416.34,373.342,415.542z"/>
<polygon opacity="0.1" fill="#EAEAEA" stroke="#EAEAEA" stroke-width="2.5853" stroke-linecap="round" stroke-linejoin="round" stroke-miterlimit="10" enable-background="new    " points="
	437.064,502.446 412.692,517.504 437.064,532.561 "/>
</svg>
