<?xml version="1.0" encoding="utf-8"?>
<!-- Generator: Adobe Illustrator 16.0.0, SVG Export Plug-In . SVG Version: 6.00 Build 0)  -->
<!DOCTYPE svg PUBLIC "-//W3C//DTD SVG 1.1//EN" "http://www.w3.org/Graphics/SVG/1.1/DTD/svg11.dtd">
<svg version="1.1" id="Capa_1" xmlns="http://www.w3.org/2000/svg" xmlns:xlink="http://www.w3.org/1999/xlink" x="0px" y="0px"
	 width="700.001px" height="700px" viewBox="0 0 700.001 700" enable-background="new 0 0 700.001 700" xml:space="preserve">
<g>
	<defs>
		<rect id="SVGID_1_" x="-0.243" y="0.108" width="701" height="750"/>
	</defs>
	<use xlink:href="#SVGID_1_"  overflow="visible" fill="#2EACB5"/>
	<clipPath id="SVGID_2_">
		<use xlink:href="#SVGID_1_"  overflow="visible"/>
	</clipPath>
	<polyline opacity="0.3" clip-path="url(#SVGID_2_)" fill="#444444" points="1227.993,819.92 824.512,1174.342 236.733,579.08 
		271,551.108 493.109,551.108 492.112,529.608 491.823,373.989 467.673,364.264 457.201,302.994 463.186,261.15 495.556,233.514 
		491.032,112.794 1198.823,818.987 	"/>
</g>
<path fill="#F2E9EC" d="M488.757,539.582c0,11.143-7.676,20.526-18.188,20.526H259.587c-10.513,0-20.831-9.384-20.831-20.526V154.56
	c0-11.141,10.318-20.452,20.831-20.452h210.981c10.513,0,18.188,9.311,18.188,20.452v39.22v4.477V539.582z"/>
<polyline fill="#4B588A" points="238.757,177.108 238.757,134.108 488.757,134.108 488.757,177.108 "/>
<path fill="#444444" d="M482.38,110.108h-2.988h-55.29h-177.36c-9.903,0-12.985,6.652-12.985,16.555v40.346v85.174v310.812
	c0,9.903,1.082,20.112,10.985,20.112H486.38c9.902,0,9.377-10.209,9.377-20.112V199.838V195.9v-4.981v-23.91v-40.346
	C495.757,116.76,492.282,110.108,482.38,110.108z M482.757,503.225c0,9.902-6.912,17.883-16.814,17.883h-198.74
	c-9.903,0-19.445-7.98-19.445-17.883V161.032c0-9.903,9.542-17.924,19.445-17.924h198.74c9.902,0,16.814,8.021,16.814,17.924v34.855
	v3.98V503.225z"/>
<path opacity="0.5" fill="#FFFFFF" stroke="#1D1D1B" stroke-width="0.3736" stroke-miterlimit="10" d="M380.978,548.792
	c2.188-7.13-1.825-14.683-8.914-16.856c-7.249-2.227-14.715,1.803-16.904,8.931c-1.093,3.563-0.662,7.226,0.958,10.278
	c1.353,2.549,3.511,4.667,6.266,5.933c-0.07,0.068-0.143,0.135-0.203,0.212c-0.317,0.372-0.553,0.813-0.709,1.315l-2.859,9.33
	c-0.336,1.2,0.377,2.37,1.532,2.725c1.153,0.355,2.337-0.234,2.725-1.416l2.878-9.325c0.155-0.505,0.199-1.003,0.146-1.488
	c-0.011-0.099-0.029-0.195-0.048-0.289c2.99,0.499,5.986-0.038,8.535-1.389C377.436,555.131,379.885,552.353,380.978,548.792z
	 M376.326,544.782c0,4.692-3.716,8.492-8.301,8.492c-4.587,0-8.304-3.8-8.304-8.492c0-4.693,3.717-8.496,8.304-8.496
	C372.609,536.286,376.326,540.088,376.326,544.782z"/>
<line opacity="0.5" fill="none" stroke="#1D1D1B" stroke-width="6" stroke-linecap="round" stroke-miterlimit="10" x1="344.757" y1="133.108" x2="388.757" y2="133.108"/>
<circle opacity="0.5" fill="#1D1D1B" cx="368.066" cy="119.441" r="3.736"/>
<circle opacity="0.5" fill="#1D1D1B" cx="377.032" cy="119.441" r="2.134"/>
<path opacity="0.1" fill="#EAEAEA" d="M380.978,548.792c2.188-7.13-1.825-14.683-8.914-16.856
	c-7.249-2.227-14.715,1.803-16.904,8.931c-1.093,3.563-0.662,7.226,0.958,10.278c1.353,2.549,3.511,4.667,6.266,5.933
	c-0.07,0.068-0.143,0.135-0.203,0.212c-0.317,0.372-0.553,0.813-0.709,1.315l-2.859,9.33c-0.336,1.2,0.377,2.37,1.532,2.725
	c1.153,0.355,2.337-0.234,2.725-1.416l2.878-9.325c0.155-0.505,0.199-1.003,0.146-1.488c-0.011-0.099-0.029-0.195-0.048-0.289
	c2.99,0.499,5.986-0.038,8.535-1.389C377.436,555.131,379.885,552.353,380.978,548.792z M376.326,544.782
	c0,4.692-3.716,8.492-8.301,8.492c-4.587,0-8.304-3.8-8.304-8.492c0-4.693,3.717-8.496,8.304-8.496
	C372.609,536.286,376.326,540.088,376.326,544.782z"/>
<line opacity="0.1" fill="none" stroke="#EAEAEA" stroke-width="6" stroke-linecap="round" stroke-miterlimit="10" x1="308.757" y1="539.108" x2="275.757" y2="539.108"/>
<line opacity="0.1" fill="none" stroke="#EAEAEA" stroke-width="6" stroke-linecap="round" stroke-miterlimit="10" x1="308.757" y1="551.108" x2="275.757" y2="551.108"/>
<line opacity="0.1" fill="none" stroke="#EAEAEA" stroke-width="6" stroke-linecap="round" stroke-miterlimit="10" x1="308.757" y1="563.108" x2="275.757" y2="563.108"/>
<polygon opacity="0.1" fill="#EAEAEA" stroke="#EAEAEA" stroke-width="3" stroke-linecap="round" stroke-linejoin="round" stroke-miterlimit="10" points="
	457.257,534.429 431.581,550.295 457.257,566.157 "/>
<g>
	<polygon fill="#444444" points="329.929,386.331 260.925,344.939 260.925,330.751 329.736,289.38 329.832,306.177 280.071,337.846 
		329.739,369.498 	"/>
	<path fill="#444444" d="M349.707,398.177h-8.154c-1.207,0-2.232-0.46-2.888-1.301c-0.384-0.491-0.964-1.556-0.559-3.178
		l0.028-0.099l32.943-110.243c0.731-1.953,2.398-3.117,4.457-3.117h8.019c1.758,0,2.624,0.872,2.987,1.389
		c0.435,0.631,0.832,1.702,0.276,3.254l-32.858,109.984C353.427,396.881,351.767,398.177,349.707,398.177z"/>
	<polygon fill="#444444" points="395.219,386.315 395.219,369.503 445.024,337.844 395.219,306.183 395.219,289.375 
		464.332,330.757 464.163,344.944 	"/>
</g>
<path opacity="0.15" fill="#444444" d="M491.501,364.385l-27.169-33.628l-77.793-49.128l-25.029,56.226l-31.678-31.678
	l-57.79,31.669l-11.117,7.093l208.306,208.305c0,0,16.791,25.772,16.791-6.872L491.501,364.385z"/>
</svg>
