<?xml version="1.0" encoding="utf-8"?>
<!-- Generator: Adobe Illustrator 16.0.0, SVG Export Plug-In . SVG Version: 6.00 Build 0)  -->
<!DOCTYPE svg PUBLIC "-//W3C//DTD SVG 1.1//EN" "http://www.w3.org/Graphics/SVG/1.1/DTD/svg11.dtd">
<svg version="1.1" id="Capa_1" xmlns="http://www.w3.org/2000/svg" xmlns:xlink="http://www.w3.org/1999/xlink" x="0px" y="0px"
	 width="700px" height="700px" viewBox="0 0 700 700" enable-background="new 0 0 700 700" xml:space="preserve">
<rect fill="#78D8FA" width="700" height="700"/>
<polygon opacity="0.3" fill="#444444" points="699.5,274.185 576.303,150.37 127.476,441.791 385.385,700.5 699.5,700.5 "/>
<g>
	<path fill="#78D8FA" d="M577.5,430.571c0,7.44-5.158,13.929-12.654,13.929H140.903c-7.495,0-15.403-6.488-15.403-13.929V165.633
		c0-7.44,7.908-13.133,15.403-13.133h423.943c7.496,0,12.654,5.693,12.654,13.133V430.571z"/>
	<path fill="#3D3D3D" d="M581.5,427.937c0,10.617-7.01,20.563-17.631,20.563h-421.99c-10.621,0-20.379-9.946-20.379-20.563V163.586
		c0-10.618,9.759-19.086,20.379-19.086h421.99c10.621,0,17.631,8.468,17.631,19.086V427.937z M567.5,172.242
		c0-4.623-4.539-8.742-9.165-8.742h-410.24c-4.625,0-8.595,4.119-8.595,8.742V402.11c0,4.622,3.971,9.39,8.595,9.39h410.24
		c4.626,0,9.165-4.768,9.165-9.39V172.242z"/>
	<circle fill="#898989" cx="482.286" cy="426.837" r="8.823"/>
	<circle fill="#898989" cx="521.107" cy="426.837" r="8.822"/>
	<circle fill="#898989" cx="559.929" cy="426.837" r="8.823"/>
	<polyline fill="none" stroke="#FFFFFF" stroke-width="12" stroke-miterlimit="10" points="182.5,211.5 182.5,382.5 371.5,382.5 	
		"/>
	<polyline fill="none" stroke="#FFFFFF" stroke-width="7" stroke-miterlimit="10" points="429,174.5 429,267 533.5,267 	"/>
	<rect x="206.5" y="293.5" fill="#797979" width="29" height="83"/>
	<rect x="248.5" y="275.5" fill="#B8B8B8" width="30" height="101"/>
	<rect x="290.5" y="261.5" fill="#797979" width="29" height="115"/>
	<rect x="330.5" y="242.5" fill="#B8B8B8" width="31" height="134"/>
	<polyline fill="none" stroke="#FFFFFF" stroke-width="5.882" stroke-miterlimit="10" points="442.876,245.083 467.974,214.496 
		501.696,233.32 521.107,202.733 529.93,208.223 	"/>
	<polyline fill="none" stroke="#FFFFFF" stroke-width="7" stroke-miterlimit="10" points="429,289.5 429,382 533.5,382 	"/>
	<polyline fill="none" stroke="#FFFFFF" stroke-width="3.5292" stroke-miterlimit="10" points="451.505,319.98 467.975,355.272 
		486.796,334.098 517.383,355.272 	"/>
	<circle fill="#B8B8B8" cx="451.504" cy="319.98" r="5.49"/>
	<circle fill="#797979" cx="467.973" cy="355.272" r="5.49"/>
	<circle fill="#B8B8B8" cx="486.795" cy="334.098" r="5.489"/>
	<circle fill="#797979" cx="517.383" cy="355.272" r="5.49"/>
</g>
</svg>
