<?xml version="1.0" encoding="utf-8"?>
<!-- Generator: Adobe Illustrator 16.0.0, SVG Export Plug-In . SVG Version: 6.00 Build 0)  -->
<!DOCTYPE svg PUBLIC "-//W3C//DTD SVG 1.1//EN" "http://www.w3.org/Graphics/SVG/1.1/DTD/svg11.dtd">
<svg version="1.1" id="Capa_1" xmlns="http://www.w3.org/2000/svg" xmlns:xlink="http://www.w3.org/1999/xlink" x="0px" y="0px"
	 width="700px" height="700px" viewBox="0 0 700 700" enable-background="new 0 0 700 700" xml:space="preserve">
<rect y="0.108" fill="#E65138" width="700" height="700.813"/>
<polygon fill="#444444" points="404.04,523.596 296.047,523.596 293.047,409.604 407.04,409.604 "/>
<polygon opacity="0.15" enable-background="new    " points="405.04,474.208 295.047,474.208 293.047,403.553 407.04,403.553 "/>
<g>
	<path fill="#3E4C77" d="M582.756,447.715c0,8.217-1.74,17.988-9.93,17.988l-448.05-1.29c-7.12-5.16-13.02-8.662-16.02-16.698
		V166.646c0-8.223,8.217-14.539,16.408-14.539h447.998c8.19,0,9.596,6.315,9.596,14.539v281.069H582.756z"/>
	<path opacity="0.3" fill="#95FFFF" enable-background="new    " d="M109.67,194.126l-0.863-30.779
		c5.187-7.662,6.492-11.239,14.75-11.239h452.842c8.266,0,12.356,2.824,12.356,11.089v30.911"/>
	<path fill="#444444" d="M594.756,446.544c0,11.442-8.065,20.563-19.436,20.563H125.085c-11.369,0-20.328-9.121-20.328-20.563
		V164.14c0-11.441,8.959-21.032,20.328-21.032h450.236c11.369,0,19.436,9.591,19.436,21.032L594.756,446.544L594.756,446.544z
		 M576.756,171.925c0-5.402-4.236-11.817-9.676-11.817H133.238c-5.445,0-10.481,6.415-10.481,11.817v266.333
		c0,5.392,5.036,10.853,10.481,10.853h433.843c5.438,0,9.676-5.461,9.676-10.853L576.756,171.925L576.756,171.925z"/>
</g>
<ellipse fill="#E67A3C" cx="146.165" cy="177.019" rx="7.465" ry="7.471"/>
<path fill="#F6C448" d="M177.588,177.019c0,4.124-3.342,7.471-7.471,7.471c-4.129,0-7.465-3.347-7.465-7.471
	s3.336-7.471,7.465-7.471C174.247,169.548,177.588,172.895,177.588,177.019z"/>
<path fill="#37A999" d="M201.541,177.019c0,4.124-3.341,7.471-7.464,7.471c-4.13,0-7.471-3.347-7.471-7.471s3.341-7.471,7.471-7.471
	C198.2,169.548,201.541,172.895,201.541,177.019z"/>
<g>
	<path fill="#444444" d="M250.784,527.368c-0.716,0-1.296-0.581-1.296-1.297v-4.948c0-6.436,5.234-11.67,11.669-11.67h178.063
		c6.437,0,11.67,5.233,11.67,11.67v4.948c0,0.716-0.582,1.297-1.297,1.297H250.784z"/>
	<g>
		<path fill="#444444" d="M439.221,510.75c5.729,0,10.373,4.645,10.373,10.373v4.948h-198.81v-4.948
			c0-5.729,4.644-10.373,10.373-10.373H439.221 M439.221,508.157H261.157c-7.149,0-12.966,5.814-12.966,12.966v4.948
			c0,1.433,1.161,2.593,2.593,2.593h198.81c1.435,0,2.592-1.16,2.592-2.593v-4.948C452.188,513.973,446.372,508.157,439.221,508.157
			L439.221,508.157z"/>
	</g>
</g>
<line opacity="0.1" fill="none" stroke="#FFFFFF" stroke-width="3.4576" stroke-linecap="round" stroke-miterlimit="10" enable-background="new    " x1="260.292" y1="513.105" x2="293.047" y2="513.105"/>
<line opacity="0.1" fill="none" stroke="#FFFFFF" stroke-width="3.4576" stroke-linecap="round" stroke-miterlimit="10" enable-background="new    " x1="252.945" y1="518.411" x2="257.267" y2="518.411"/>
<line opacity="0.1" fill="none" stroke="#FFFFFF" stroke-width="3.4576" stroke-linecap="round" stroke-miterlimit="10" enable-background="new    " x1="423.374" y1="513.105" x2="436.772" y2="513.105"/>
<line opacity="0.15" fill="none" stroke="#000000" stroke-width="2" stroke-linecap="round" stroke-miterlimit="10" enable-background="new    " x1="316.783" y1="508.108" x2="383.73" y2="508.108"/>
<line fill="none" stroke="#DB4F4B" stroke-width="6" stroke-linecap="round" stroke-miterlimit="10" x1="250.5" y1="208.5" x2="262.5" y2="208.5"/>
<line fill="none" stroke="#EEB04D" stroke-width="6" stroke-linecap="round" stroke-miterlimit="10" x1="250.5" y1="228.5" x2="285.5" y2="228.5"/>
<line fill="none" stroke="#9E9E9E" stroke-width="6" stroke-linecap="round" stroke-miterlimit="10" x1="279.5" y1="257.5" x2="319.5" y2="257.5"/>
<line fill="none" stroke="#EEB04D" stroke-width="6" stroke-linecap="round" stroke-miterlimit="10" x1="290.5" y1="274.5" x2="308.5" y2="274.5"/>
<line fill="none" stroke="#9E9E9E" stroke-width="6" stroke-linecap="round" stroke-miterlimit="10" x1="308.5" y1="287.5" x2="336.5" y2="287.5"/>
<line fill="none" stroke="#9E9E9E" stroke-width="6" stroke-linecap="round" stroke-miterlimit="10" x1="319.5" y1="274.5" x2="352.5" y2="274.5"/>
<line fill="none" stroke="#9E9E9E" stroke-width="6" stroke-linecap="round" stroke-miterlimit="10" x1="352.5" y1="287.5" x2="375.5" y2="287.5"/>
<line fill="none" stroke="#DB4F4B" stroke-width="6" stroke-linecap="round" stroke-miterlimit="10" x1="387.5" y1="287.5" x2="423.5" y2="287.5"/>
<line fill="none" stroke="#F2E9D9" stroke-width="6" stroke-linecap="round" stroke-miterlimit="10" x1="336.5" y1="257.5" x2="414.5" y2="257.5"/>
<line fill="none" stroke="#9E9E9E" stroke-width="6" stroke-linecap="round" stroke-miterlimit="10" x1="395.5" y1="345.5" x2="315.5" y2="345.5"/>
<line fill="none" stroke="#EEB04D" stroke-width="6" stroke-linecap="round" stroke-miterlimit="10" x1="345.5" y1="333.5" x2="332.5" y2="333.5"/>
<line fill="none" stroke="#EEB04D" stroke-width="6" stroke-linecap="round" stroke-miterlimit="10" x1="356.5" y1="397.5" x2="343.5" y2="397.5"/>
<line fill="none" stroke="#9E9E9E" stroke-width="6" stroke-linecap="round" stroke-miterlimit="10" x1="315.5" y1="316.5" x2="285.5" y2="316.5"/>
<line fill="none" stroke="#9E9E9E" stroke-width="6" stroke-linecap="round" stroke-miterlimit="10" x1="315.5" y1="333.5" x2="285.5" y2="333.5"/>
<line fill="none" stroke="#9E9E9E" stroke-width="6" stroke-linecap="round" stroke-miterlimit="10" x1="267.5" y1="316.5" x2="250.5" y2="316.5"/>
<line fill="none" stroke="#9E9E9E" stroke-width="4" stroke-linecap="round" stroke-miterlimit="10" x1="162.5" y1="225.5" x2="145.5" y2="225.5"/>
<line fill="none" stroke="#9E9E9E" stroke-width="4" stroke-linecap="round" stroke-miterlimit="10" x1="182.5" y1="209.5" x2="145.5" y2="209.5"/>
<line fill="none" stroke="#9E9E9E" stroke-width="4" stroke-linecap="round" stroke-miterlimit="10" x1="172.5" y1="255.5" x2="145.5" y2="255.5"/>
<line fill="none" stroke="#9E9E9E" stroke-width="4" stroke-linecap="round" stroke-miterlimit="10" x1="172.5" y1="239.5" x2="145.5" y2="239.5"/>
<line fill="none" stroke="#9E9E9E" stroke-width="4" stroke-linecap="round" stroke-miterlimit="10" x1="162.5" y1="285.5" x2="145.5" y2="285.5"/>
<line fill="none" stroke="#9E9E9E" stroke-width="4" stroke-linecap="round" stroke-miterlimit="10" x1="157.5" y1="269.5" x2="145.5" y2="269.5"/>
<line fill="none" stroke="#9E9E9E" stroke-width="4" stroke-linecap="round" stroke-miterlimit="10" x1="169.5" y1="315.5" x2="152.5" y2="315.5"/>
<line fill="none" stroke="#9E9E9E" stroke-width="4" stroke-linecap="round" stroke-miterlimit="10" x1="175.5" y1="299.5" x2="145.5" y2="299.5"/>
<line fill="none" stroke="#9E9E9E" stroke-width="4" stroke-linecap="round" stroke-miterlimit="10" x1="169.5" y1="345.5" x2="152.5" y2="345.5"/>
<line fill="none" stroke="#9E9E9E" stroke-width="4" stroke-linecap="round" stroke-miterlimit="10" x1="166.5" y1="329.5" x2="145.5" y2="329.5"/>
<line fill="none" stroke="#9E9E9E" stroke-width="4" stroke-linecap="round" stroke-miterlimit="10" x1="176.5" y1="359.5" x2="152.5" y2="359.5"/>
<line fill="none" stroke="#9E9E9E" stroke-width="6" stroke-linecap="round" stroke-miterlimit="10" x1="267.5" y1="333.5" x2="250.5" y2="333.5"/>
<line fill="none" stroke="#F2E9D9" stroke-width="6" stroke-linecap="round" stroke-miterlimit="10" x1="432.5" y1="345.5" x2="415.5" y2="345.5"/>
<line fill="none" stroke="#DB4F4B" stroke-width="6" stroke-linecap="round" stroke-miterlimit="10" x1="415.5" y1="333.5" x2="358.5" y2="333.5"/>
<line fill="none" stroke="#DB4F4B" stroke-width="6" stroke-linecap="round" stroke-miterlimit="10" x1="250.5" y1="362.5" x2="262.5" y2="362.5"/>
<line fill="none" stroke="#DB4F4B" stroke-width="6" stroke-linecap="round" stroke-miterlimit="10" x1="250.5" y1="397.5" x2="262.5" y2="397.5"/>
<line fill="none" stroke="#EEB04D" stroke-width="6" stroke-linecap="round" stroke-miterlimit="10" x1="250.5" y1="418.5" x2="262.5" y2="418.5"/>
<line fill="none" stroke="#EEB04D" stroke-width="6" stroke-linecap="round" stroke-miterlimit="10" x1="250.5" y1="374.5" x2="285.5" y2="374.5"/>
<line fill="none" stroke="#9E9E9E" stroke-width="6" stroke-linecap="round" stroke-miterlimit="10" x1="279.5" y1="397.5" x2="319.5" y2="397.5"/>
<line fill="none" stroke="#EEB04D" stroke-width="6" stroke-linecap="round" stroke-miterlimit="10" x1="290.5" y1="418.5" x2="308.5" y2="418.5"/>
<line fill="none" stroke="#9E9E9E" stroke-width="6" stroke-linecap="round" stroke-miterlimit="10" x1="248.5" y1="433.5" x2="276.5" y2="433.5"/>
<line fill="none" stroke="#9E9E9E" stroke-width="6" stroke-linecap="round" stroke-miterlimit="10" x1="319.5" y1="418.5" x2="352.5" y2="418.5"/>
<line fill="none" stroke="#9E9E9E" stroke-width="6" stroke-linecap="round" stroke-miterlimit="10" x1="292.5" y1="433.5" x2="315.5" y2="433.5"/>
<line fill="none" stroke="#F2E9D9" stroke-width="6" stroke-linecap="round" stroke-miterlimit="10" x1="376.5" y1="397.5" x2="432.5" y2="397.5"/>
<line fill="none" stroke="#DB4F4B" stroke-width="6" stroke-linecap="round" stroke-miterlimit="10" x1="331.5" y1="433.5" x2="381.5" y2="433.5"/>
<line opacity="0.3" fill="none" stroke="#F2E9D9" stroke-width="2" stroke-linecap="round" stroke-miterlimit="10" enable-background="new    " x1="231.167" y1="208.5" x2="231.167" y2="438.881"/>
</svg>
