<?xml version="1.0" encoding="utf-8"?>
<!-- Generator: Adobe Illustrator 16.0.0, SVG Export Plug-In . SVG Version: 6.00 Build 0)  -->
<!DOCTYPE svg PUBLIC "-//W3C//DTD SVG 1.1//EN" "http://www.w3.org/Graphics/SVG/1.1/DTD/svg11.dtd">
<svg version="1.1" id="Capa_1" xmlns="http://www.w3.org/2000/svg" xmlns:xlink="http://www.w3.org/1999/xlink" x="0px" y="0px"
	 width="700.001px" height="700px" viewBox="0 0 700.001 700" enable-background="new 0 0 700.001 700" xml:space="preserve">
<rect y="0.108" fill="#E65138" width="700.001" height="700.813"/>
<polygon opacity="0.3" fill="#444444" points="700.001,260.104 588.757,148.756 111.204,461.645 349.682,700.002 700.001,700.92 "/>
<polygon fill="#444444" points="404.039,523.596 296.047,523.596 293.047,409.604 407.039,409.604 "/>
<polygon opacity="0.15" points="405.039,474.208 295.047,474.208 293.047,403.553 407.039,403.553 "/>
<g>
	<g>
		<path fill="#FFFFFF" d="M582.757,447.715c0,8.217-1.74,17.988-9.93,17.988l-448.05-1.29c-7.12-5.16-13.02-8.662-16.02-16.698
			V166.646c0-8.223,8.217-14.539,16.408-14.539h447.997c8.191,0,9.596,6.315,9.596,14.539V447.715z"/>
		<path fill="#95FFFF" d="M109.67,194.126l-0.863-30.779c5.187-7.662,6.492-11.239,14.75-11.239h452.842
			c8.265,0,12.357,2.824,12.357,11.089v30.911"/>
		<path fill="#444444" d="M594.757,446.544c0,11.442-8.067,20.563-19.436,20.563H125.085c-11.369,0-20.328-9.121-20.328-20.563
			V164.14c0-11.441,8.959-21.032,20.328-21.032h450.236c11.368,0,19.436,9.591,19.436,21.032V446.544z M576.757,171.925
			c0-5.402-4.238-11.817-9.677-11.817H133.238c-5.445,0-10.481,6.415-10.481,11.817v266.333c0,5.39,5.036,10.851,10.481,10.851
			H567.08c5.438,0,9.677-5.461,9.677-10.851V171.925z"/>
	</g>
	<ellipse fill="#E67A3C" cx="146.165" cy="177.019" rx="7.465" ry="7.471"/>
	<path fill="#F6C448" d="M177.588,177.019c0,4.124-3.342,7.471-7.471,7.471c-4.129,0-7.465-3.347-7.465-7.471
		s3.336-7.471,7.465-7.471C174.247,169.548,177.588,172.895,177.588,177.019z"/>
	<path fill="#37A999" d="M201.541,177.019c0,4.124-3.341,7.471-7.464,7.471c-4.13,0-7.471-3.347-7.471-7.471
		s3.341-7.471,7.471-7.471C198.2,169.548,201.541,172.895,201.541,177.019z"/>
	<g>
		<polygon fill="#444444" points="305.348,356.267 210.724,299.507 210.724,280.05 305.083,223.32 305.216,246.353 236.98,289.78 
			305.089,333.184 		"/>
		<path fill="#444444" d="M332.471,372.512H321.29c-1.655,0-3.063-0.631-3.962-1.784c-0.525-0.673-1.323-2.133-0.766-4.358
			l0.038-0.135l45.175-151.175c1.001-2.677,3.287-4.274,6.111-4.274h10.996c2.411,0,3.597,1.196,4.096,1.905
			c0.596,0.865,1.141,2.333,0.38,4.462l-45.06,150.82C337.571,370.734,335.294,372.512,332.471,372.512z"/>
		<polygon fill="#444444" points="394.882,356.245 394.882,333.191 463.178,289.777 394.882,246.361 394.882,223.313 
			489.653,280.059 489.423,299.514 		"/>
	</g>
	<polygon opacity="0.15" fill="#444444" points="375.836,465.057 210.499,299.615 225.743,289.834 304.989,246.38 348.428,289.806 
		382.75,212.697 489.505,280.062 588.474,395.547 591.066,451.445 575.795,460.666 	"/>
	<path fill="#F2A89B" d="M177.588,410.217c0,10.735-8.71,19.444-19.445,19.444c-10.741,0-19.443-8.709-19.443-19.444
		c0-10.734,8.703-19.444,19.443-19.444C168.878,390.773,177.588,399.483,177.588,410.217z"/>
	<polygon fill="#37A999" points="194.757,390.194 216.571,412.006 194.757,433.821 	"/>
	
		<line fill="none" stroke="#BABABA" stroke-width="18" stroke-linecap="round" stroke-miterlimit="10" x1="243.757" y1="410.108" x2="540.757" y2="410.108"/>
</g>
<g>
	<path fill="#444444" d="M250.784,527.368c-0.716,0-1.296-0.581-1.296-1.297v-4.948c0-6.435,5.234-11.67,11.669-11.67h178.065
		c6.435,0,11.669,5.235,11.669,11.67v4.948c0,0.716-0.581,1.297-1.297,1.297H250.784z"/>
	<g>
		<path fill="#444444" d="M439.222,510.75c5.728,0,10.372,4.645,10.372,10.373v4.948h-198.81v-4.948
			c0-5.729,4.644-10.373,10.373-10.373H439.222 M439.222,508.157H261.157c-7.149,0-12.966,5.816-12.966,12.966v4.948
			c0,1.433,1.161,2.593,2.593,2.593h198.81c1.433,0,2.593-1.16,2.593-2.593v-4.948C452.187,513.973,446.371,508.157,439.222,508.157
			L439.222,508.157z"/>
	</g>
</g>
<line opacity="0.1" fill="none" stroke="#FFFFFF" stroke-width="3.4576" stroke-linecap="round" stroke-miterlimit="10" x1="260.292" y1="513.105" x2="293.047" y2="513.105"/>
<line opacity="0.1" fill="none" stroke="#FFFFFF" stroke-width="3.4576" stroke-linecap="round" stroke-miterlimit="10" x1="252.945" y1="518.411" x2="257.267" y2="518.411"/>
<line opacity="0.1" fill="none" stroke="#FFFFFF" stroke-width="3.4576" stroke-linecap="round" stroke-miterlimit="10" x1="423.374" y1="513.105" x2="436.772" y2="513.105"/>
<line opacity="0.15" fill="none" stroke="#000000" stroke-width="2" stroke-linecap="round" stroke-miterlimit="10" x1="316.783" y1="508.108" x2="383.73" y2="508.108"/>
</svg>
